Monoto-Extended.ufo
<glyph name="exclam" format="2">
  <advance width="800"/>
  <unicode hex="0021"/>
  <outline>
    <contour>
      <point x="358" y="206" type="line"/>
      <point x="443" y="206" type="line"/>
      <point x="459" y="714" type="line"/>
      <point x="343" y="714" type="line"/>
    </contour>
    <contour>
      <point x="399" y="-10" type="curve" smooth="yes"/>
      <point x="446" y="-10"/>
      <point x="472" y="10"/>
      <point x="472" y="60" type="curve" smooth="yes"/>
      <point x="472" y="111"/>
      <point x="446" y="130"/>
      <point x="399" y="130" type="curve" smooth="yes"/>
      <point x="356" y="130"/>
      <point x="328" y="111"/>
      <point x="328" y="60" type="curve" smooth="yes"/>
      <point x="328" y="10"/>
      <point x="356" y="-10"/>
    </contour>
  </outline>
</glyph>
<glyph name="numbersign" format="2">
  <advance width="800"/>
  <unicode hex="0023"/>
  <outline>
    <contour>
      <point x="116" y="0" type="line"/>
      <point x="193" y="0" type="line"/>
      <point x="246" y="208" type="line"/>
      <point x="444" y="208" type="line"/>
      <point x="389" y="0" type="line"/>
      <point x="467" y="0" type="line"/>
      <point x="522" y="208" type="line"/>
      <point x="713" y="208" type="line"/>
      <point x="713" y="279" type="line"/>
      <point x="535" y="279" type="line"/>
      <point x="579" y="433" type="line"/>
      <point x="761" y="433" type="line"/>
      <point x="761" y="504" type="line"/>
      <point x="592" y="504" type="line"/>
      <point x="644" y="714" type="line"/>
      <point x="569" y="714" type="line"/>
      <point x="516" y="504" type="line"/>
      <point x="318" y="504" type="line"/>
      <point x="370" y="714" type="line"/>
      <point x="292" y="714" type="line"/>
      <point x="239" y="504" type="line"/>
      <point x="49" y="504" type="line"/>
      <point x="49" y="433" type="line"/>
      <point x="226" y="433" type="line"/>
      <point x="181" y="279" type="line"/>
      <point x="0" y="279" type="line"/>
      <point x="0" y="208" type="line"/>
      <point x="168" y="208" type="line"/>
    </contour>
    <contour>
      <point x="259" y="279" type="line"/>
      <point x="303" y="433" type="line"/>
      <point x="501" y="433" type="line"/>
      <point x="457" y="279" type="line"/>
    </contour>
  </outline>
</glyph>
<glyph name="parenleft" format="2">
  <advance width="800"/>
  <unicode hex="0028"/>
  <outline>
    <contour>
      <point x="476" y="-160" type="curve"/>
      <point x="568" y="-160" type="line"/>
      <point x="431" y="-34"/>
      <point x="364" y="119"/>
      <point x="364" y="274" type="curve" smooth="yes"/>
      <point x="364" y="433"/>
      <point x="430" y="589"/>
      <point x="569" y="714" type="curve"/>
      <point x="476" y="714" type="line"/>
      <point x="339" y="593"/>
      <point x="268" y="437"/>
      <point x="268" y="273" type="curve" smooth="yes"/>
      <point x="268" y="111"/>
      <point x="339" y="-43"/>
    </contour>
  </outline>
</glyph>
<glyph name="asterisk" format="2">
  <advance width="800"/>
  <unicode hex="002A"/>
  <outline>
    <contour>
      <point x="551" y="331" type="line"/>
      <point x="631" y="380" type="line"/>
      <point x="469" y="513" type="line"/>
      <point x="719" y="533" type="line"/>
      <point x="701" y="618" type="line"/>
      <point x="443" y="572" type="line"/>
      <point x="457" y="747" type="line"/>
      <point x="369" y="747" type="line"/>
      <point x="384" y="572" type="line"/>
      <point x="128" y="615" type="line"/>
      <point x="110" y="535" type="line"/>
      <point x="361" y="514" type="line"/>
      <point x="200" y="381" type="line"/>
      <point x="278" y="332" type="line"/>
      <point x="413" y="485" type="line"/>
    </contour>
  </outline>
</glyph>
<glyph name="plus" format="2">
  <advance width="800"/>
  <unicode hex="002B"/>
  <outline>
    <contour>
      <point x="361" y="120" type="line"/>
      <point x="440" y="120" type="line"/>
      <point x="440" y="315" type="line"/>
      <point x="722" y="315" type="line"/>
      <point x="722" y="390" type="line"/>
      <point x="440" y="390" type="line"/>
      <point x="440" y="586" type="line"/>
      <point x="361" y="586" type="line"/>
      <point x="361" y="390" type="line"/>
      <point x="78" y="390" type="line"/>
      <point x="78" y="315" type="line"/>
      <point x="361" y="315" type="line"/>
    </contour>
  </outline>
</glyph>
<glyph name="two" format="2">
  <advance width="800"/>
  <unicode hex="0032"/>
  <outline>
    <contour>
      <point x="92" y="0" type="line"/>
      <point x="738" y="0" type="line"/>
      <point x="738" y="86" type="line"/>
      <point x="224" y="86" type="line"/>
      <point x="224" y="89" type="line"/>
      <point x="469" y="239" type="line" smooth="yes"/>
      <point x="617" y="329"/>
      <point x="689" y="419"/>
      <point x="689" y="526" type="curve" smooth="yes"/>
      <point x="689" y="654"/>
      <point x="573" y="724"/>
      <point x="397" y="724" type="curve" smooth="yes"/>
      <point x="282" y="724"/>
      <point x="181" y="687"/>
      <point x="97" y="638" type="curve"/>
      <point x="151" y="571" type="line"/>
      <point x="224" y="611"/>
      <point x="306" y="639"/>
      <point x="393" y="639" type="curve" smooth="yes"/>
      <point x="512" y="639"/>
      <point x="591" y="605"/>
      <point x="591" y="522" type="curve" smooth="yes"/>
      <point x="591" y="434"/>
      <point x="523" y="360"/>
      <point x="379" y="266" type="curve" smooth="yes"/>
      <point x="92" y="79" type="line"/>
    </contour>
  </outline>
</glyph>
<glyph name="four" format="2">
  <advance width="800"/>
  <unicode hex="0034"/>
  <outline>
    <contour>
      <point x="506" y="0" type="line"/>
      <point x="600" y="0" type="line"/>
      <point x="600" y="159" type="line"/>
      <point x="754" y="159" type="line"/>
      <point x="754" y="240" type="line"/>
      <point x="600" y="240" type="line"/>
      <point x="600" y="718" type="line"/>
      <point x="491" y="718" type="line"/>
      <point x="46" y="237" type="line"/>
      <point x="46" y="159" type="line"/>
      <point x="506" y="159" type="line"/>
    </contour>
    <contour>
      <point x="143" y="240" type="line"/>
      <point x="435" y="526" type="line" smooth="yes"/>
      <point x="460" y="551"/>
      <point x="486" y="589"/>
      <point x="507" y="615" type="curve"/>
      <point x="512" y="615" type="line"/>
      <point x="509" y="570"/>
      <point x="506" y="481"/>
      <point x="506" y="412" type="curve" smooth="yes"/>
      <point x="506" y="240" type="line"/>
    </contour>
  </outline>
</glyph>
<glyph name="seven" format="2">
  <advance width="800"/>
  <unicode hex="0037"/>
  <outline>
    <contour>
      <point x="239" y="0" type="line"/>
      <point x="342" y="0" type="line"/>
      <point x="727" y="639" type="line"/>
      <point x="727" y="714" type="line"/>
      <point x="96" y="714" type="line"/>
      <point x="96" y="628" type="line"/>
      <point x="626" y="628" type="line"/>
    </contour>
  </outline>
</glyph>
<glyph name="semicolon" format="2">
  <advance width="800"/>
  <unicode hex="003B"/>
  <outline>
    <contour>
      <point x="286" y="-142" type="curve"/>
      <point x="365" y="-142" type="line"/>
      <point x="412" y="-62"/>
      <point x="457" y="41"/>
      <point x="483" y="119" type="curve"/>
      <point x="474" y="131" type="line"/>
      <point x="364" y="131" type="line"/>
      <point x="349" y="54"/>
      <point x="321" y="-54"/>
    </contour>
    <contour>
      <point x="425" y="407" type="curve" smooth="yes"/>
      <point x="469" y="407"/>
      <point x="495" y="428"/>
      <point x="495" y="477" type="curve" smooth="yes"/>
      <point x="495" y="529"/>
      <point x="469" y="547"/>
      <point x="425" y="547" type="curve" smooth="yes"/>
      <point x="382" y="547"/>
      <point x="355" y="529"/>
      <point x="355" y="477" type="curve" smooth="yes"/>
      <point x="355" y="428"/>
      <point x="382" y="407"/>
    </contour>
  </outline>
</glyph>
<glyph name="equal" format="2">
  <advance width="800"/>
  <unicode hex="003D"/>
  <outline>
    <contour>
      <point x="70" y="406" type="line"/>
      <point x="729" y="406" type="line"/>
      <point x="729" y="490" type="line"/>
      <point x="70" y="490" type="line"/>
    </contour>
    <contour>
      <point x="70" y="212" type="line"/>
      <point x="729" y="212" type="line"/>
      <point x="729" y="297" type="line"/>
      <point x="70" y="297" type="line"/>
    </contour>
  </outline>
</glyph>
<glyph name="greater" format="2">
  <advance width="800"/>
  <unicode hex="003E"/>
  <outline>
    <contour>
      <point x="87" y="115" type="line"/>
      <point x="714" y="322" type="line"/>
      <point x="714" y="375" type="line"/>
      <point x="87" y="609" type="line"/>
      <point x="87" y="526" type="line"/>
      <point x="608" y="352" type="line"/>
      <point x="87" y="198" type="line"/>
    </contour>
  </outline>
</glyph>
<glyph name="A" format="2">
  <advance width="800"/>
  <unicode hex="0041"/>
  <anchor x="399" y="0" name="bottom"/>
  <anchor x="743" y="10" name="ogonek"/>
  <anchor x="399" y="714" name="top"/>
  <anchor x="801" y="714" name="topright"/>
  <outline>
    <contour>
      <point x="-3" y="0" type="line"/>
      <point x="96" y="0" type="line"/>
      <point x="355" y="505" type="line" smooth="yes"/>
      <point x="367" y="529"/>
      <point x="386" y="579"/>
      <point x="399" y="620" type="curve"/>
      <point x="413" y="579"/>
      <point x="432" y="530"/>
      <point x="445" y="505" type="curve" smooth="yes"/>
      <point x="702" y="0" type="line"/>
      <point x="802" y="0" type="line"/>
      <point x="451" y="717" type="line"/>
      <point x="347" y="717" type="line"/>
    </contour>
    <contour>
      <point x="182" y="213" type="line"/>
      <point x="611" y="213" type="line"/>
      <point x="585" y="298" type="line"/>
      <point x="212" y="298" type="line"/>
    </contour>
  </outline>
</glyph>
<glyph name="B" format="2">
  <advance width="800"/>
  <unicode hex="0042"/>
  <anchor x="400" y="0" name="bottom"/>
  <anchor x="400" y="714" name="top"/>
  <anchor x="802" y="714" name="topright"/>
  <outline>
    <contour>
      <point x="116" y="0" type="line"/>
      <point x="407" y="0" type="line" smooth="yes"/>
      <point x="612" y="0"/>
      <point x="750" y="77"/>
      <point x="750" y="207" type="curve" smooth="yes"/>
      <point x="750" y="318"/>
      <point x="672" y="359"/>
      <point x="534" y="374" type="curve"/>
      <point x="534" y="379" type="line"/>
      <point x="654" y="392"/>
      <point x="724" y="446"/>
      <point x="724" y="539" type="curve" smooth="yes"/>
      <point x="724" y="666"/>
      <point x="609" y="714"/>
      <point x="379" y="714" type="curve" smooth="yes"/>
      <point x="116" y="714" type="line"/>
    </contour>
    <contour>
      <point x="208" y="83" type="line"/>
      <point x="208" y="332" type="line"/>
      <point x="387" y="332" type="line" smooth="yes"/>
      <point x="568" y="332"/>
      <point x="652" y="283"/>
      <point x="652" y="208" type="curve" smooth="yes"/>
      <point x="652" y="135"/>
      <point x="569" y="83"/>
      <point x="392" y="83" type="curve" smooth="yes"/>
    </contour>
    <contour>
      <point x="208" y="414" type="line"/>
      <point x="208" y="631" type="line"/>
      <point x="370" y="631" type="line" smooth="yes"/>
      <point x="553" y="631"/>
      <point x="626" y="601"/>
      <point x="626" y="526" type="curve" smooth="yes"/>
      <point x="626" y="452"/>
      <point x="554" y="414"/>
      <point x="388" y="414" type="curve" smooth="yes"/>
    </contour>
  </outline>
</glyph>
<glyph name="C" format="2">
  <advance width="800"/>
  <unicode hex="0043"/>
  <anchor x="470" y="0" name="bottom"/>
  <anchor x="485" y="714" name="top"/>
  <anchor x="801" y="714" name="topright"/>
  <outline>
    <contour>
      <point x="490" y="-10" type="curve" smooth="yes"/>
      <point x="579" y="-10"/>
      <point x="655" y="-1"/>
      <point x="726" y="20" type="curve"/>
      <point x="726" y="111" type="line"/>
      <point x="655" y="88"/>
      <point x="571" y="79"/>
      <point x="496" y="79" type="curve" smooth="yes"/>
      <point x="268" y="79"/>
      <point x="164" y="182"/>
      <point x="164" y="356" type="curve" smooth="yes"/>
      <point x="164" y="537"/>
      <point x="286" y="638"/>
      <point x="508" y="638" type="curve" smooth="yes"/>
      <point x="574" y="638"/>
      <point x="655" y="625"/>
      <point x="724" y="603" type="curve"/>
      <point x="759" y="682" type="line"/>
      <point x="683" y="709"/>
      <point x="597" y="724"/>
      <point x="507" y="724" type="curve" smooth="yes"/>
      <point x="225" y="724"/>
      <point x="65" y="583"/>
      <point x="65" y="356" type="curve" smooth="yes"/>
      <point x="65" y="140"/>
      <point x="198" y="-10"/>
    </contour>
  </outline>
</glyph>
<glyph name="E" format="2">
  <advance width="800"/>
  <unicode hex="0045"/>
  <anchor x="410" y="0" name="bottom"/>
  <anchor x="626" y="10" name="ogonek"/>
  <anchor x="411" y="714" name="top"/>
  <anchor x="-1" y="714" name="topleft"/>
  <anchor x="802" y="714" name="topright"/>
  <outline>
    <contour>
      <point x="116" y="0" type="line"/>
      <point x="707" y="0" type="line"/>
      <point x="707" y="86" type="line"/>
      <point x="212" y="86" type="line"/>
      <point x="212" y="330" type="line"/>
      <point x="680" y="330" type="line"/>
      <point x="680" y="415" type="line"/>
      <point x="212" y="415" type="line"/>
      <point x="212" y="628" type="line"/>
      <point x="707" y="628" type="line"/>
      <point x="707" y="714" type="line"/>
      <point x="116" y="714" type="line"/>
    </contour>
  </outline>
</glyph>
<glyph name="I" format="2">
  <advance width="800"/>
  <unicode hex="0049"/>
  <anchor x="400" y="0" name="bottom"/>
  <anchor x="480" y="10" name="ogonek"/>
  <anchor x="400" y="714" name="top"/>
  <anchor x="-1" y="714" name="topleft"/>
  <anchor x="801" y="714" name="topright"/>
  <outline>
    <contour>
      <point x="155" y="0" type="line"/>
      <point x="645" y="0" type="line"/>
      <point x="645" y="67" type="line"/>
      <point x="447" y="80" type="line"/>
      <point x="447" y="634" type="line"/>
      <point x="645" y="647" type="line"/>
      <point x="645" y="714" type="line"/>
      <point x="155" y="714" type="line"/>
      <point x="155" y="647" type="line"/>
      <point x="351" y="634" type="line"/>
      <point x="351" y="80" type="line"/>
      <point x="155" y="67" type="line"/>
    </contour>
  </outline>
</glyph>
<glyph name="L" format="2">
  <advance width="800"/>
  <unicode hex="004C"/>
  <anchor x="448" y="0" name="bottom"/>
  <anchor x="400" y="357" name="center"/>
  <anchor x="202" y="714" name="top"/>
  <anchor x="597" y="714" name="topright"/>
  <outline>
    <contour>
      <point x="153" y="0" type="line"/>
      <point x="707" y="0" type="line"/>
      <point x="707" y="89" type="line"/>
      <point x="250" y="89" type="line"/>
      <point x="250" y="714" type="line"/>
      <point x="153" y="714" type="line"/>
    </contour>
  </outline>
</glyph>
<glyph name="N" format="2">
  <advance width="800"/>
  <unicode hex="004E"/>
  <anchor x="400" y="0" name="bottom"/>
  <anchor x="407" y="714" name="top"/>
  <anchor x="830" y="714" name="topright"/>
  <outline>
    <contour>
      <point x="83" y="0" type="line"/>
      <point x="176" y="0" type="line"/>
      <point x="176" y="392" type="line" smooth="yes"/>
      <point x="176" y="466"/>
      <point x="171" y="537"/>
      <point x="165" y="616" type="curve"/>
      <point x="169" y="616" type="line"/>
      <point x="601" y="0" type="line"/>
      <point x="717" y="0" type="line"/>
      <point x="717" y="714" type="line"/>
      <point x="623" y="714" type="line"/>
      <point x="623" y="339" type="line" smooth="yes"/>
      <point x="623" y="260"/>
      <point x="625" y="201"/>
      <point x="632" y="122" type="curve"/>
      <point x="628" y="122" type="line"/>
      <point x="207" y="714" type="line"/>
      <point x="83" y="714" type="line"/>
    </contour>
  </outline>
</glyph>
<glyph name="O" format="2">
  <advance width="800"/>
  <unicode hex="004F"/>
  <anchor x="400" y="0" name="bottom"/>
  <anchor x="400" y="357" name="center"/>
  <anchor x="400" y="10" name="ogonek"/>
  <anchor x="400" y="714" name="top"/>
  <anchor x="-1" y="714" name="topleft"/>
  <anchor x="830" y="714" name="topright"/>
  <outline>
    <contour>
      <point x="400" y="-10" type="curve" smooth="yes"/>
      <point x="654" y="-10"/>
      <point x="762" y="136"/>
      <point x="762" y="359" type="curve" smooth="yes"/>
      <point x="762" y="580"/>
      <point x="649" y="726"/>
      <point x="402" y="726" type="curve" smooth="yes"/>
      <point x="158" y="726"/>
      <point x="39" y="578"/>
      <point x="39" y="357" type="curve" smooth="yes"/>
      <point x="39" y="137"/>
      <point x="146" y="-10"/>
    </contour>
    <contour>
      <point x="402" y="76" type="curve" smooth="yes"/>
      <point x="217" y="76"/>
      <point x="138" y="180"/>
      <point x="138" y="358" type="curve" smooth="yes"/>
      <point x="138" y="535"/>
      <point x="219" y="640"/>
      <point x="403" y="640" type="curve" smooth="yes"/>
      <point x="583" y="640"/>
      <point x="662" y="536"/>
      <point x="662" y="358" type="curve" smooth="yes"/>
      <point x="662" y="180"/>
      <point x="585" y="76"/>
    </contour>
  </outline>
</glyph>
<glyph name="P" format="2">
  <advance width="800"/>
  <unicode hex="0050"/>
  <anchor x="400" y="0" name="bottom"/>
  <anchor x="400" y="714" name="top"/>
  <anchor x="830" y="714" name="topright"/>
  <outline>
    <contour>
      <point x="116" y="0" type="line"/>
      <point x="212" y="0" type="line"/>
      <point x="212" y="272" type="line"/>
      <point x="379" y="272" type="line" smooth="yes"/>
      <point x="639" y="272"/>
      <point x="750" y="383"/>
      <point x="750" y="503" type="curve" smooth="yes"/>
      <point x="750" y="638"/>
      <point x="637" y="714"/>
      <point x="398" y="714" type="curve" smooth="yes"/>
      <point x="116" y="714" type="line"/>
    </contour>
    <contour>
      <point x="212" y="355" type="line"/>
      <point x="212" y="631" type="line"/>
      <point x="388" y="631" type="line" smooth="yes"/>
      <point x="568" y="631"/>
      <point x="652" y="593"/>
      <point x="652" y="499" type="curve" smooth="yes"/>
      <point x="652" y="397"/>
      <point x="546" y="355"/>
      <point x="369" y="355" type="curve" smooth="yes"/>
    </contour>
  </outline>
</glyph>
<glyph name="R" format="2">
  <advance width="800"/>
  <unicode hex="0052"/>
  <anchor x="449" y="0" name="bottom"/>
  <anchor x="400" y="714" name="top"/>
  <anchor x="802" y="714" name="topright"/>
  <outline>
    <contour>
      <point x="116" y="0" type="line"/>
      <point x="212" y="0" type="line"/>
      <point x="212" y="289" type="line"/>
      <point x="424" y="289" type="line"/>
      <point x="678" y="0" type="line"/>
      <point x="786" y="0" type="line"/>
      <point x="511" y="317" type="line"/>
      <point x="637" y="347"/>
      <point x="719" y="402"/>
      <point x="719" y="513" type="curve" smooth="yes"/>
      <point x="719" y="647"/>
      <point x="591" y="714"/>
      <point x="356" y="714" type="curve" smooth="yes"/>
      <point x="116" y="714" type="line"/>
    </contour>
    <contour>
      <point x="212" y="373" type="line"/>
      <point x="212" y="631" type="line"/>
      <point x="350" y="631" type="line" smooth="yes"/>
      <point x="528" y="631"/>
      <point x="620" y="595"/>
      <point x="620" y="505" type="curve" smooth="yes"/>
      <point x="620" y="418"/>
      <point x="531" y="373"/>
      <point x="373" y="373" type="curve" smooth="yes"/>
    </contour>
  </outline>
</glyph>
<glyph name="S" format="2">
  <advance width="800"/>
  <unicode hex="0053"/>
  <anchor x="400" y="0" name="bottom"/>
  <anchor x="428" y="714" name="top"/>
  <anchor x="801" y="714" name="topright"/>
  <outline>
    <contour>
      <point x="371" y="-10" type="curve" smooth="yes"/>
      <point x="599" y="-10"/>
      <point x="728" y="66"/>
      <point x="728" y="192" type="curve" smooth="yes"/>
      <point x="728" y="314"/>
      <point x="608" y="350"/>
      <point x="440" y="399" type="curve" smooth="yes"/>
      <point x="291" y="443"/>
      <point x="210" y="463"/>
      <point x="210" y="531" type="curve" smooth="yes"/>
      <point x="210" y="610"/>
      <point x="314" y="638"/>
      <point x="440" y="638" type="curve" smooth="yes"/>
      <point x="512" y="638"/>
      <point x="596" y="625"/>
      <point x="672" y="603" type="curve"/>
      <point x="705" y="683" type="line"/>
      <point x="628" y="707"/>
      <point x="537" y="724"/>
      <point x="441" y="724" type="curve" smooth="yes"/>
      <point x="242" y="724"/>
      <point x="111" y="657"/>
      <point x="111" y="534" type="curve" smooth="yes"/>
      <point x="111" y="410"/>
      <point x="229" y="368"/>
      <point x="373" y="327" type="curve" smooth="yes"/>
      <point x="553" y="276"/>
      <point x="628" y="258"/>
      <point x="628" y="192" type="curve" smooth="yes"/>
      <point x="628" y="113"/>
      <point x="528" y="73"/>
      <point x="372" y="73" type="curve" smooth="yes"/>
      <point x="275" y="73"/>
      <point x="169" y="94"/>
      <point x="93" y="117" type="curve"/>
      <point x="93" y="28" type="line"/>
      <point x="157" y="6"/>
      <point x="262" y="-10"/>
    </contour>
  </outline>
</glyph>
<glyph name="a" format="2">
  <advance width="800"/>
  <unicode hex="0061"/>
  <anchor x="404" y="0" name="bottom"/>
  <anchor x="744" y="10" name="ogonek"/>
  <anchor x="407" y="537" name="top"/>
  <anchor x="801" y="537" name="topright"/>
  <outline>
    <contour>
      <point x="326" y="-10" type="curve" smooth="yes"/>
      <point x="453" y="-10"/>
      <point x="543" y="16"/>
      <point x="598" y="73" type="curve"/>
      <point x="603" y="73" type="line"/>
      <point x="614" y="0" type="line"/>
      <point x="691" y="0" type="line"/>
      <point x="691" y="360" type="line" smooth="yes"/>
      <point x="691" y="488"/>
      <point x="592" y="547"/>
      <point x="403" y="547" type="curve" smooth="yes"/>
      <point x="301" y="547"/>
      <point x="217" y="526"/>
      <point x="141" y="500" type="curve"/>
      <point x="174" y="428" type="line"/>
      <point x="247" y="455"/>
      <point x="321" y="469"/>
      <point x="398" y="469" type="curve" smooth="yes"/>
      <point x="529" y="469"/>
      <point x="601" y="441"/>
      <point x="601" y="350" type="curve" smooth="yes"/>
      <point x="601" y="328" type="line"/>
      <point x="432" y="325" type="line" smooth="yes"/>
      <point x="212" y="321"/>
      <point x="80" y="265"/>
      <point x="80" y="148" type="curve" smooth="yes"/>
      <point x="80" y="44"/>
      <point x="172" y="-10"/>
    </contour>
    <contour>
      <point x="342" y="68" type="curve" smooth="yes"/>
      <point x="234" y="68"/>
      <point x="173" y="92"/>
      <point x="173" y="152" type="curve" smooth="yes"/>
      <point x="173" y="217"/>
      <point x="269" y="254"/>
      <point x="453" y="258" type="curve" smooth="yes"/>
      <point x="601" y="261" type="line"/>
      <point x="601" y="214" type="line" smooth="yes"/>
      <point x="601" y="114"/>
      <point x="495" y="68"/>
    </contour>
  </outline>
</glyph>
<glyph name="b" format="2">
  <advance width="800"/>
  <unicode hex="0062"/>
  <anchor x="400" y="0" name="bottom"/>
  <anchor x="400" y="760" name="top"/>
  <anchor x="801" y="760" name="topright"/>
  <outline>
    <contour>
      <point x="432" y="-10" type="curve" smooth="yes"/>
      <point x="637" y="-10"/>
      <point x="744" y="89"/>
      <point x="744" y="270" type="curve" smooth="yes"/>
      <point x="744" y="449"/>
      <point x="632" y="547"/>
      <point x="442" y="547" type="curve" smooth="yes"/>
      <point x="313" y="547"/>
      <point x="228" y="510"/>
      <point x="191" y="467" type="curve"/>
      <point x="187" y="467" type="line"/>
      <point x="190" y="506"/>
      <point x="191" y="542"/>
      <point x="191" y="577" type="curve" smooth="yes"/>
      <point x="191" y="760" type="line"/>
      <point x="97" y="760" type="line"/>
      <point x="97" y="0" type="line"/>
      <point x="174" y="0" type="line"/>
      <point x="185" y="67" type="line"/>
      <point x="192" y="67" type="line"/>
      <point x="231" y="24"/>
      <point x="310" y="-10"/>
    </contour>
    <contour>
      <point x="414" y="68" type="curve" smooth="yes"/>
      <point x="263" y="68"/>
      <point x="191" y="138"/>
      <point x="191" y="272" type="curve" smooth="yes"/>
      <point x="191" y="399"/>
      <point x="272" y="469"/>
      <point x="422" y="469" type="curve" smooth="yes"/>
      <point x="576" y="469"/>
      <point x="645" y="398"/>
      <point x="645" y="270" type="curve" smooth="yes"/>
      <point x="645" y="139"/>
      <point x="568" y="68"/>
    </contour>
  </outline>
</glyph>
<glyph name="c" format="2">
  <advance width="800"/>
  <unicode hex="0063"/>
  <anchor x="448" y="0" name="bottom"/>
  <anchor x="440" y="537" name="top"/>
  <anchor x="801" y="537" name="topright"/>
  <outline>
    <contour>
      <point x="462" y="-10" type="curve" smooth="yes"/>
      <point x="544" y="-10"/>
      <point x="630" y="1"/>
      <point x="684" y="21" type="curve"/>
      <point x="684" y="106" type="line"/>
      <point x="627" y="87"/>
      <point x="549" y="72"/>
      <point x="471" y="72" type="curve" smooth="yes"/>
      <point x="281" y="72"/>
      <point x="191" y="127"/>
      <point x="191" y="267" type="curve" smooth="yes"/>
      <point x="191" y="399"/>
      <point x="291" y="464"/>
      <point x="484" y="464" type="curve" smooth="yes"/>
      <point x="545" y="464"/>
      <point x="604" y="455"/>
      <point x="665" y="432" type="curve"/>
      <point x="693" y="510" type="line"/>
      <point x="631" y="534"/>
      <point x="562" y="547"/>
      <point x="481" y="547" type="curve" smooth="yes"/>
      <point x="245" y="547"/>
      <point x="93" y="468"/>
      <point x="93" y="264" type="curve" smooth="yes"/>
      <point x="93" y="72"/>
      <point x="220" y="-10"/>
    </contour>
  </outline>
</glyph>
<glyph name="e" format="2">
  <advance width="800"/>
  <unicode hex="0065"/>
  <anchor x="415" y="0" name="bottom"/>
  <anchor x="414" y="10" name="ogonek"/>
  <anchor x="406" y="537" name="top"/>
  <anchor x="802" y="537" name="topright"/>
  <outline>
    <contour>
      <point x="453" y="-10" type="curve" smooth="yes"/>
      <point x="534" y="-10"/>
      <point x="625" y="1"/>
      <point x="708" y="28" type="curve"/>
      <point x="708" y="113" type="line"/>
      <point x="627" y="86"/>
      <point x="547" y="69"/>
      <point x="460" y="69" type="curve" smooth="yes"/>
      <point x="267" y="69"/>
      <point x="165" y="115"/>
      <point x="161" y="249" type="curve"/>
      <point x="737" y="249" type="line"/>
      <point x="737" y="292" type="line" smooth="yes"/>
      <point x="737" y="450"/>
      <point x="628" y="547"/>
      <point x="422" y="547" type="curve" smooth="yes"/>
      <point x="193" y="547"/>
      <point x="64" y="442"/>
      <point x="64" y="267" type="curve" smooth="yes"/>
      <point x="64" y="89"/>
      <point x="194" y="-10"/>
    </contour>
    <contour>
      <point x="164" y="324" type="line"/>
      <point x="182" y="413"/>
      <point x="279" y="470"/>
      <point x="422" y="470" type="curve" smooth="yes"/>
      <point x="564" y="470"/>
      <point x="638" y="415"/>
      <point x="641" y="324" type="curve"/>
    </contour>
  </outline>
</glyph>
<glyph name="f" format="2">
  <advance width="800"/>
  <unicode hex="0066"/>
  <anchor x="400" y="0" name="bottom"/>
  <anchor x="560" y="765" name="top"/>
  <anchor x="801" y="765" name="topright"/>
  <outline>
    <contour>
      <point x="331" y="0" type="line"/>
      <point x="428" y="0" type="line"/>
      <point x="428" y="457" type="line"/>
      <point x="731" y="457" type="line"/>
      <point x="731" y="537" type="line"/>
      <point x="428" y="537" type="line"/>
      <point x="428" y="583" type="line" smooth="yes"/>
      <point x="428" y="663"/>
      <point x="488" y="685"/>
      <point x="606" y="685" type="curve" smooth="yes"/>
      <point x="660" y="685"/>
      <point x="722" y="679"/>
      <point x="762" y="670" type="curve"/>
      <point x="782" y="745" type="line"/>
      <point x="739" y="755"/>
      <point x="669" y="765"/>
      <point x="601" y="765" type="curve" smooth="yes"/>
      <point x="427" y="765"/>
      <point x="331" y="722"/>
      <point x="331" y="596" type="curve" smooth="yes"/>
      <point x="331" y="537" type="line"/>
      <point x="80" y="522" type="line"/>
      <point x="80" y="457" type="line"/>
      <point x="331" y="457" type="line"/>
    </contour>
  </outline>
</glyph>
<glyph name="h" format="2">
  <advance width="800"/>
  <unicode hex="0068"/>
  <anchor x="400" y="0" name="bottom"/>
  <anchor x="400" y="269" name="center"/>
  <anchor x="145" y="760" name="top"/>
  <anchor x="801" y="760" name="topright"/>
  <outline>
    <contour>
      <point x="97" y="0" type="line"/>
      <point x="194" y="0" type="line"/>
      <point x="194" y="275" type="line" smooth="yes"/>
      <point x="194" y="399"/>
      <point x="285" y="469"/>
      <point x="424" y="469" type="curve" smooth="yes"/>
      <point x="544" y="469"/>
      <point x="613" y="425"/>
      <point x="613" y="330" type="curve" smooth="yes"/>
      <point x="613" y="0" type="line"/>
      <point x="710" y="0" type="line"/>
      <point x="710" y="351" type="line" smooth="yes"/>
      <point x="710" y="487"/>
      <point x="608" y="547"/>
      <point x="447" y="547" type="curve" smooth="yes"/>
      <point x="319" y="547"/>
      <point x="235" y="518"/>
      <point x="195" y="453" type="curve"/>
      <point x="189" y="453" type="line"/>
      <point x="190" y="478"/>
      <point x="194" y="525"/>
      <point x="194" y="552" type="curve" smooth="yes"/>
      <point x="194" y="760" type="line"/>
      <point x="97" y="760" type="line"/>
    </contour>
  </outline>
</glyph>
<glyph name="k" format="2">
  <advance width="800"/>
  <unicode hex="006B"/>
  <anchor x="451" y="0" name="bottom"/>
  <anchor x="457" y="760" name="top"/>
  <anchor x="802" y="760" name="topright"/>
  <outline>
    <contour>
      <point x="137" y="0" type="line"/>
      <point x="234" y="0" type="line"/>
      <point x="234" y="165" type="line"/>
      <point x="388" y="249" type="line"/>
      <point x="662" y="0" type="line"/>
      <point x="774" y="0" type="line"/>
      <point x="453" y="307" type="line"/>
      <point x="751" y="537" type="line"/>
      <point x="633" y="537" type="line"/>
      <point x="333" y="334" type="line" smooth="yes"/>
      <point x="294" y="308"/>
      <point x="264" y="280"/>
      <point x="230" y="247" type="curve"/>
      <point x="227" y="247" type="line"/>
      <point x="231" y="294"/>
      <point x="234" y="357"/>
      <point x="234" y="399" type="curve" smooth="yes"/>
      <point x="234" y="760" type="line"/>
      <point x="137" y="760" type="line"/>
    </contour>
  </outline>
</glyph>
<glyph name="m" format="2">
  <advance width="800"/>
  <unicode hex="006D"/>
  <anchor x="406" y="0" name="bottom"/>
  <anchor x="429" y="537" name="top"/>
  <anchor x="801" y="537" name="topright"/>
  <outline>
    <contour>
      <point x="51" y="0" type="line"/>
      <point x="138" y="0" type="line"/>
      <point x="138" y="275" type="line" smooth="yes"/>
      <point x="138" y="391"/>
      <point x="170" y="464"/>
      <point x="261" y="464" type="curve" smooth="yes"/>
      <point x="327" y="464"/>
      <point x="359" y="419"/>
      <point x="359" y="337" type="curve" smooth="yes"/>
      <point x="359" y="0" type="line"/>
      <point x="446" y="0" type="line"/>
      <point x="446" y="275" type="line" smooth="yes"/>
      <point x="446" y="400"/>
      <point x="492" y="464"/>
      <point x="571" y="464" type="curve" smooth="yes"/>
      <point x="638" y="464"/>
      <point x="665" y="418"/>
      <point x="665" y="337" type="curve" smooth="yes"/>
      <point x="665" y="0" type="line"/>
      <point x="752" y="0" type="line"/>
      <point x="752" y="351" type="line" smooth="yes"/>
      <point x="752" y="485"/>
      <point x="704" y="547"/>
      <point x="596" y="547" type="curve" smooth="yes"/>
      <point x="510" y="547"/>
      <point x="465" y="519"/>
      <point x="434" y="469" type="curve"/>
      <point x="430" y="469" type="line"/>
      <point x="413" y="520"/>
      <point x="374" y="547"/>
      <point x="288" y="547" type="curve" smooth="yes"/>
      <point x="207" y="547"/>
      <point x="167" y="530"/>
      <point x="137" y="477" type="curve"/>
      <point x="131" y="477" type="line"/>
      <point x="118" y="537" type="line"/>
      <point x="51" y="537" type="line"/>
    </contour>
  </outline>
</glyph>
<glyph name="o" format="2">
  <advance width="800"/>
  <unicode hex="006F"/>
  <anchor x="400" y="0" name="bottom"/>
  <anchor x="400" y="269" name="center"/>
  <anchor x="401" y="10" name="ogonek"/>
  <anchor x="400" y="537" name="top"/>
  <anchor x="801" y="537" name="topright"/>
  <outline>
    <contour>
      <point x="401" y="-10" type="curve" smooth="yes"/>
      <point x="615" y="-10"/>
      <point x="744" y="83"/>
      <point x="744" y="267" type="curve" smooth="yes"/>
      <point x="744" y="455"/>
      <point x="617" y="547"/>
      <point x="401" y="547" type="curve" smooth="yes"/>
      <point x="192" y="547"/>
      <point x="56" y="455"/>
      <point x="56" y="271" type="curve" smooth="yes"/>
      <point x="56" y="83"/>
      <point x="188" y="-10"/>
    </contour>
    <contour>
      <point x="400" y="68" type="curve" smooth="yes"/>
      <point x="234" y="68"/>
      <point x="152" y="146"/>
      <point x="152" y="269" type="curve" smooth="yes"/>
      <point x="152" y="393"/>
      <point x="239" y="469"/>
      <point x="402" y="469" type="curve" smooth="yes"/>
      <point x="573" y="469"/>
      <point x="646" y="393"/>
      <point x="646" y="269" type="curve" smooth="yes"/>
      <point x="646" y="146"/>
      <point x="568" y="68"/>
    </contour>
  </outline>
</glyph>
<glyph name="r" format="2">
  <advance width="800"/>
  <unicode hex="0072"/>
  <anchor x="367" y="0" name="bottom"/>
  <anchor x="458" y="537" name="top"/>
  <anchor x="801" y="537" name="topright"/>
  <outline>
    <contour>
      <point x="79" y="0" type="line"/>
      <point x="664" y="0" type="line"/>
      <point x="664" y="65" type="line"/>
      <point x="414" y="80" type="line"/>
      <point x="414" y="267" type="line" smooth="yes"/>
      <point x="414" y="375"/>
      <point x="498" y="461"/>
      <point x="638" y="461" type="curve" smooth="yes"/>
      <point x="685" y="461"/>
      <point x="729" y="452"/>
      <point x="763" y="440" type="curve"/>
      <point x="787" y="526" type="line"/>
      <point x="748" y="539"/>
      <point x="697" y="547"/>
      <point x="641" y="547" type="curve" smooth="yes"/>
      <point x="524" y="547"/>
      <point x="453" y="509"/>
      <point x="413" y="440" type="curve"/>
      <point x="408" y="440" type="line"/>
      <point x="397" y="537" type="line"/>
      <point x="104" y="537" type="line"/>
      <point x="104" y="470" type="line"/>
      <point x="318" y="457" type="line"/>
      <point x="318" y="80" type="line"/>
      <point x="79" y="65" type="line"/>
    </contour>
  </outline>
</glyph>
<glyph name="t" format="2">
  <advance width="800"/>
  <unicode hex="0074"/>
  <anchor x="513" y="0" name="bottom"/>
  <anchor x="340" y="269" name="center"/>
  <anchor x="346" y="679" name="top"/>
  <anchor x="801" y="679" name="topright"/>
  <outline>
    <contour>
      <point x="549" y="-10" type="curve" smooth="yes"/>
      <point x="607" y="-10"/>
      <point x="653" y="-2"/>
      <point x="695" y="7" type="curve"/>
      <point x="695" y="84" type="line"/>
      <point x="656" y="77"/>
      <point x="607" y="69"/>
      <point x="558" y="69" type="curve" smooth="yes"/>
      <point x="432" y="69"/>
      <point x="386" y="102"/>
      <point x="386" y="184" type="curve" smooth="yes"/>
      <point x="386" y="457" type="line"/>
      <point x="689" y="457" type="line"/>
      <point x="689" y="537" type="line"/>
      <point x="386" y="537" type="line"/>
      <point x="386" y="679" type="line"/>
      <point x="308" y="679" type="line"/>
      <point x="290" y="540" type="line"/>
      <point x="65" y="521" type="line"/>
      <point x="65" y="457" type="line"/>
      <point x="289" y="457" type="line"/>
      <point x="289" y="166" type="line" smooth="yes"/>
      <point x="289" y="31"/>
      <point x="379" y="-10"/>
    </contour>
  </outline>
</glyph>
<glyph name="y" format="2">
  <advance width="800"/>
  <unicode hex="0079"/>
  <anchor x="400" y="-245" name="bottom"/>
  <anchor x="400" y="537" name="top"/>
  <anchor x="801" y="537" name="topright"/>
  <outline>
    <contour>
      <point x="166" y="-245" type="curve" smooth="yes"/>
      <point x="303" y="-245"/>
      <point x="355" y="-174"/>
      <point x="411" y="-71" type="curve" smooth="yes"/>
      <point x="743" y="537" type="line"/>
      <point x="644" y="537" type="line"/>
      <point x="475" y="226" type="line" smooth="yes"/>
      <point x="452" y="185"/>
      <point x="432" y="134"/>
      <point x="412" y="86" type="curve"/>
      <point x="409" y="86" type="line"/>
      <point x="389" y="132"/>
      <point x="368" y="183"/>
      <point x="343" y="225" type="curve" smooth="yes"/>
      <point x="156" y="537" type="line"/>
      <point x="60" y="537" type="line"/>
      <point x="365" y="-4" type="line"/>
      <point x="319" y="-74" type="line" smooth="yes"/>
      <point x="276" y="-140"/>
      <point x="237" y="-169"/>
      <point x="155" y="-169" type="curve" smooth="yes"/>
      <point x="127" y="-169"/>
      <point x="99" y="-166"/>
      <point x="74" y="-163" type="curve"/>
      <point x="74" y="-237" type="line"/>
      <point x="101" y="-241"/>
      <point x="133" y="-245"/>
    </contour>
  </outline>
</glyph>
<glyph name="z" format="2">
  <advance width="800"/>
  <unicode hex="007A"/>
  <anchor x="414" y="0" name="bottom"/>
  <anchor x="414" y="537" name="top"/>
  <anchor x="801" y="537" name="topright"/>
  <outline>
    <contour>
      <point x="111" y="0" type="line"/>
      <point x="686" y="0" type="line"/>
      <point x="686" y="81" type="line"/>
      <point x="230" y="81" type="line"/>
      <point x="681" y="463" type="line"/>
      <point x="681" y="537" type="line"/>
      <point x="141" y="537" type="line"/>
      <point x="141" y="463" type="line"/>
      <point x="569" y="463" type="line"/>
      <point x="111" y="64" type="line"/>
    </contour>
  </outline>
</glyph>
<glyph name="cent" format="2">
  <advance width="800"/>
  <unicode hex="00A2"/>
  <outline>
    <contour>
      <point x="410" y="-10" type="line"/>
      <point x="482" y="-10" type="line"/>
      <point x="482" y="86" type="line"/>
      <point x="560" y="89"/>
      <point x="626" y="99"/>
      <point x="674" y="118" type="curve"/>
      <point x="674" y="200" type="line"/>
      <point x="616" y="182"/>
      <point x="543" y="169"/>
      <point x="462" y="169" type="curve" smooth="yes"/>
      <point x="282" y="169"/>
      <point x="196" y="227"/>
      <point x="196" y="363" type="curve" smooth="yes"/>
      <point x="196" y="498"/>
      <point x="295" y="563"/>
      <point x="476" y="563" type="curve" smooth="yes"/>
      <point x="540" y="563"/>
      <point x="605" y="550"/>
      <point x="658" y="536" type="curve"/>
      <point x="685" y="614" type="line"/>
      <point x="632" y="630"/>
      <point x="561" y="642"/>
      <point x="483" y="644" type="curve"/>
      <point x="483" y="724" type="line"/>
      <point x="410" y="724" type="line"/>
      <point x="410" y="640" type="line"/>
      <point x="219" y="622"/>
      <point x="99" y="535"/>
      <point x="99" y="362" type="curve" smooth="yes"/>
      <point x="99" y="184"/>
      <point x="209" y="107"/>
      <point x="410" y="89" type="curve"/>
    </contour>
  </outline>
</glyph>
<glyph name="sterling" format="2">
  <advance width="800"/>
  <unicode hex="00A3"/>
  <outline>
    <contour>
      <point x="99" y="0" type="line"/>
      <point x="733" y="0" type="line"/>
      <point x="733" y="86" type="line"/>
      <point x="244" y="86" type="line"/>
      <point x="299" y="107"/>
      <point x="345" y="166"/>
      <point x="345" y="220" type="curve" smooth="yes"/>
      <point x="345" y="319" type="line"/>
      <point x="598" y="319" type="line"/>
      <point x="598" y="390" type="line"/>
      <point x="345" y="390" type="line"/>
      <point x="345" y="524" type="line" smooth="yes"/>
      <point x="345" y="609"/>
      <point x="402" y="642"/>
      <point x="519" y="642" type="curve" smooth="yes"/>
      <point x="578" y="642"/>
      <point x="630" y="632"/>
      <point x="689" y="609" type="curve"/>
      <point x="722" y="682" type="line"/>
      <point x="662" y="709"/>
      <point x="597" y="723"/>
      <point x="511" y="723" type="curve" smooth="yes"/>
      <point x="347" y="723"/>
      <point x="250" y="653"/>
      <point x="250" y="532" type="curve" smooth="yes"/>
      <point x="250" y="390" type="line"/>
      <point x="112" y="390" type="line"/>
      <point x="112" y="319" type="line"/>
      <point x="250" y="319" type="line"/>
      <point x="250" y="219" type="line" smooth="yes"/>
      <point x="250" y="133"/>
      <point x="193" y="95"/>
      <point x="99" y="80" type="curve"/>
    </contour>
  </outline>
</glyph>
<glyph name="yen" format="2">
  <advance width="800"/>
  <unicode hex="00A5"/>
  <outline>
    <contour>
      <point x="353" y="0" type="line"/>
      <point x="447" y="0" type="line"/>
      <point x="447" y="127" type="line"/>
      <point x="673" y="127" type="line"/>
      <point x="673" y="194" type="line"/>
      <point x="447" y="194" type="line"/>
      <point x="447" y="274" type="line"/>
      <point x="673" y="274" type="line"/>
      <point x="673" y="341" type="line"/>
      <point x="473" y="341" type="line"/>
      <point x="779" y="714" type="line"/>
      <point x="676" y="714" type="line"/>
      <point x="400" y="373" type="line"/>
      <point x="125" y="714" type="line"/>
      <point x="22" y="714" type="line"/>
      <point x="324" y="341" type="line"/>
      <point x="128" y="341" type="line"/>
      <point x="128" y="274" type="line"/>
      <point x="353" y="274" type="line"/>
      <point x="353" y="194" type="line"/>
      <point x="128" y="194" type="line"/>
      <point x="128" y="127" type="line"/>
      <point x="353" y="127" type="line"/>
    </contour>
  </outline>
</glyph>
<glyph name="brokenbar" format="2">
  <advance width="800"/>
  <unicode hex="00A6"/>
  <outline>
    <contour>
      <point x="359" y="377" type="line"/>
      <point x="439" y="377" type="line"/>
      <point x="439" y="760" type="line"/>
      <point x="359" y="760" type="line"/>
    </contour>
    <contour>
      <point x="359" y="-240" type="line"/>
      <point x="439" y="-240" type="line"/>
      <point x="439" y="143" type="line"/>
      <point x="359" y="143" type="line"/>
    </contour>
  </outline>
</glyph>
<glyph name="section" format="2">
  <advance width="800"/>
  <unicode hex="00A7"/>
  <outline>
    <contour>
      <point x="376" y="-10" type="curve" smooth="yes"/>
      <point x="565" y="-10"/>
      <point x="668" y="43"/>
      <point x="668" y="134" type="curve" smooth="yes"/>
      <point x="668" y="189"/>
      <point x="623" y="226"/>
      <point x="554" y="252" type="curve"/>
      <point x="620" y="276"/>
      <point x="674" y="317"/>
      <point x="674" y="383" type="curve" smooth="yes"/>
      <point x="674" y="462"/>
      <point x="573" y="503"/>
      <point x="436" y="542" type="curve" smooth="yes"/>
      <point x="309" y="578"/>
      <point x="247" y="602"/>
      <point x="247" y="638" type="curve" smooth="yes"/>
      <point x="247" y="673"/>
      <point x="304" y="696"/>
      <point x="423" y="696" type="curve" smooth="yes"/>
      <point x="504" y="696"/>
      <point x="571" y="685"/>
      <point x="629" y="665" type="curve"/>
      <point x="659" y="731" type="line"/>
      <point x="594" y="751"/>
      <point x="522" y="765"/>
      <point x="425" y="765" type="curve" smooth="yes"/>
      <point x="255" y="765"/>
      <point x="158" y="716"/>
      <point x="158" y="637" type="curve" smooth="yes"/>
      <point x="158" y="583"/>
      <point x="207" y="544"/>
      <point x="284" y="519" type="curve"/>
      <point x="210" y="498"/>
      <point x="151" y="458"/>
      <point x="151" y="394" type="curve" smooth="yes"/>
      <point x="151" y="307"/>
      <point x="244" y="272"/>
      <point x="383" y="231" type="curve" smooth="yes"/>
      <point x="521" y="190"/>
      <point x="579" y="167"/>
      <point x="579" y="128" type="curve" smooth="yes"/>
      <point x="579" y="91"/>
      <point x="523" y="58"/>
      <point x="378" y="58" type="curve" smooth="yes"/>
      <point x="292" y="58"/>
      <point x="201" y="81"/>
      <point x="135" y="101" type="curve"/>
      <point x="135" y="24" type="line"/>
      <point x="191" y="2"/>
      <point x="274" y="-10"/>
    </contour>
    <contour>
      <point x="484" y="282" type="curve"/>
      <point x="431" y="294" type="line" smooth="yes"/>
      <point x="298" y="324"/>
      <point x="231" y="357"/>
      <point x="231" y="405" type="curve" smooth="yes"/>
      <point x="231" y="446"/>
      <point x="290" y="477"/>
      <point x="360" y="487" type="curve"/>
      <point x="525" y="449"/>
      <point x="592" y="419"/>
      <point x="592" y="369" type="curve" smooth="yes"/>
      <point x="592" y="327"/>
      <point x="543" y="300"/>
    </contour>
  </outline>
</glyph>
<glyph name="copyright" format="2">
  <advance width="800"/>
  <unicode hex="00A9"/>
  <outline>
    <contour>
      <point x="398" y="102" type="curve"/>
      <point x="614" y="102"/>
      <point x="771" y="205"/>
      <point x="771" y="361" type="curve" smooth="yes"/>
      <point x="771" y="512"/>
      <point x="622" y="618"/>
      <point x="402" y="618" type="curve" smooth="yes"/>
      <point x="186" y="618"/>
      <point x="29" y="514"/>
      <point x="29" y="359" type="curve" smooth="yes"/>
      <point x="29" y="208"/>
      <point x="176" y="102"/>
    </contour>
    <contour>
      <point x="418" y="199" type="curve" smooth="yes"/>
      <point x="461" y="199"/>
      <point x="496" y="205"/>
      <point x="530" y="215" type="curve"/>
      <point x="530" y="266" type="line"/>
      <point x="492" y="257"/>
      <point x="454" y="251"/>
      <point x="422" y="251" type="curve" smooth="yes"/>
      <point x="325" y="251"/>
      <point x="272" y="289"/>
      <point x="272" y="356" type="curve" smooth="yes"/>
      <point x="272" y="429"/>
      <point x="328" y="466"/>
      <point x="423" y="466" type="curve" smooth="yes"/>
      <point x="457" y="466"/>
      <point x="492" y="461"/>
      <point x="524" y="449" type="curve"/>
      <point x="547" y="498" type="line"/>
      <point x="511" y="512"/>
      <point x="466" y="520"/>
      <point x="422" y="520" type="curve" smooth="yes"/>
      <point x="285" y="520"/>
      <point x="207" y="453"/>
      <point x="207" y="356" type="curve" smooth="yes"/>
      <point x="207" y="263"/>
      <point x="283" y="199"/>
    </contour>
    <contour>
      <point x="399" y="151" type="curve"/>
      <point x="214" y="151"/>
      <point x="88" y="233"/>
      <point x="88" y="361" type="curve" smooth="yes"/>
      <point x="88" y="489"/>
      <point x="218" y="567"/>
      <point x="400" y="567" type="curve" smooth="yes"/>
      <point x="584" y="567"/>
      <point x="712" y="486"/>
      <point x="712" y="358" type="curve" smooth="yes"/>
      <point x="712" y="229"/>
      <point x="582" y="151"/>
    </contour>
  </outline>
</glyph>
<glyph name="ordfeminine" format="2">
  <advance width="800"/>
  <unicode hex="00AA"/>
  <outline>
    <contour>
      <point x="350" y="381" type="curve" smooth="yes"/>
      <point x="429" y="381"/>
      <point x="484" y="401"/>
      <point x="517" y="431" type="curve"/>
      <point x="529" y="387" type="line"/>
      <point x="583" y="387" type="line"/>
      <point x="583" y="607" type="line" smooth="yes"/>
      <point x="583" y="686"/>
      <point x="520" y="722"/>
      <point x="401" y="722" type="curve" smooth="yes"/>
      <point x="334" y="722"/>
      <point x="276" y="710"/>
      <point x="229" y="692" type="curve"/>
      <point x="254" y="641" type="line"/>
      <point x="298" y="656"/>
      <point x="344" y="667"/>
      <point x="394" y="667" type="curve" smooth="yes"/>
      <point x="466" y="667"/>
      <point x="513" y="652"/>
      <point x="513" y="610" type="curve" smooth="yes"/>
      <point x="513" y="589" type="line"/>
      <point x="422" y="587" type="line" smooth="yes"/>
      <point x="272" y="584"/>
      <point x="200" y="550"/>
      <point x="200" y="478" type="curve" smooth="yes"/>
      <point x="200" y="414"/>
      <point x="261" y="381"/>
    </contour>
    <contour>
      <point x="371" y="435" type="curve" smooth="yes"/>
      <point x="310" y="435"/>
      <point x="272" y="447"/>
      <point x="272" y="482" type="curve" smooth="yes"/>
      <point x="272" y="516"/>
      <point x="314" y="537"/>
      <point x="428" y="540" type="curve" smooth="yes"/>
      <point x="513" y="542" type="line"/>
      <point x="513" y="520" type="line" smooth="yes"/>
      <point x="513" y="468"/>
      <point x="465" y="435"/>
    </contour>
  </outline>
</glyph>
<glyph name="guillemotleft" format="2">
  <advance width="800"/>
  <unicode hex="00AB"/>
  <outline>
    <contour>
      <point x="612" y="51" type="line"/>
      <point x="674" y="94" type="line"/>
      <point x="480" y="265" type="line"/>
      <point x="674" y="436" type="line"/>
      <point x="612" y="480" type="line"/>
      <point x="379" y="271" type="line"/>
      <point x="379" y="258" type="line"/>
    </contour>
    <contour>
      <point x="343" y="52" type="line"/>
      <point x="406" y="94" type="line"/>
      <point x="213" y="265" type="line"/>
      <point x="407" y="434" type="line"/>
      <point x="343" y="480" type="line"/>
      <point x="112" y="271" type="line"/>
      <point x="112" y="258" type="line"/>
    </contour>
  </outline>
</glyph>
<glyph name="logicalnot" format="2">
  <advance width="800"/>
  <unicode hex="00AC"/>
  <outline>
    <contour>
      <point x="620" y="127" type="line"/>
      <point x="698" y="127" type="line"/>
      <point x="698" y="390" type="line"/>
      <point x="64" y="390" type="line"/>
      <point x="64" y="315" type="line"/>
      <point x="620" y="315" type="line"/>
    </contour>
  </outline>
</glyph>
<glyph name="paragraph" format="2">
  <advance width="800"/>
  <unicode hex="00B6"/>
  <outline>
    <contour>
      <point x="404" y="-127" type="line"/>
      <point x="470" y="-127" type="line"/>
      <point x="470" y="701" type="line"/>
      <point x="644" y="701" type="line"/>
      <point x="644" y="-127" type="line"/>
      <point x="709" y="-127" type="line"/>
      <point x="709" y="760" type="line"/>
      <point x="327" y="760" type="line" smooth="yes"/>
      <point x="155" y="760"/>
      <point x="56" y="699"/>
      <point x="56" y="509" type="curve" smooth="yes"/>
      <point x="56" y="327"/>
      <point x="146" y="264"/>
      <point x="302" y="264" type="curve" smooth="yes"/>
      <point x="340" y="264"/>
      <point x="374" y="267"/>
      <point x="404" y="273" type="curve"/>
    </contour>
  </outline>
</glyph>
<glyph name="onesuperior" format="2">
  <advance width="800"/>
  <unicode hex="00B9"/>
  <outline>
    <contour>
      <point x="383" y="416" type="line"/>
      <point x="457" y="416" type="line"/>
      <point x="457" y="844" type="line"/>
      <point x="387" y="844" type="line"/>
      <point x="193" y="767" type="line"/>
      <point x="229" y="708" type="line"/>
      <point x="306" y="738" type="line" smooth="yes"/>
      <point x="337" y="750"/>
      <point x="361" y="760"/>
      <point x="385" y="772" type="curve"/>
      <point x="383" y="743"/>
      <point x="383" y="718"/>
      <point x="383" y="684" type="curve" smooth="yes"/>
    </contour>
    <contour>
      <point x="233" y="416" type="line"/>
      <point x="606" y="416" type="line"/>
      <point x="606" y="470" type="line"/>
      <point x="448" y="478" type="line"/>
      <point x="389" y="478" type="line"/>
      <point x="233" y="470" type="line"/>
    </contour>
  </outline>
</glyph>
<glyph name="ordmasculine" format="2">
  <advance width="800"/>
  <unicode hex="00BA"/>
  <outline>
    <contour>
      <point x="398" y="381" type="curve" smooth="yes"/>
      <point x="527" y="381"/>
      <point x="602" y="440"/>
      <point x="602" y="552" type="curve" smooth="yes"/>
      <point x="602" y="662"/>
      <point x="529" y="722"/>
      <point x="402" y="722" type="curve" smooth="yes"/>
      <point x="276" y="722"/>
      <point x="198" y="662"/>
      <point x="198" y="552" type="curve" smooth="yes"/>
      <point x="198" y="441"/>
      <point x="273" y="381"/>
    </contour>
    <contour>
      <point x="399" y="437" type="curve" smooth="yes"/>
      <point x="310" y="437"/>
      <point x="270" y="476"/>
      <point x="270" y="552" type="curve" smooth="yes"/>
      <point x="270" y="623"/>
      <point x="315" y="666"/>
      <point x="401" y="666" type="curve" smooth="yes"/>
      <point x="491" y="666"/>
      <point x="529" y="630"/>
      <point x="529" y="552" type="curve" smooth="yes"/>
      <point x="529" y="476"/>
      <point x="489" y="437"/>
    </contour>
  </outline>
</glyph>
<glyph name="AE" format="2">
  <advance width="800"/>
  <unicode hex="00C6"/>
  <anchor x="399" y="0" name="bottom"/>
  <anchor x="457" y="714" name="top"/>
  <outline>
    <contour>
      <point x="-3" y="0" type="line"/>
      <point x="93" y="0" type="line"/>
      <point x="349" y="628" type="line"/>
      <point x="394" y="628" type="line"/>
      <point x="394" y="0" type="line"/>
      <point x="777" y="0" type="line"/>
      <point x="777" y="86" type="line"/>
      <point x="487" y="86" type="line"/>
      <point x="487" y="331" type="line"/>
      <point x="752" y="331" type="line"/>
      <point x="752" y="415" type="line"/>
      <point x="487" y="415" type="line"/>
      <point x="487" y="628" type="line"/>
      <point x="777" y="628" type="line"/>
      <point x="777" y="714" type="line"/>
      <point x="284" y="714" type="line"/>
    </contour>
    <contour>
      <point x="160" y="214" type="line"/>
      <point x="420" y="214" type="line"/>
      <point x="424" y="296" type="line"/>
      <point x="181" y="296" type="line"/>
    </contour>
  </outline>
</glyph>
<glyph name="multiply" format="2">
  <advance width="800"/>
  <unicode hex="00D7"/>
  <outline>
    <contour>
      <point x="148" y="137" type="line"/>
      <point x="399" y="299" type="line"/>
      <point x="654" y="137" type="line"/>
      <point x="708" y="190" type="line"/>
      <point x="455" y="353" type="line"/>
      <point x="709" y="516" type="line"/>
      <point x="655" y="569" type="line"/>
      <point x="400" y="406" type="line"/>
      <point x="147" y="569" type="line"/>
      <point x="92" y="515" type="line"/>
      <point x="345" y="353" type="line"/>
      <point x="93" y="190" type="line"/>
    </contour>
  </outline>
</glyph>
<glyph name="ae" format="2">
  <advance width="800"/>
  <unicode hex="00E6"/>
  <anchor x="400" y="0" name="bottom"/>
  <anchor x="400" y="537" name="top"/>
  <outline>
    <contour>
      <point x="184" y="-10" type="curve" smooth="yes"/>
      <point x="295" y="-10"/>
      <point x="360" y="21"/>
      <point x="396" y="95" type="curve"/>
      <point x="432" y="17"/>
      <point x="505" y="-10"/>
      <point x="614" y="-10" type="curve" smooth="yes"/>
      <point x="675" y="-10"/>
      <point x="720" y="1"/>
      <point x="770" y="26" type="curve"/>
      <point x="770" y="109" type="line"/>
      <point x="713" y="80"/>
      <point x="672" y="68"/>
      <point x="622" y="68" type="curve" smooth="yes"/>
      <point x="505" y="68"/>
      <point x="439" y="116"/>
      <point x="437" y="249" type="curve"/>
      <point x="793" y="249" type="line"/>
      <point x="793" y="306" type="line" smooth="yes"/>
      <point x="793" y="458"/>
      <point x="726" y="547"/>
      <point x="591" y="547" type="curve" smooth="yes"/>
      <point x="500" y="547"/>
      <point x="441" y="520"/>
      <point x="411" y="472" type="curve"/>
      <point x="389" y="524"/>
      <point x="326" y="547"/>
      <point x="228" y="547" type="curve" smooth="yes"/>
      <point x="167" y="547"/>
      <point x="98" y="527"/>
      <point x="48" y="501" type="curve"/>
      <point x="81" y="433" type="line"/>
      <point x="127" y="454"/>
      <point x="178" y="469"/>
      <point x="223" y="469" type="curve" smooth="yes"/>
      <point x="306" y="469"/>
      <point x="350" y="440"/>
      <point x="352" y="357" type="curve" smooth="yes"/>
      <point x="353" y="323" type="line"/>
      <point x="255" y="321" type="line" smooth="yes"/>
      <point x="100" y="318"/>
      <point x="5" y="258"/>
      <point x="5" y="150" type="curve" smooth="yes"/>
      <point x="5" y="42"/>
      <point x="76" y="-10"/>
    </contour>
    <contour>
      <point x="199" y="67" type="curve" smooth="yes"/>
      <point x="133" y="67"/>
      <point x="94" y="93"/>
      <point x="94" y="151" type="curve" smooth="yes"/>
      <point x="94" y="216"/>
      <point x="155" y="250"/>
      <point x="282" y="255" type="curve" smooth="yes"/>
      <point x="351" y="258" type="line"/>
      <point x="351" y="213" type="line"/>
      <point x="351" y="105"/>
      <point x="292" y="67"/>
    </contour>
    <contour>
      <point x="439" y="322" type="line"/>
      <point x="446" y="417"/>
      <point x="498" y="469"/>
      <point x="583" y="469" type="curve" smooth="yes"/>
      <point x="669" y="469"/>
      <point x="705" y="419"/>
      <point x="705" y="322" type="curve"/>
    </contour>
  </outline>
</glyph>
<glyph name="eth" format="2">
  <advance width="800"/>
  <unicode hex="00F0"/>
  <anchor x="400" y="0" name="bottom"/>
  <anchor x="400" y="269" name="center"/>
  <anchor x="400" y="765" name="top"/>
  <anchor x="801" y="760" name="topright"/>
  <outline>
    <contour>
      <point x="401" y="-10" type="curve" smooth="yes"/>
      <point x="620" y="-10"/>
      <point x="744" y="86"/>
      <point x="744" y="276" type="curve" smooth="yes"/>
      <point x="744" y="485"/>
      <point x="587" y="670"/>
      <point x="285" y="765" type="curve"/>
      <point x="247" y="703" type="line"/>
      <point x="435" y="639"/>
      <point x="582" y="542"/>
      <point x="636" y="420" type="curve"/>
      <point x="631" y="418" type="line"/>
      <point x="586" y="457"/>
      <point x="506" y="475"/>
      <point x="394" y="475" type="curve" smooth="yes"/>
      <point x="193" y="475"/>
      <point x="56" y="384"/>
      <point x="56" y="234" type="curve" smooth="yes"/>
      <point x="56" y="83"/>
      <point x="194" y="-10"/>
    </contour>
    <contour>
      <point x="401" y="66" type="curve" smooth="yes"/>
      <point x="243" y="66"/>
      <point x="153" y="135"/>
      <point x="153" y="231" type="curve" smooth="yes"/>
      <point x="153" y="339"/>
      <point x="245" y="399"/>
      <point x="409" y="399" type="curve" smooth="yes"/>
      <point x="577" y="399"/>
      <point x="647" y="333"/>
      <point x="647" y="250" type="curve" smooth="yes"/>
      <point x="647" y="131"/>
      <point x="562" y="66"/>
    </contour>
    <contour>
      <point x="261" y="531" type="line"/>
      <point x="662" y="704" type="line"/>
      <point x="621" y="761" type="line"/>
      <point x="220" y="588" type="line"/>
    </contour>
  </outline>
</glyph>
<glyph name="thorn" format="2">
  <advance width="800"/>
  <unicode hex="00FE"/>
  <anchor x="429" y="-240" name="bottom"/>
  <anchor x="429" y="760" name="top"/>
  <outline>
    <contour>
      <point x="97" y="-240" type="line"/>
      <point x="193" y="-240" type="line"/>
      <point x="193" y="-13" type="line" smooth="yes"/>
      <point x="193" y="13"/>
      <point x="191" y="43"/>
      <point x="186" y="68" type="curve"/>
      <point x="193" y="68" type="line"/>
      <point x="233" y="25"/>
      <point x="310" y="-10"/>
      <point x="437" y="-10" type="curve" smooth="yes"/>
      <point x="627" y="-10"/>
      <point x="744" y="88"/>
      <point x="744" y="270" type="curve" smooth="yes"/>
      <point x="744" y="449"/>
      <point x="634" y="547"/>
      <point x="444" y="547" type="curve" smooth="yes"/>
      <point x="312" y="547"/>
      <point x="232" y="517"/>
      <point x="193" y="464" type="curve"/>
      <point x="187" y="464" type="line"/>
      <point x="191" y="496"/>
      <point x="193" y="526"/>
      <point x="193" y="557" type="curve" smooth="yes"/>
      <point x="193" y="760" type="line"/>
      <point x="97" y="760" type="line"/>
    </contour>
    <contour>
      <point x="418" y="68" type="curve" smooth="yes"/>
      <point x="265" y="68"/>
      <point x="193" y="145"/>
      <point x="193" y="270" type="curve" smooth="yes"/>
      <point x="193" y="289" type="line" smooth="yes"/>
      <point x="193" y="406"/>
      <point x="271" y="469"/>
      <point x="424" y="469" type="curve" smooth="yes"/>
      <point x="576" y="469"/>
      <point x="645" y="405"/>
      <point x="645" y="272" type="curve" smooth="yes"/>
      <point x="645" y="135"/>
      <point x="569" y="68"/>
    </contour>
  </outline>
</glyph>
<glyph name="eogonek" format="2">
  <advance width="800"/>
  <unicode hex="0119"/>
  <anchor x="428" y="-222" name="bottom"/>
  <anchor x="399" y="537" name="top"/>
  <anchor x="384" y="10" name="ogonek"/>
  <anchor x="772" y="537" name="topright"/>
  <outline>
    <contour>
      <point x="611" y="-222" type="curve" smooth="yes"/>
      <point x="643" y="-222"/>
      <point x="670" y="-217"/>
      <point x="692" y="-212" type="curve"/>
      <point x="692" y="-152" type="line"/>
      <point x="676" y="-156"/>
      <point x="650" y="-159"/>
      <point x="630" y="-159" type="curve" smooth="yes"/>
      <point x="578" y="-159"/>
      <point x="551" y="-144"/>
      <point x="551" y="-109" type="curve" smooth="yes"/>
      <point x="551" y="-54"/>
      <point x="632" y="-13"/>
      <point x="707" y="28" type="curve"/>
      <point x="647" y="30" type="line"/>
      <point x="556" y="-4"/>
      <point x="472" y="-51"/>
      <point x="472" y="-124" type="curve" smooth="yes"/>
      <point x="472" y="-180"/>
      <point x="522" y="-222"/>
    </contour>
    <component base="e" xOffset="-30"/>
  </outline>
</glyph>
<glyph name="Hbar" format="2">
  <advance width="800"/>
  <unicode hex="0126"/>
  <anchor x="400" y="0" name="bottom"/>
  <anchor x="400" y="357" name="center"/>
  <anchor x="400" y="714" name="top"/>
  <anchor x="-1" y="714" name="topleft"/>
  <outline>
    <contour>
      <point x="-30" y="523" type="line"/>
      <point x="830" y="523" type="line"/>
      <point x="830" y="598" type="line"/>
      <point x="-30" y="598" type="line"/>
    </contour>
    <contour>
      <point x="84" y="0" type="line"/>
      <point x="181" y="0" type="line"/>
      <point x="181" y="330" type="line"/>
      <point x="619" y="330" type="line"/>
      <point x="619" y="0" type="line"/>
      <point x="716" y="0" type="line"/>
      <point x="716" y="714" type="line"/>
      <point x="619" y="714" type="line"/>
      <point x="619" y="416" type="line"/>
      <point x="181" y="416" type="line"/>
      <point x="181" y="714" type="line"/>
      <point x="84" y="714" type="line"/>
    </contour>
  </outline>
</glyph>
<glyph name="hbar" format="2">
  <advance width="800"/>
  <unicode hex="0127"/>
  <anchor x="400" y="0" name="bottom"/>
  <anchor x="400" y="269" name="center"/>
  <anchor x="145" y="760" name="top"/>
  <outline>
    <contour>
      <point x="-30" y="602" type="line"/>
      <point x="466" y="602" type="line"/>
      <point x="466" y="671" type="line"/>
      <point x="-30" y="671" type="line"/>
    </contour>
    <contour>
      <point x="97" y="0" type="line"/>
      <point x="194" y="0" type="line"/>
      <point x="194" y="272" type="line" smooth="yes"/>
      <point x="194" y="396"/>
      <point x="285" y="466"/>
      <point x="424" y="466" type="curve" smooth="yes"/>
      <point x="544" y="466"/>
      <point x="613" y="422"/>
      <point x="613" y="326" type="curve" smooth="yes"/>
      <point x="613" y="0" type="line"/>
      <point x="710" y="0" type="line"/>
      <point x="710" y="348" type="line" smooth="yes"/>
      <point x="710" y="484"/>
      <point x="608" y="544"/>
      <point x="447" y="544" type="curve" smooth="yes"/>
      <point x="319" y="544"/>
      <point x="235" y="514"/>
      <point x="195" y="449" type="curve"/>
      <point x="189" y="449" type="line"/>
      <point x="191" y="475"/>
      <point x="194" y="524"/>
      <point x="194" y="552" type="curve" smooth="yes"/>
      <point x="194" y="760" type="line"/>
      <point x="97" y="760" type="line"/>
    </contour>
  </outline>
</glyph>
<glyph name="idotless" format="2">
  <advance width="800"/>
  <unicode hex="0131"/>
  <anchor x="400" y="0" name="bottom"/>
  <anchor x="744" y="10" name="ogonek"/>
  <anchor x="400" y="537" name="top"/>
  <outline>
    <contour>
      <point x="94" y="0" type="line"/>
      <point x="740" y="0" type="line"/>
      <point x="740" y="65" type="line"/>
      <point x="474" y="80" type="line"/>
      <point x="474" y="537" type="line"/>
      <point x="120" y="537" type="line"/>
      <point x="120" y="470" type="line"/>
      <point x="377" y="457" type="line"/>
      <point x="377" y="80" type="line"/>
      <point x="94" y="65" type="line"/>
    </contour>
  </outline>
</glyph>
<glyph name="kgreenlandic" format="2">
  <advance width="800"/>
  <unicode hex="0138"/>
  <anchor x="400" y="0" name="bottom"/>
  <anchor x="400" y="537" name="top"/>
  <outline>
    <contour>
      <point x="137" y="0" type="line"/>
      <point x="234" y="0" type="line"/>
      <point x="234" y="165" type="line"/>
      <point x="388" y="249" type="line"/>
      <point x="662" y="0" type="line"/>
      <point x="774" y="0" type="line"/>
      <point x="453" y="307" type="line"/>
      <point x="751" y="537" type="line"/>
      <point x="633" y="537" type="line"/>
      <point x="332" y="334" type="line" smooth="yes"/>
      <point x="293" y="307"/>
      <point x="264" y="280"/>
      <point x="230" y="247" type="curve"/>
      <point x="227" y="247" type="line"/>
      <point x="231" y="294"/>
      <point x="234" y="357"/>
      <point x="234" y="399" type="curve" smooth="yes"/>
      <point x="234" y="537" type="line"/>
      <point x="137" y="537" type="line"/>
    </contour>
  </outline>
</glyph>
<glyph name="Lslash" format="2">
  <advance width="800"/>
  <unicode hex="0141"/>
  <anchor x="500" y="0" name="bottom"/>
  <anchor x="259" y="714" name="top"/>
  <anchor x="597" y="714" name="topright"/>
  <anchor x="400" y="357" name="center"/>
  <outline>
    <contour>
      <point x="45" y="278" type="line"/>
      <point x="632" y="476" type="line"/>
      <point x="632" y="538" type="line"/>
      <point x="45" y="340" type="line"/>
    </contour>
    <component base="L"/>
  </outline>
</glyph>
<glyph name="lslash" format="2">
  <advance width="800"/>
  <unicode hex="0142"/>
  <anchor x="400" y="0" name="bottom"/>
  <anchor x="400" y="760" name="top"/>
  <anchor x="674" y="760" name="topright"/>
  <anchor x="427" y="387" name="center"/>
  <outline>
    <contour>
      <point x="135" y="278" type="line"/>
      <point x="722" y="476" type="line"/>
      <point x="722" y="538" type="line"/>
      <point x="135" y="340" type="line"/>
    </contour>
    <component base="l"/>
  </outline>
</glyph>
<glyph name="Eng" format="2">
  <advance width="800"/>
  <unicode hex="014A"/>
  <anchor x="449" y="-193" name="bottom"/>
  <anchor x="437" y="714" name="top"/>
  <anchor x="830" y="714" name="topright"/>
  <outline>
    <contour>
      <point x="467" y="-193" type="curve" smooth="yes"/>
      <point x="624" y="-193"/>
      <point x="717" y="-130"/>
      <point x="717" y="5" type="curve" smooth="yes"/>
      <point x="717" y="86" type="line"/>
      <point x="627" y="86" type="line"/>
      <point x="627" y="7" type="line" smooth="yes"/>
      <point x="627" y="-86"/>
      <point x="557" y="-110"/>
      <point x="462" y="-110" type="curve" smooth="yes"/>
      <point x="425" y="-110"/>
      <point x="384" y="-106"/>
      <point x="354" y="-100" type="curve"/>
      <point x="354" y="-180" type="line"/>
      <point x="378" y="-188"/>
      <point x="421" y="-193"/>
    </contour>
    <component base="N"/>
  </outline>
</glyph>
<glyph name="OE" format="2">
  <advance width="800"/>
  <unicode hex="0152"/>
  <anchor x="400" y="0" name="bottom"/>
  <anchor x="400" y="714" name="top"/>
  <outline>
    <contour>
      <point x="351" y="-10" type="curve" smooth="yes"/>
      <point x="385" y="-10"/>
      <point x="416" y="-6"/>
      <point x="445" y="0" type="curve"/>
      <point x="787" y="0" type="line"/>
      <point x="787" y="86" type="line"/>
      <point x="501" y="86" type="line"/>
      <point x="501" y="331" type="line"/>
      <point x="764" y="331" type="line"/>
      <point x="764" y="415" type="line"/>
      <point x="501" y="415" type="line"/>
      <point x="501" y="628" type="line"/>
      <point x="787" y="628" type="line"/>
      <point x="787" y="714" type="line"/>
      <point x="460" y="714" type="line"/>
      <point x="428" y="721"/>
      <point x="395" y="724"/>
      <point x="361" y="724" type="curve" smooth="yes"/>
      <point x="115" y="724"/>
      <point x="35" y="580"/>
      <point x="35" y="359" type="curve" smooth="yes"/>
      <point x="35" y="136"/>
      <point x="130" y="-10"/>
    </contour>
    <contour>
      <point x="353" y="76" type="curve" smooth="yes"/>
      <point x="198" y="76"/>
      <point x="133" y="182"/>
      <point x="133" y="358" type="curve" smooth="yes"/>
      <point x="133" y="534"/>
      <point x="182" y="639"/>
      <point x="354" y="639" type="curve" smooth="yes"/>
      <point x="375" y="639"/>
      <point x="393" y="633"/>
      <point x="409" y="624" type="curve"/>
      <point x="409" y="91" type="line"/>
      <point x="393" y="82"/>
      <point x="375" y="76"/>
    </contour>
  </outline>
</glyph>
<glyph name="oe" format="2">
  <advance width="800"/>
  <unicode hex="0153"/>
  <anchor x="400" y="0" name="bottom"/>
  <anchor x="400" y="537" name="top"/>
  <outline>
    <contour>
      <point x="234" y="-10" type="curve" smooth="yes"/>
      <point x="330" y="-10"/>
      <point x="389" y="22"/>
      <point x="419" y="85" type="curve"/>
      <point x="453" y="19"/>
      <point x="513" y="-10"/>
      <point x="616" y="-10" type="curve" smooth="yes"/>
      <point x="668" y="-10"/>
      <point x="713" y="1"/>
      <point x="767" y="24" type="curve"/>
      <point x="767" y="98" type="line"/>
      <point x="711" y="73"/>
      <point x="667" y="62"/>
      <point x="624" y="62" type="curve" smooth="yes"/>
      <point x="516" y="62"/>
      <point x="464" y="122"/>
      <point x="462" y="251" type="curve"/>
      <point x="787" y="251" type="line"/>
      <point x="787" y="309" type="line" smooth="yes"/>
      <point x="787" y="443"/>
      <point x="732" y="547"/>
      <point x="597" y="547" type="curve" smooth="yes"/>
      <point x="507" y="547"/>
      <point x="450" y="517"/>
      <point x="419" y="454" type="curve"/>
      <point x="389" y="516"/>
      <point x="336" y="548"/>
      <point x="238" y="548" type="curve" smooth="yes"/>
      <point x="90" y="548"/>
      <point x="9" y="449"/>
      <point x="9" y="273" type="curve" smooth="yes"/>
      <point x="9" y="95"/>
      <point x="87" y="-10"/>
    </contour>
    <contour>
      <point x="237" y="64" type="curve" smooth="yes"/>
      <point x="141" y="64"/>
      <point x="94" y="131"/>
      <point x="94" y="270" type="curve" smooth="yes"/>
      <point x="94" y="404"/>
      <point x="141" y="473"/>
      <point x="240" y="473" type="curve" smooth="yes"/>
      <point x="336" y="473"/>
      <point x="374" y="405"/>
      <point x="374" y="268" type="curve" smooth="yes"/>
      <point x="374" y="128"/>
      <point x="334" y="64"/>
    </contour>
    <contour>
      <point x="463" y="318" type="line"/>
      <point x="470" y="423"/>
      <point x="522" y="477"/>
      <point x="594" y="477" type="curve" smooth="yes"/>
      <point x="673" y="477"/>
      <point x="705" y="407"/>
      <point x="705" y="318" type="curve"/>
    </contour>
  </outline>
</glyph>
<glyph name="Tbar" format="2">
  <advance width="800"/>
  <unicode hex="0166"/>
  <anchor x="400" y="0" name="bottom"/>
  <anchor x="400" y="714" name="top"/>
  <anchor x="802" y="714" name="topright"/>
  <anchor x="400" y="357" name="center"/>
  <outline>
    <contour>
      <point x="124" y="321" type="line"/>
      <point x="675" y="321" type="line"/>
      <point x="675" y="401" type="line"/>
      <point x="124" y="401" type="line"/>
    </contour>
    <component base="T"/>
  </outline>
</glyph>
<glyph name="tbar" format="2">
  <advance width="800"/>
  <unicode hex="0167"/>
  <anchor x="431" y="0" name="bottom"/>
  <anchor x="348" y="679" name="top"/>
  <anchor x="801" y="679" name="topright"/>
  <anchor x="340" y="269" name="center"/>
  <outline>
    <contour>
      <point x="65" y="276" type="line"/>
      <point x="680" y="276" type="line"/>
      <point x="680" y="345" type="line"/>
      <point x="65" y="345" type="line"/>
    </contour>
    <component base="t"/>
  </outline>
</glyph>
<glyph name="longs" format="2">
  <advance width="800"/>
  <unicode hex="017F"/>
  <anchor x="400" y="0" name="bottom"/>
  <anchor x="556" y="765" name="top"/>
  <outline>
    <contour>
      <point x="309" y="0" type="line"/>
      <point x="404" y="0" type="line"/>
      <point x="404" y="561" type="line" smooth="yes"/>
      <point x="404" y="656"/>
      <point x="467" y="687"/>
      <point x="588" y="687" type="curve" smooth="yes"/>
      <point x="635" y="687"/>
      <point x="679" y="679"/>
      <point x="710" y="672" type="curve"/>
      <point x="732" y="746" type="line"/>
      <point x="696" y="756"/>
      <point x="645" y="765"/>
      <point x="586" y="765" type="curve" smooth="yes"/>
      <point x="413" y="765"/>
      <point x="309" y="714"/>
      <point x="309" y="576" type="curve" smooth="yes"/>
    </contour>
  </outline>
</glyph>
<glyph name="uni0181" format="2">
  <advance width="800"/>
  <unicode hex="0181"/>
  <anchor x="434" y="0" name="bottom"/>
  <anchor x="434" y="714" name="top"/>
  <outline>
    <contour>
      <point x="194" y="0" type="line"/>
      <point x="437" y="0" type="line" smooth="yes"/>
      <point x="654" y="0"/>
      <point x="778" y="77"/>
      <point x="778" y="207" type="curve" smooth="yes"/>
      <point x="778" y="318"/>
      <point x="700" y="359"/>
      <point x="562" y="374" type="curve"/>
      <point x="562" y="379" type="line"/>
      <point x="682" y="392"/>
      <point x="751" y="446"/>
      <point x="751" y="539" type="curve" smooth="yes"/>
      <point x="751" y="666"/>
      <point x="638" y="714"/>
      <point x="409" y="714" type="curve" smooth="yes"/>
      <point x="194" y="714" type="line"/>
    </contour>
    <contour>
      <point x="286" y="83" type="line"/>
      <point x="286" y="332" type="line"/>
      <point x="418" y="332" type="line" smooth="yes"/>
      <point x="610" y="332"/>
      <point x="680" y="283"/>
      <point x="680" y="208" type="curve" smooth="yes"/>
      <point x="680" y="135"/>
      <point x="598" y="83"/>
      <point x="423" y="83" type="curve" smooth="yes"/>
    </contour>
    <contour>
      <point x="-2" y="528" type="curve"/>
      <point x="83" y="528" type="line"/>
      <point x="78" y="537"/>
      <point x="69" y="560"/>
      <point x="69" y="582" type="curve" smooth="yes"/>
      <point x="69" y="612"/>
      <point x="104" y="632"/>
      <point x="175" y="632" type="curve" smooth="yes"/>
      <point x="212" y="632" type="line"/>
      <point x="212" y="714" type="line"/>
      <point x="174" y="714" type="line" smooth="yes"/>
      <point x="48" y="714"/>
      <point x="-16" y="671"/>
      <point x="-16" y="583" type="curve" smooth="yes"/>
      <point x="-16" y="566"/>
      <point x="-10" y="541"/>
    </contour>
    <contour>
      <point x="286" y="414" type="line"/>
      <point x="286" y="631" type="line"/>
      <point x="400" y="631" type="line" smooth="yes"/>
      <point x="595" y="631"/>
      <point x="654" y="601"/>
      <point x="654" y="526" type="curve" smooth="yes"/>
      <point x="654" y="452"/>
      <point x="583" y="414"/>
      <point x="419" y="414" type="curve" smooth="yes"/>
    </contour>
  </outline>
</glyph>
<glyph name="uni0184" format="2">
  <advance width="800"/>
  <unicode hex="0184"/>
  <anchor x="400" y="0" name="bottom"/>
  <anchor x="400" y="760" name="top"/>
  <outline>
    <contour>
      <point x="422" y="-12" type="curve" smooth="yes"/>
      <point x="635" y="-12"/>
      <point x="741" y="89"/>
      <point x="741" y="207" type="curve" smooth="yes"/>
      <point x="741" y="324"/>
      <point x="644" y="417"/>
      <point x="422" y="417" type="curve" smooth="yes"/>
      <point x="211" y="417" type="line"/>
      <point x="211" y="714" type="line"/>
      <point x="116" y="714" type="line"/>
      <point x="116" y="212" type="line" smooth="yes"/>
      <point x="116" y="79"/>
      <point x="208" y="-12"/>
    </contour>
    <contour>
      <point x="426" y="72" type="curve" smooth="yes"/>
      <point x="286" y="72"/>
      <point x="211" y="125"/>
      <point x="211" y="220" type="curve" smooth="yes"/>
      <point x="211" y="336" type="line"/>
      <point x="401" y="336" type="line" smooth="yes"/>
      <point x="578" y="336"/>
      <point x="644" y="289"/>
      <point x="644" y="207" type="curve" smooth="yes"/>
      <point x="644" y="125"/>
      <point x="574" y="72"/>
    </contour>
  </outline>
</glyph>
<glyph name="uni0187" format="2">
  <advance width="800"/>
  <unicode hex="0187"/>
  <anchor x="478" y="0" name="bottom"/>
  <anchor x="478" y="860" name="top"/>
  <anchor x="771" y="714" name="topright"/>
  <outline>
    <contour>
      <point x="676" y="682" type="line"/>
      <point x="760" y="682" type="line"/>
      <point x="760" y="732" type="line" smooth="yes"/>
      <point x="760" y="764"/>
      <point x="788" y="780"/>
      <point x="837" y="780" type="curve" smooth="yes"/>
      <point x="869" y="780"/>
      <point x="898" y="774"/>
      <point x="913" y="770" type="curve"/>
      <point x="913" y="847" type="line"/>
      <point x="895" y="853"/>
      <point x="865" y="860"/>
      <point x="828" y="860" type="curve" smooth="yes"/>
      <point x="729" y="860"/>
      <point x="676" y="812"/>
      <point x="676" y="723" type="curve" smooth="yes"/>
    </contour>
    <component base="C" xOffset="-30"/>
  </outline>
</glyph>
<glyph name="uni0188" format="2">
  <advance width="800"/>
  <unicode hex="0188"/>
  <anchor x="400" y="0" name="bottom"/>
  <anchor x="400" y="765" name="top"/>
  <anchor x="771" y="537" name="topright"/>
  <outline>
    <contour>
      <point x="609" y="510" type="line"/>
      <point x="693" y="510" type="line"/>
      <point x="693" y="635" type="line" smooth="yes"/>
      <point x="693" y="668"/>
      <point x="722" y="684"/>
      <point x="773" y="684" type="curve" smooth="yes"/>
      <point x="805" y="684"/>
      <point x="830" y="678"/>
      <point x="844" y="674" type="curve"/>
      <point x="844" y="752" type="line"/>
      <point x="826" y="758"/>
      <point x="802" y="765"/>
      <point x="765" y="765" type="curve" smooth="yes"/>
      <point x="662" y="765"/>
      <point x="609" y="717"/>
      <point x="609" y="626" type="curve" smooth="yes"/>
    </contour>
    <component base="c" xOffset="-30"/>
  </outline>
</glyph>
<glyph name="uni018A" format="2">
  <advance width="800"/>
  <unicode hex="018A"/>
  <anchor x="400" y="0" name="bottom"/>
  <anchor x="400" y="714" name="top"/>
  <outline>
    <contour>
      <point x="184" y="0" type="line"/>
      <point x="352" y="0" type="line" smooth="yes"/>
      <point x="637" y="0"/>
      <point x="765" y="123"/>
      <point x="765" y="365" type="curve" smooth="yes"/>
      <point x="765" y="593"/>
      <point x="650" y="714"/>
      <point x="374" y="714" type="curve" smooth="yes"/>
      <point x="184" y="714" type="line"/>
    </contour>
    <contour>
      <point x="280" y="83" type="line"/>
      <point x="280" y="631" type="line"/>
      <point x="360" y="631" type="line" smooth="yes"/>
      <point x="589" y="631"/>
      <point x="667" y="549"/>
      <point x="667" y="361" type="curve" smooth="yes"/>
      <point x="667" y="175"/>
      <point x="582" y="83"/>
      <point x="351" y="83" type="curve" smooth="yes"/>
    </contour>
    <contour>
      <point x="-2" y="528" type="curve"/>
      <point x="83" y="528" type="line"/>
      <point x="77" y="537"/>
      <point x="69" y="559"/>
      <point x="69" y="582" type="curve" smooth="yes"/>
      <point x="69" y="612"/>
      <point x="103" y="632"/>
      <point x="175" y="632" type="curve" smooth="yes"/>
      <point x="212" y="632" type="line"/>
      <point x="212" y="714" type="line"/>
      <point x="173" y="714" type="line" smooth="yes"/>
      <point x="48" y="714"/>
      <point x="-16" y="671"/>
      <point x="-16" y="583" type="curve" smooth="yes"/>
      <point x="-16" y="566"/>
      <point x="-10" y="541"/>
    </contour>
  </outline>
</glyph>
<glyph name="uni018B" format="2">
  <advance width="800"/>
  <unicode hex="018B"/>
  <anchor x="400" y="0" name="bottom"/>
  <anchor x="402" y="714" name="top"/>
  <anchor x="0" y="0" name="topright"/>
  <outline>
    <contour>
      <point x="116" y="629" type="line"/>
      <point x="633" y="629" type="line"/>
      <point x="633" y="714" type="line"/>
      <point x="116" y="714" type="line"/>
    </contour>
    <component base="P" xScale="-1" yScale="-1" xOffset="830" yOffset="714"/>
  </outline>
</glyph>
<glyph name="uni018C" format="2">
  <advance width="800"/>
  <unicode hex="018C"/>
  <anchor x="400" y="0" name="bottom"/>
  <anchor x="417" y="760" name="top"/>
  <anchor x="771" y="760" name="topright"/>
  <anchor x="370" y="269" name="center"/>
  <outline>
    <contour>
      <point x="137" y="681" type="line"/>
      <point x="658" y="681" type="line"/>
      <point x="658" y="760" type="line"/>
      <point x="137" y="760" type="line"/>
    </contour>
    <component base="d" xOffset="-30"/>
  </outline>
</glyph>
<glyph name="florin" format="2">
  <advance width="800"/>
  <unicode hex="0192"/>
  <anchor x="375" y="-240" name="bottom"/>
  <anchor x="507" y="726" name="top"/>
  <outline>
    <contour>
      <point x="229" y="-240" type="curve" smooth="yes"/>
      <point x="362" y="-240"/>
      <point x="427" y="-191"/>
      <point x="427" y="-59" type="curve" smooth="yes"/>
      <point x="427" y="405" type="line"/>
      <point x="627" y="405" type="line"/>
      <point x="627" y="478" type="line"/>
      <point x="426" y="478" type="line"/>
      <point x="426" y="543" type="line" smooth="yes"/>
      <point x="426" y="622"/>
      <point x="472" y="647"/>
      <point x="571" y="647" type="curve" smooth="yes"/>
      <point x="617" y="647"/>
      <point x="660" y="639"/>
      <point x="692" y="632" type="curve"/>
      <point x="715" y="704" type="line"/>
      <point x="676" y="714"/>
      <point x="626" y="726"/>
      <point x="565" y="726" type="curve" smooth="yes"/>
      <point x="411" y="726"/>
      <point x="331" y="681"/>
      <point x="331" y="542" type="curve" smooth="yes"/>
      <point x="331" y="481" type="line"/>
      <point x="173" y="451" type="line"/>
      <point x="173" y="405" type="line"/>
      <point x="330" y="405" type="line"/>
      <point x="330" y="-62" type="line" smooth="yes"/>
      <point x="330" y="-138"/>
      <point x="296" y="-162"/>
      <point x="219" y="-162" type="curve" smooth="yes"/>
      <point x="184" y="-162"/>
      <point x="149" y="-158"/>
      <point x="120" y="-153" type="curve"/>
      <point x="120" y="-231" type="line"/>
      <point x="144" y="-236"/>
      <point x="183" y="-240"/>
    </contour>
  </outline>
</glyph>
<glyph name="uni0193" format="2">
  <advance width="800"/>
  <unicode hex="0193"/>
  <anchor x="413" y="0" name="bottom"/>
  <anchor x="413" y="860" name="top"/>
  <anchor x="772" y="714" name="topright"/>
  <outline>
    <contour>
      <point x="622" y="682" type="line"/>
      <point x="706" y="682" type="line"/>
      <point x="706" y="731" type="line" smooth="yes"/>
      <point x="706" y="764"/>
      <point x="734" y="779"/>
      <point x="783" y="779" type="curve" smooth="yes"/>
      <point x="815" y="779"/>
      <point x="844" y="773"/>
      <point x="859" y="769" type="curve"/>
      <point x="859" y="847" type="line"/>
      <point x="841" y="853"/>
      <point x="811" y="860"/>
      <point x="774" y="860" type="curve" smooth="yes"/>
      <point x="674" y="860"/>
      <point x="622" y="812"/>
      <point x="622" y="723" type="curve" smooth="yes"/>
    </contour>
    <component base="G" xOffset="-30"/>
  </outline>
</glyph>
<glyph name="uni0196" format="2">
  <advance width="800"/>
  <unicode hex="0196"/>
  <anchor x="444" y="0" name="bottom"/>
  <anchor x="294" y="714" name="top"/>
  <outline>
    <contour>
      <point x="490" y="-10" type="curve" smooth="yes"/>
      <point x="545" y="-10"/>
      <point x="616" y="-3"/>
      <point x="651" y="7" type="curve"/>
      <point x="651" y="87" type="line"/>
      <point x="614" y="82"/>
      <point x="552" y="76"/>
      <point x="508" y="76" type="curve" smooth="yes"/>
      <point x="397" y="76"/>
      <point x="342" y="111"/>
      <point x="342" y="191" type="curve" smooth="yes"/>
      <point x="342" y="714" type="line"/>
      <point x="246" y="714" type="line"/>
      <point x="246" y="179" type="line" smooth="yes"/>
      <point x="246" y="33"/>
      <point x="346" y="-10"/>
    </contour>
  </outline>
</glyph>
<glyph name="uni0197" format="2">
  <advance width="800"/>
  <unicode hex="0197"/>
  <anchor x="400" y="0" name="bottom"/>
  <anchor x="400" y="714" name="top"/>
  <anchor x="-31" y="714" name="topleft"/>
  <anchor x="450" y="10" name="ogonek"/>
  <anchor x="771" y="714" name="topright"/>
  <outline>
    <contour>
      <point x="179" y="335" type="line"/>
      <point x="622" y="335" type="line"/>
      <point x="622" y="416" type="line"/>
      <point x="179" y="416" type="line"/>
    </contour>
    <component base="I" xOffset="-30"/>
  </outline>
</glyph>
<glyph name="uni0198" format="2">
  <advance width="800"/>
  <unicode hex="0198"/>
  <anchor x="400" y="0" name="bottom"/>
  <anchor x="400" y="714" name="top"/>
  <outline>
    <contour>
      <point x="83" y="0" type="line"/>
      <point x="179" y="0" type="line"/>
      <point x="179" y="236" type="line"/>
      <point x="309" y="325" type="line"/>
      <point x="643" y="0" type="line"/>
      <point x="754" y="0" type="line"/>
      <point x="375" y="391" type="line"/>
      <point x="621" y="590" type="line" smooth="yes"/>
      <point x="672" y="632"/>
      <point x="705" y="640"/>
      <point x="742" y="640" type="curve" smooth="yes"/>
      <point x="762" y="640"/>
      <point x="787" y="638"/>
      <point x="800" y="636" type="curve"/>
      <point x="800" y="712" type="line"/>
      <point x="785" y="717"/>
      <point x="765" y="721"/>
      <point x="735" y="721" type="curve" smooth="yes"/>
      <point x="664" y="721"/>
      <point x="616" y="705"/>
      <point x="539" y="647" type="curve" smooth="yes"/>
      <point x="272" y="440" type="line" smooth="yes"/>
      <point x="233" y="409"/>
      <point x="209" y="370"/>
      <point x="179" y="335" type="curve"/>
      <point x="179" y="714" type="line"/>
      <point x="83" y="714" type="line"/>
    </contour>
  </outline>
</glyph>
<glyph name="uni0199" format="2">
  <advance width="800"/>
  <unicode hex="0199"/>
  <anchor x="400" y="0" name="bottom"/>
  <anchor x="400" y="765" name="top"/>
  <outline>
    <contour>
      <point x="137" y="0" type="line"/>
      <point x="234" y="0" type="line"/>
      <point x="234" y="165" type="line"/>
      <point x="388" y="249" type="line"/>
      <point x="662" y="0" type="line"/>
      <point x="774" y="0" type="line"/>
      <point x="453" y="307" type="line"/>
      <point x="751" y="537" type="line"/>
      <point x="633" y="537" type="line"/>
      <point x="333" y="334" type="line" smooth="yes"/>
      <point x="295" y="308"/>
      <point x="265" y="280"/>
      <point x="230" y="247" type="curve"/>
      <point x="227" y="247" type="line"/>
      <point x="231" y="294"/>
      <point x="234" y="357"/>
      <point x="234" y="399" type="curve" smooth="yes"/>
      <point x="234" y="626" type="line" smooth="yes"/>
      <point x="234" y="667"/>
      <point x="268" y="683"/>
      <point x="331" y="683" type="curve" smooth="yes"/>
      <point x="360" y="683"/>
      <point x="385" y="677"/>
      <point x="399" y="673" type="curve"/>
      <point x="399" y="752" type="line"/>
      <point x="381" y="758"/>
      <point x="350" y="765"/>
      <point x="319" y="765" type="curve" smooth="yes"/>
      <point x="201" y="765"/>
      <point x="137" y="717"/>
      <point x="137" y="621" type="curve" smooth="yes"/>
    </contour>
  </outline>
</glyph>
<glyph name="uni019A" format="2">
  <advance width="800"/>
  <unicode hex="019A"/>
  <anchor x="400" y="0" name="bottom"/>
  <anchor x="400" y="760" name="top"/>
  <anchor x="644" y="760" name="topright"/>
  <anchor x="397" y="387" name="center"/>
  <outline>
    <contour>
      <point x="169" y="349" type="line"/>
      <point x="681" y="349" type="line"/>
      <point x="681" y="421" type="line"/>
      <point x="169" y="421" type="line"/>
    </contour>
    <component base="l" xOffset="-30"/>
  </outline>
</glyph>
<glyph name="uni01A3" format="2">
  <advance width="800"/>
  <unicode hex="01A3"/>
  <anchor x="251" y="0" name="bottom"/>
  <anchor x="251" y="277" name="center"/>
  <anchor x="256" y="10" name="ogonek"/>
  <anchor x="403" y="537" name="top"/>
  <outline>
    <contour>
      <point x="659" y="-240" type="line"/>
      <point x="749" y="-240" type="line"/>
      <point x="749" y="403" type="line" smooth="yes"/>
      <point x="749" y="511"/>
      <point x="690" y="549"/>
      <point x="592" y="549" type="curve" smooth="yes"/>
      <point x="500" y="549"/>
      <point x="456" y="512"/>
      <point x="429" y="478" type="curve"/>
      <point x="394" y="527"/>
      <point x="336" y="549"/>
      <point x="254" y="549" type="curve" smooth="yes"/>
      <point x="96" y="549"/>
      <point x="24" y="458"/>
      <point x="24" y="270" type="curve" smooth="yes"/>
      <point x="24" y="92"/>
      <point x="100" y="-10"/>
      <point x="254" y="-10" type="curve" smooth="yes"/>
      <point x="412" y="-10"/>
      <point x="482" y="93"/>
      <point x="482" y="270" type="curve" smooth="yes"/>
      <point x="482" y="327"/>
      <point x="473" y="386"/>
      <point x="457" y="424" type="curve"/>
      <point x="479" y="451"/>
      <point x="509" y="471"/>
      <point x="569" y="471" type="curve" smooth="yes"/>
      <point x="627" y="471"/>
      <point x="659" y="447"/>
      <point x="659" y="391" type="curve" smooth="yes"/>
    </contour>
    <contour>
      <point x="254" y="66" type="curve" smooth="yes"/>
      <point x="158" y="66"/>
      <point x="115" y="124"/>
      <point x="115" y="270" type="curve" smooth="yes"/>
      <point x="115" y="417"/>
      <point x="155" y="473"/>
      <point x="253" y="473" type="curve" smooth="yes"/>
      <point x="353" y="473"/>
      <point x="391" y="417"/>
      <point x="391" y="270" type="curve" smooth="yes"/>
      <point x="391" y="122"/>
      <point x="349" y="66"/>
    </contour>
  </outline>
</glyph>
<glyph name="uni01A4" format="2">
  <advance width="800"/>
  <unicode hex="01A4"/>
  <anchor x="437" y="0" name="bottom"/>
  <anchor x="437" y="714" name="top"/>
  <outline>
    <contour>
      <point x="189" y="0" type="line"/>
      <point x="285" y="0" type="line"/>
      <point x="285" y="272" type="line"/>
      <point x="403" y="272" type="line" smooth="yes"/>
      <point x="644" y="272"/>
      <point x="750" y="383"/>
      <point x="750" y="503" type="curve" smooth="yes"/>
      <point x="750" y="638"/>
      <point x="643" y="714"/>
      <point x="421" y="714" type="curve" smooth="yes"/>
      <point x="188" y="714" type="line" smooth="yes"/>
      <point x="63" y="714"/>
      <point x="-1" y="669"/>
      <point x="-1" y="575" type="curve" smooth="yes"/>
      <point x="-1" y="555"/>
      <point x="5" y="525"/>
      <point x="13" y="509" type="curve"/>
      <point x="98" y="509" type="line"/>
      <point x="92" y="520"/>
      <point x="84" y="546"/>
      <point x="84" y="572" type="curve" smooth="yes"/>
      <point x="84" y="608"/>
      <point x="115" y="631"/>
      <point x="189" y="631" type="curve"/>
    </contour>
    <contour>
      <point x="285" y="355" type="line"/>
      <point x="285" y="631" type="line"/>
      <point x="411" y="631" type="line" smooth="yes"/>
      <point x="575" y="631"/>
      <point x="651" y="587"/>
      <point x="651" y="499" type="curve" smooth="yes"/>
      <point x="651" y="397"/>
      <point x="554" y="355"/>
      <point x="392" y="355" type="curve" smooth="yes"/>
    </contour>
  </outline>
</glyph>
<glyph name="uni01A6" format="2">
  <advance width="800"/>
  <unicode hex="01A6"/>
  <anchor x="438" y="-98" name="bottom"/>
  <anchor x="438" y="714" name="top"/>
  <outline>
    <contour>
      <point x="677" y="-100" type="line"/>
      <point x="791" y="-100" type="line"/>
      <point x="505" y="219" type="line"/>
      <point x="635" y="246"/>
      <point x="719" y="299"/>
      <point x="719" y="411" type="curve" smooth="yes"/>
      <point x="719" y="547"/>
      <point x="593" y="614"/>
      <point x="350" y="614" type="curve" smooth="yes"/>
      <point x="212" y="614" type="line"/>
      <point x="212" y="714" type="line"/>
      <point x="116" y="714" type="line"/>
      <point x="116" y="0" type="line"/>
      <point x="212" y="0" type="line"/>
      <point x="212" y="192" type="line"/>
      <point x="416" y="192" type="line"/>
    </contour>
    <contour>
      <point x="212" y="274" type="line"/>
      <point x="212" y="531" type="line"/>
      <point x="343" y="531" type="line" smooth="yes"/>
      <point x="525" y="531"/>
      <point x="620" y="495"/>
      <point x="620" y="406" type="curve" smooth="yes"/>
      <point x="620" y="318"/>
      <point x="529" y="274"/>
      <point x="368" y="274" type="curve" smooth="yes"/>
    </contour>
  </outline>
</glyph>
<glyph name="uni01AA" format="2">
  <advance width="800"/>
  <unicode hex="01AA"/>
  <anchor x="410" y="-240" name="bottom"/>
  <anchor x="410" y="770" name="top"/>
  <outline>
    <contour>
      <point x="596" y="-240" type="curve" smooth="yes"/>
      <point x="646" y="-240"/>
      <point x="698" y="-231"/>
      <point x="735" y="-216" type="curve"/>
      <point x="735" y="-142" type="line"/>
      <point x="699" y="-153"/>
      <point x="656" y="-162"/>
      <point x="608" y="-162" type="curve" smooth="yes"/>
      <point x="502" y="-162"/>
      <point x="458" y="-123"/>
      <point x="458" y="-58" type="curve" smooth="yes"/>
      <point x="458" y="611" type="line" smooth="yes"/>
      <point x="458" y="715"/>
      <point x="388" y="766"/>
      <point x="255" y="766" type="curve" smooth="yes"/>
      <point x="117" y="766"/>
      <point x="56" y="708"/>
      <point x="56" y="651" type="curve" smooth="yes"/>
      <point x="56" y="583"/>
      <point x="120" y="532"/>
      <point x="259" y="532" type="curve" smooth="yes"/>
      <point x="364" y="532" type="line"/>
      <point x="364" y="-60" type="line" smooth="yes"/>
      <point x="364" y="-194"/>
      <point x="447" y="-240"/>
    </contour>
    <contour>
      <point x="264" y="603" type="line" smooth="yes"/>
      <point x="185" y="603"/>
      <point x="141" y="620"/>
      <point x="141" y="649" type="curve" smooth="yes"/>
      <point x="141" y="677"/>
      <point x="175" y="693"/>
      <point x="248" y="693" type="curve" smooth="yes"/>
      <point x="328" y="693"/>
      <point x="364" y="665"/>
      <point x="364" y="623" type="curve" smooth="yes"/>
      <point x="364" y="603" type="line"/>
    </contour>
  </outline>
</glyph>
<glyph name="uni01AB" format="2">
  <advance width="800"/>
  <unicode hex="01AB"/>
  <anchor x="522" y="-240" name="bottom"/>
  <anchor x="400" y="679" name="top"/>
  <anchor x="771" y="679" name="topright"/>
  <anchor x="310" y="269" name="center"/>
  <outline>
    <contour>
      <point x="532" y="-240" type="curve" smooth="yes"/>
      <point x="638" y="-240"/>
      <point x="695" y="-193"/>
      <point x="695" y="-103" type="curve" smooth="yes"/>
      <point x="695" y="47" type="line"/>
      <point x="609" y="22" type="line"/>
      <point x="609" y="-107" type="line" smooth="yes"/>
      <point x="609" y="-144"/>
      <point x="576" y="-160"/>
      <point x="522" y="-160" type="curve" smooth="yes"/>
      <point x="491" y="-160"/>
      <point x="464" y="-155"/>
      <point x="445" y="-151" type="curve"/>
      <point x="445" y="-228" type="line"/>
      <point x="464" y="-233"/>
      <point x="494" y="-240"/>
    </contour>
    <component base="t" xOffset="-30"/>
  </outline>
</glyph>
<glyph name="uni01AC" format="2">
  <advance width="800"/>
  <unicode hex="01AC"/>
  <anchor x="402" y="0" name="bottom"/>
  <anchor x="402" y="714" name="top"/>
  <outline>
    <contour>
      <point x="348" y="0" type="line"/>
      <point x="445" y="0" type="line"/>
      <point x="445" y="629" type="line"/>
      <point x="772" y="629" type="line"/>
      <point x="772" y="714" type="line"/>
      <point x="218" y="714" type="line" smooth="yes"/>
      <point x="73" y="714"/>
      <point x="9" y="670"/>
      <point x="9" y="583" type="curve" smooth="yes"/>
      <point x="9" y="565"/>
      <point x="17" y="541"/>
      <point x="25" y="527" type="curve"/>
      <point x="112" y="527" type="line"/>
      <point x="106" y="536"/>
      <point x="96" y="558"/>
      <point x="96" y="581" type="curve" smooth="yes"/>
      <point x="96" y="611"/>
      <point x="133" y="629"/>
      <point x="229" y="629" type="curve" smooth="yes"/>
      <point x="348" y="629" type="line"/>
    </contour>
  </outline>
</glyph>
<glyph name="uni01AD" format="2">
  <advance width="800"/>
  <unicode hex="01AD"/>
  <anchor x="400" y="0" name="bottom"/>
  <anchor x="400" y="765" name="top"/>
  <outline>
    <contour>
      <point x="549" y="-10" type="curve" smooth="yes"/>
      <point x="607" y="-10"/>
      <point x="653" y="-2"/>
      <point x="695" y="7" type="curve"/>
      <point x="695" y="84" type="line"/>
      <point x="656" y="77"/>
      <point x="606" y="69"/>
      <point x="559" y="69" type="curve" smooth="yes"/>
      <point x="432" y="69"/>
      <point x="386" y="102"/>
      <point x="386" y="184" type="curve" smooth="yes"/>
      <point x="386" y="457" type="line"/>
      <point x="689" y="457" type="line"/>
      <point x="689" y="537" type="line"/>
      <point x="386" y="537" type="line"/>
      <point x="386" y="617" type="line" smooth="yes"/>
      <point x="386" y="661"/>
      <point x="418" y="683"/>
      <point x="483" y="683" type="curve" smooth="yes"/>
      <point x="520" y="683"/>
      <point x="561" y="677"/>
      <point x="581" y="673" type="curve"/>
      <point x="581" y="752" type="line"/>
      <point x="559" y="758"/>
      <point x="522" y="765"/>
      <point x="482" y="765" type="curve" smooth="yes"/>
      <point x="358" y="765"/>
      <point x="289" y="710"/>
      <point x="289" y="606" type="curve" smooth="yes"/>
      <point x="289" y="540" type="line"/>
      <point x="65" y="521" type="line"/>
      <point x="65" y="457" type="line"/>
      <point x="289" y="457" type="line"/>
      <point x="289" y="166" type="line" smooth="yes"/>
      <point x="289" y="31"/>
      <point x="379" y="-10"/>
    </contour>
  </outline>
</glyph>
<glyph name="uni01AE" format="2">
  <advance width="800"/>
  <unicode hex="01AE"/>
  <anchor x="489" y="-186" name="bottom"/>
  <anchor x="400" y="714" name="top"/>
  <outline>
    <contour>
      <point x="546" y="-186" type="curve" smooth="yes"/>
      <point x="582" y="-186"/>
      <point x="616" y="-181"/>
      <point x="636" y="-173" type="curve"/>
      <point x="636" y="-92" type="line"/>
      <point x="617" y="-98"/>
      <point x="594" y="-102"/>
      <point x="563" y="-102" type="curve" smooth="yes"/>
      <point x="492" y="-102"/>
      <point x="449" y="-83"/>
      <point x="449" y="-21" type="curve" smooth="yes"/>
      <point x="449" y="628" type="line"/>
      <point x="765" y="628" type="line"/>
      <point x="765" y="714" type="line"/>
      <point x="36" y="714" type="line"/>
      <point x="36" y="628" type="line"/>
      <point x="352" y="628" type="line"/>
      <point x="352" y="-25" type="line" smooth="yes"/>
      <point x="352" y="-138"/>
      <point x="419" y="-186"/>
    </contour>
  </outline>
</glyph>
<glyph name="uni01B6" format="2">
  <advance width="800"/>
  <unicode hex="01B6"/>
  <anchor x="405" y="0" name="bottom"/>
  <anchor x="405" y="537" name="top"/>
  <anchor x="771" y="537" name="topright"/>
  <outline>
    <contour>
      <point x="150" y="241" type="line"/>
      <point x="665" y="241" type="line"/>
      <point x="665" y="315" type="line"/>
      <point x="150" y="315" type="line"/>
    </contour>
    <component base="z" xOffset="-30"/>
  </outline>
</glyph>
<glyph name="uni01BA" format="2">
  <advance width="800"/>
  <unicode hex="01BA"/>
  <anchor x="400" y="-240" name="bottom"/>
  <anchor x="400" y="537" name="top"/>
  <outline>
    <contour>
      <point x="375" y="-240" type="curve" smooth="yes"/>
      <point x="490" y="-240"/>
      <point x="586" y="-225"/>
      <point x="643" y="-211" type="curve"/>
      <point x="643" y="-133" type="line"/>
      <point x="583" y="-149"/>
      <point x="500" y="-164"/>
      <point x="379" y="-164" type="curve" smooth="yes"/>
      <point x="229" y="-164"/>
      <point x="170" y="-146"/>
      <point x="170" y="-106" type="curve" smooth="yes"/>
      <point x="170" y="-71"/>
      <point x="228" y="-55"/>
      <point x="366" y="-54" type="curve" smooth="yes"/>
      <point x="587" y="-53"/>
      <point x="716" y="23"/>
      <point x="716" y="126" type="curve" smooth="yes"/>
      <point x="716" y="242"/>
      <point x="568" y="303"/>
      <point x="348" y="309" type="curve"/>
      <point x="681" y="469" type="line"/>
      <point x="681" y="537" type="line"/>
      <point x="103" y="537" type="line"/>
      <point x="103" y="458" type="line"/>
      <point x="545" y="458" type="line"/>
      <point x="222" y="300" type="line"/>
      <point x="222" y="236" type="line"/>
      <point x="288" y="236" type="line" smooth="yes"/>
      <point x="503" y="236"/>
      <point x="620" y="206"/>
      <point x="620" y="125" type="curve" smooth="yes"/>
      <point x="620" y="53"/>
      <point x="525" y="24"/>
      <point x="360" y="23" type="curve" smooth="yes"/>
      <point x="172" y="22"/>
      <point x="79" y="-30"/>
      <point x="79" y="-106" type="curve" smooth="yes"/>
      <point x="79" y="-199"/>
      <point x="173" y="-240"/>
    </contour>
  </outline>
</glyph>
<glyph name="uni01BE" format="2">
  <advance width="800"/>
  <unicode hex="01BE"/>
  <anchor x="400" y="0" name="bottom"/>
  <anchor x="347" y="679" name="top"/>
  <outline>
    <contour>
      <point x="372" y="-10" type="curve" smooth="yes"/>
      <point x="597" y="-10"/>
      <point x="698" y="47"/>
      <point x="698" y="150" type="curve" smooth="yes"/>
      <point x="698" y="240"/>
      <point x="605" y="272"/>
      <point x="465" y="303" type="curve" smooth="yes"/>
      <point x="408" y="315"/>
      <point x="385" y="331"/>
      <point x="385" y="377" type="curve" smooth="yes"/>
      <point x="385" y="457" type="line"/>
      <point x="688" y="457" type="line"/>
      <point x="688" y="537" type="line"/>
      <point x="385" y="537" type="line"/>
      <point x="385" y="679" type="line"/>
      <point x="308" y="679" type="line"/>
      <point x="289" y="540" type="line"/>
      <point x="64" y="521" type="line"/>
      <point x="64" y="457" type="line"/>
      <point x="288" y="457" type="line"/>
      <point x="288" y="367" type="line" smooth="yes"/>
      <point x="288" y="288"/>
      <point x="326" y="253"/>
      <point x="409" y="234" type="curve" smooth="yes"/>
      <point x="537" y="205"/>
      <point x="603" y="192"/>
      <point x="603" y="142" type="curve" smooth="yes"/>
      <point x="603" y="92"/>
      <point x="543" y="66"/>
      <point x="372" y="66" type="curve" smooth="yes"/>
      <point x="253" y="66"/>
      <point x="150" y="91"/>
      <point x="88" y="112" type="curve"/>
      <point x="88" y="28" type="line"/>
      <point x="138" y="9"/>
      <point x="237" y="-10"/>
    </contour>
  </outline>
</glyph>
<glyph name="uni01C0" format="2">
  <advance width="800"/>
  <unicode hex="01C0"/>
  <anchor x="400" y="0" name="bottom"/>
  <anchor x="400" y="760" name="top"/>
  <outline>
    <contour>
      <point x="358" y="0" type="line"/>
      <point x="442" y="0" type="line"/>
      <point x="442" y="760" type="line"/>
      <point x="358" y="760" type="line"/>
    </contour>
  </outline>
</glyph>
<glyph name="uni01C2" format="2">
  <advance width="800"/>
  <unicode hex="01C2"/>
  <anchor x="400" y="0" name="bottom"/>
  <anchor x="400" y="760" name="top"/>
  <outline>
    <contour>
      <point x="123" y="449" type="line"/>
      <point x="676" y="449" type="line"/>
      <point x="676" y="526" type="line"/>
      <point x="123" y="526" type="line"/>
    </contour>
    <contour>
      <point x="123" y="251" type="line"/>
      <point x="676" y="251" type="line"/>
      <point x="676" y="328" type="line"/>
      <point x="123" y="328" type="line"/>
    </contour>
    <component base="uni01C0" xOffset="-30"/>
  </outline>
</glyph>
<glyph name="uni01E5" format="2">
  <advance width="800"/>
  <unicode hex="01E5"/>
  <anchor x="400" y="-245" name="bottom"/>
  <anchor x="400" y="537" name="top"/>
  <outline>
    <contour>
      <point x="396" y="-240" type="curve" smooth="yes"/>
      <point x="588" y="-240"/>
      <point x="676" y="-186"/>
      <point x="699" y="-101" type="curve"/>
      <point x="801" y="-101" type="line"/>
      <point x="801" y="-28" type="line"/>
      <point x="707" y="-28" type="line"/>
      <point x="707" y="537" type="line"/>
      <point x="629" y="537" type="line"/>
      <point x="615" y="467" type="line"/>
      <point x="610" y="467" type="line"/>
      <point x="560" y="522"/>
      <point x="485" y="547"/>
      <point x="372" y="547" type="curve" smooth="yes"/>
      <point x="168" y="547"/>
      <point x="57" y="446"/>
      <point x="57" y="281" type="curve" smooth="yes"/>
      <point x="57" y="117"/>
      <point x="168" y="20"/>
      <point x="366" y="20" type="curve" smooth="yes"/>
      <point x="481" y="20"/>
      <point x="567" y="46"/>
      <point x="612" y="101" type="curve"/>
      <point x="616" y="101" type="line"/>
      <point x="613" y="86"/>
      <point x="612" y="56"/>
      <point x="612" y="35" type="curve" smooth="yes"/>
      <point x="612" y="-28" type="line"/>
      <point x="352" y="-28" type="line"/>
      <point x="352" y="-101" type="line"/>
      <point x="600" y="-101" type="line"/>
      <point x="579" y="-146"/>
      <point x="518" y="-163"/>
      <point x="400" y="-163" type="curve" smooth="yes"/>
      <point x="306" y="-163"/>
      <point x="204" y="-149"/>
      <point x="132" y="-121" type="curve"/>
      <point x="132" y="-206" type="line"/>
      <point x="204" y="-230"/>
      <point x="299" y="-240"/>
    </contour>
    <contour>
      <point x="389" y="97" type="curve" smooth="yes"/>
      <point x="230" y="97"/>
      <point x="155" y="156"/>
      <point x="155" y="281" type="curve" smooth="yes"/>
      <point x="155" y="407"/>
      <point x="231" y="468"/>
      <point x="392" y="468" type="curve" smooth="yes"/>
      <point x="553" y="468"/>
      <point x="614" y="406"/>
      <point x="614" y="279" type="curve" smooth="yes"/>
      <point x="614" y="263" type="line" smooth="yes"/>
      <point x="614" y="151"/>
      <point x="559" y="97"/>
    </contour>
  </outline>
</glyph>
<glyph name="uni01F6" format="2">
  <advance width="800"/>
  <unicode hex="01F6"/>
  <anchor x="400" y="0" name="bottom"/>
  <anchor x="400" y="357" name="center"/>
  <anchor x="400" y="714" name="top"/>
  <anchor x="-1" y="714" name="topleft"/>
  <outline>
    <contour>
      <point x="565" y="-10" type="curve" smooth="yes"/>
      <point x="694" y="-10"/>
      <point x="755" y="60"/>
      <point x="755" y="141" type="curve" smooth="yes"/>
      <point x="755" y="538" type="line"/>
      <point x="664" y="538" type="line"/>
      <point x="664" y="143" type="line" smooth="yes"/>
      <point x="664" y="97"/>
      <point x="634" y="69"/>
      <point x="565" y="69" type="curve" smooth="yes"/>
      <point x="494" y="69"/>
      <point x="463" y="97"/>
      <point x="463" y="143" type="curve" smooth="yes"/>
      <point x="463" y="714" type="line"/>
      <point x="373" y="714" type="line"/>
      <point x="373" y="414" type="line"/>
      <point x="147" y="414" type="line"/>
      <point x="147" y="714" type="line"/>
      <point x="57" y="714" type="line"/>
      <point x="57" y="0" type="line"/>
      <point x="147" y="0" type="line"/>
      <point x="147" y="332" type="line"/>
      <point x="373" y="332" type="line"/>
      <point x="373" y="141" type="line" smooth="yes"/>
      <point x="373" y="60"/>
      <point x="418" y="-10"/>
    </contour>
  </outline>
</glyph>
<glyph name="uni01F7" format="2">
  <advance width="800"/>
  <unicode hex="01F7"/>
  <anchor x="439" y="-240" name="bottom"/>
  <anchor x="443" y="714" name="top"/>
  <outline>
    <contour>
      <point x="103" y="-240" type="line"/>
      <point x="198" y="-240" type="line"/>
      <point x="198" y="-9" type="line"/>
      <point x="557" y="117"/>
      <point x="763" y="301"/>
      <point x="763" y="480" type="curve" smooth="yes"/>
      <point x="763" y="647"/>
      <point x="635" y="725"/>
      <point x="475" y="725" type="curve" smooth="yes"/>
      <point x="325" y="725"/>
      <point x="236" y="678"/>
      <point x="199" y="619" type="curve"/>
      <point x="194" y="619" type="line"/>
      <point x="179" y="715" type="line"/>
      <point x="103" y="715" type="line"/>
    </contour>
    <contour>
      <point x="198" y="82" type="curve"/>
      <point x="198" y="416" type="line"/>
      <point x="198" y="554"/>
      <point x="287" y="642"/>
      <point x="456" y="642" type="curve" smooth="yes"/>
      <point x="576" y="642"/>
      <point x="666" y="588"/>
      <point x="666" y="479" type="curve" smooth="yes"/>
      <point x="666" y="312"/>
      <point x="471" y="171"/>
    </contour>
  </outline>
</glyph>
<glyph name="uni0220" format="2">
  <advance width="800"/>
  <unicode hex="0220"/>
  <anchor x="401" y="-240" name="bottom"/>
  <anchor x="400" y="357" name="center"/>
  <anchor x="400" y="714" name="top"/>
  <anchor x="-1" y="714" name="topleft"/>
  <outline>
    <contour>
      <point x="633" y="-240" type="line"/>
      <point x="729" y="-240" type="line"/>
      <point x="729" y="490" type="line" smooth="yes"/>
      <point x="729" y="662"/>
      <point x="610" y="725"/>
      <point x="443" y="725" type="curve" smooth="yes"/>
      <point x="306" y="725"/>
      <point x="223" y="692"/>
      <point x="183" y="631" type="curve"/>
      <point x="178" y="631" type="line"/>
      <point x="166" y="715" type="line"/>
      <point x="89" y="715" type="line"/>
      <point x="89" y="0" type="line"/>
      <point x="185" y="0" type="line"/>
      <point x="185" y="425" type="line" smooth="yes"/>
      <point x="185" y="559"/>
      <point x="257" y="641"/>
      <point x="427" y="641" type="curve" smooth="yes"/>
      <point x="557" y="641"/>
      <point x="633" y="595"/>
      <point x="633" y="486" type="curve" smooth="yes"/>
    </contour>
  </outline>
</glyph>
<glyph name="uni0222" format="2">
  <advance width="800"/>
  <unicode hex="0222"/>
  <anchor x="400" y="0" name="bottom"/>
  <anchor x="400" y="714" name="top"/>
  <outline>
    <contour>
      <point x="401" y="-10" type="curve" smooth="yes"/>
      <point x="634" y="-10"/>
      <point x="748" y="91"/>
      <point x="748" y="224" type="curve" smooth="yes"/>
      <point x="748" y="313"/>
      <point x="668" y="387"/>
      <point x="554" y="419" type="curve"/>
      <point x="644" y="449"/>
      <point x="701" y="509"/>
      <point x="701" y="612" type="curve" smooth="yes"/>
      <point x="701" y="714" type="line"/>
      <point x="609" y="714" type="line"/>
      <point x="609" y="606" type="line" smooth="yes"/>
      <point x="609" y="496"/>
      <point x="543" y="454"/>
      <point x="398" y="454" type="curve" smooth="yes"/>
      <point x="254" y="454"/>
      <point x="191" y="497"/>
      <point x="191" y="605" type="curve" smooth="yes"/>
      <point x="191" y="714" type="line"/>
      <point x="99" y="714" type="line"/>
      <point x="99" y="611" type="line" smooth="yes"/>
      <point x="99" y="511"/>
      <point x="153" y="450"/>
      <point x="246" y="419" type="curve"/>
      <point x="139" y="392"/>
      <point x="52" y="328"/>
      <point x="52" y="225" type="curve" smooth="yes"/>
      <point x="52" y="94"/>
      <point x="165" y="-10"/>
    </contour>
    <contour>
      <point x="401" y="73" type="curve" smooth="yes"/>
      <point x="241" y="73"/>
      <point x="147" y="124"/>
      <point x="147" y="225" type="curve" smooth="yes"/>
      <point x="147" y="324"/>
      <point x="235" y="376"/>
      <point x="398" y="376" type="curve" smooth="yes"/>
      <point x="569" y="376"/>
      <point x="651" y="325"/>
      <point x="651" y="225" type="curve" smooth="yes"/>
      <point x="651" y="122"/>
      <point x="561" y="73"/>
    </contour>
  </outline>
</glyph>
<glyph name="uni0223" format="2">
  <advance width="800"/>
  <unicode hex="0223"/>
  <anchor x="395" y="0" name="bottom"/>
  <anchor x="395" y="760" name="top"/>
  <outline>
    <contour>
      <point x="399" y="-10" type="curve" smooth="yes"/>
      <point x="610" y="-10"/>
      <point x="745" y="80"/>
      <point x="745" y="240" type="curve" smooth="yes"/>
      <point x="745" y="350"/>
      <point x="658" y="417"/>
      <point x="547" y="448" type="curve"/>
      <point x="644" y="473"/>
      <point x="701" y="528"/>
      <point x="701" y="634" type="curve" smooth="yes"/>
      <point x="701" y="760" type="line"/>
      <point x="605" y="760" type="line"/>
      <point x="605" y="637" type="line" smooth="yes"/>
      <point x="605" y="533"/>
      <point x="541" y="489"/>
      <point x="397" y="489" type="curve" smooth="yes"/>
      <point x="254" y="489"/>
      <point x="195" y="533"/>
      <point x="195" y="637" type="curve" smooth="yes"/>
      <point x="195" y="760" type="line"/>
      <point x="99" y="760" type="line"/>
      <point x="99" y="634" type="line" smooth="yes"/>
      <point x="99" y="529"/>
      <point x="151" y="474"/>
      <point x="252" y="449" type="curve"/>
      <point x="141" y="418"/>
      <point x="54" y="350"/>
      <point x="54" y="240" type="curve" smooth="yes"/>
      <point x="54" y="80"/>
      <point x="196" y="-10"/>
    </contour>
    <contour>
      <point x="401" y="69" type="curve" smooth="yes"/>
      <point x="241" y="69"/>
      <point x="153" y="134"/>
      <point x="153" y="241" type="curve" smooth="yes"/>
      <point x="153" y="347"/>
      <point x="236" y="410"/>
      <point x="396" y="410" type="curve" smooth="yes"/>
      <point x="568" y="410"/>
      <point x="646" y="346"/>
      <point x="646" y="241" type="curve" smooth="yes"/>
      <point x="646" y="134"/>
      <point x="560" y="69"/>
    </contour>
  </outline>
</glyph>
<glyph name="uni0235" format="2">
  <advance width="800"/>
  <unicode hex="0235"/>
  <anchor x="314" y="0" name="bottom"/>
  <anchor x="321" y="537" name="top"/>
  <outline>
    <contour>
      <point x="451" y="-28" type="line"/>
      <point x="460" y="0"/>
      <point x="476" y="24"/>
      <point x="491" y="44" type="curve"/>
      <point x="513" y="11"/>
      <point x="558" y="-10"/>
      <point x="644" y="-10" type="curve" smooth="yes"/>
      <point x="740" y="-10"/>
      <point x="805" y="37"/>
      <point x="805" y="108" type="curve" smooth="yes"/>
      <point x="805" y="181"/>
      <point x="747" y="228"/>
      <point x="652" y="228" type="curve" smooth="yes"/>
      <point x="603" y="228"/>
      <point x="568" y="222"/>
      <point x="548" y="215" type="curve"/>
      <point x="548" y="375" type="line" smooth="yes"/>
      <point x="548" y="487"/>
      <point x="468" y="548"/>
      <point x="326" y="548" type="curve" smooth="yes"/>
      <point x="206" y="548"/>
      <point x="150" y="509"/>
      <point x="126" y="475" type="curve"/>
      <point x="121" y="475" type="line"/>
      <point x="112" y="538" type="line"/>
      <point x="41" y="538" type="line"/>
      <point x="41" y="0" type="line"/>
      <point x="130" y="0" type="line"/>
      <point x="130" y="348" type="line" smooth="yes"/>
      <point x="130" y="431"/>
      <point x="197" y="472"/>
      <point x="304" y="472" type="curve" smooth="yes"/>
      <point x="408" y="472"/>
      <point x="460" y="430"/>
      <point x="460" y="357" type="curve" smooth="yes"/>
      <point x="460" y="171" type="line" smooth="yes"/>
      <point x="460" y="163"/>
      <point x="460" y="149"/>
      <point x="462" y="141" type="curve"/>
      <point x="429" y="106"/>
      <point x="400" y="57"/>
      <point x="380" y="-4" type="curve"/>
    </contour>
    <contour>
      <point x="644" y="55" type="curve" smooth="yes"/>
      <point x="580" y="55"/>
      <point x="552" y="88"/>
      <point x="549" y="142" type="curve"/>
      <point x="570" y="153"/>
      <point x="599" y="163"/>
      <point x="643" y="163" type="curve" smooth="yes"/>
      <point x="697" y="163"/>
      <point x="727" y="145"/>
      <point x="727" y="108" type="curve" smooth="yes"/>
      <point x="727" y="78"/>
      <point x="699" y="55"/>
    </contour>
  </outline>
</glyph>
<glyph name="uni023D" format="2">
  <advance width="800"/>
  <unicode hex="023D"/>
  <anchor x="400" y="0" name="bottom"/>
  <anchor x="204" y="714" name="top"/>
  <anchor x="567" y="714" name="topright"/>
  <anchor x="370" y="357" name="center"/>
  <outline>
    <contour>
      <point x="-30" y="328" type="line"/>
      <point x="492" y="328" type="line"/>
      <point x="492" y="405" type="line"/>
      <point x="-30" y="405" type="line"/>
    </contour>
    <component base="L" xOffset="-30"/>
  </outline>
</glyph>
<glyph name="uni023E" format="2">
  <advance width="800"/>
  <unicode hex="023E"/>
  <anchor x="400" y="-75" name="bottom"/>
  <anchor x="400" y="760" name="top"/>
  <anchor x="773" y="714" name="topright"/>
  <anchor x="371" y="357" name="center"/>
  <outline>
    <contour>
      <point x="57" y="-75" type="line"/>
      <point x="134" y="-75" type="line"/>
      <point x="747" y="760" type="line"/>
      <point x="670" y="760" type="line"/>
    </contour>
    <component base="T" xOffset="-29"/>
  </outline>
</glyph>
<glyph name="uni023F" format="2">
  <advance width="800"/>
  <unicode hex="023F"/>
  <anchor x="428" y="-240" name="bottom"/>
  <anchor x="400" y="537" name="top"/>
  <anchor x="771" y="537" name="topright"/>
  <outline>
    <contour>
      <point x="532" y="-240" type="curve" smooth="yes"/>
      <point x="580" y="-240"/>
      <point x="616" y="-231"/>
      <point x="640" y="-223" type="curve"/>
      <point x="640" y="-146" type="line"/>
      <point x="616" y="-154"/>
      <point x="581" y="-162"/>
      <point x="539" y="-162" type="curve" smooth="yes"/>
      <point x="451" y="-162"/>
      <point x="412" y="-134"/>
      <point x="377" y="-72" type="curve" smooth="yes"/>
      <point x="351" y="-27"/>
      <point x="332" y="-10"/>
      <point x="298" y="0" type="curve"/>
      <point x="170" y="13" type="line"/>
      <point x="240" y="-2"/>
      <point x="260" y="-29"/>
      <point x="290" y="-91" type="curve" smooth="yes"/>
      <point x="339" y="-194"/>
      <point x="392" y="-240"/>
    </contour>
    <component base="s" xOffset="-30"/>
  </outline>
</glyph>
<glyph name="uni0240" format="2">
  <advance width="800"/>
  <unicode hex="0240"/>
  <anchor x="442" y="-240" name="bottom"/>
  <anchor x="414" y="537" name="top"/>
  <outline>
    <contour>
      <point x="579" y="-240" type="curve" smooth="yes"/>
      <point x="633" y="-240"/>
      <point x="668" y="-235"/>
      <point x="693" y="-228" type="curve"/>
      <point x="693" y="-151" type="line"/>
      <point x="667" y="-158"/>
      <point x="633" y="-162"/>
      <point x="591" y="-162" type="curve" smooth="yes"/>
      <point x="473" y="-162"/>
      <point x="447" y="-121"/>
      <point x="416" y="-73" type="curve" smooth="yes"/>
      <point x="367" y="1"/>
      <point x="339" y="52"/>
      <point x="224" y="72" type="curve"/>
      <point x="681" y="463" type="line"/>
      <point x="681" y="537" type="line"/>
      <point x="141" y="537" type="line"/>
      <point x="141" y="460" type="line"/>
      <point x="569" y="460" type="line"/>
      <point x="111" y="64" type="line"/>
      <point x="111" y="0" type="line"/>
      <point x="145" y="0" type="line" smooth="yes"/>
      <point x="268" y="0"/>
      <point x="293" y="-31"/>
      <point x="324" y="-84" type="curve" smooth="yes"/>
      <point x="371" y="-165"/>
      <point x="405" y="-240"/>
    </contour>
  </outline>
</glyph>
<glyph name="uni0241" format="2">
  <advance width="800"/>
  <unicode hex="0241"/>
  <anchor x="364" y="0" name="bottom"/>
  <anchor x="364" y="714" name="top"/>
  <outline>
    <contour>
      <point x="318" y="0" type="line"/>
      <point x="416" y="0" type="line"/>
      <point x="416" y="270" type="line"/>
      <point x="607" y="328"/>
      <point x="718" y="404"/>
      <point x="718" y="515" type="curve" smooth="yes"/>
      <point x="718" y="641"/>
      <point x="604" y="724"/>
      <point x="372" y="724" type="curve" smooth="yes"/>
      <point x="228" y="724"/>
      <point x="132" y="693"/>
      <point x="60" y="659" type="curve"/>
      <point x="96" y="581" type="line"/>
      <point x="156" y="612"/>
      <point x="245" y="639"/>
      <point x="366" y="639" type="curve" smooth="yes"/>
      <point x="546" y="639"/>
      <point x="615" y="585"/>
      <point x="615" y="512" type="curve" smooth="yes"/>
      <point x="615" y="415"/>
      <point x="498" y="360"/>
      <point x="318" y="323" type="curve"/>
    </contour>
  </outline>
</glyph>
<glyph name="uni0242" format="2">
  <advance width="800"/>
  <unicode hex="0242"/>
  <anchor x="359" y="0" name="bottom"/>
  <anchor x="376" y="537" name="top"/>
  <outline>
    <contour>
      <point x="306" y="0" type="line"/>
      <point x="402" y="0" type="line"/>
      <point x="402" y="97" type="line"/>
      <point x="568" y="163"/>
      <point x="673" y="263"/>
      <point x="673" y="354" type="curve" smooth="yes"/>
      <point x="673" y="474"/>
      <point x="568" y="547"/>
      <point x="380" y="547" type="curve" smooth="yes"/>
      <point x="275" y="547"/>
      <point x="193" y="525"/>
      <point x="125" y="490" type="curve"/>
      <point x="161" y="420" type="line"/>
      <point x="216" y="449"/>
      <point x="293" y="469"/>
      <point x="375" y="469" type="curve" smooth="yes"/>
      <point x="505" y="469"/>
      <point x="575" y="427"/>
      <point x="575" y="351" type="curve" smooth="yes"/>
      <point x="575" y="261"/>
      <point x="464" y="184"/>
      <point x="306" y="146" type="curve"/>
    </contour>
  </outline>
</glyph>
<glyph name="uni0246" format="2">
  <advance width="800"/>
  <unicode hex="0246"/>
  <anchor x="400" y="-75" name="bottom"/>
  <anchor x="400" y="760" name="top"/>
  <anchor x="-31" y="714" name="topleft"/>
  <anchor x="596" y="10" name="ogonek"/>
  <anchor x="772" y="714" name="topright"/>
  <outline>
    <contour>
      <point x="218" y="-75" type="line"/>
      <point x="293" y="-75" type="line"/>
      <point x="674" y="760" type="line"/>
      <point x="599" y="760" type="line"/>
    </contour>
    <component base="E" xOffset="-30"/>
  </outline>
</glyph>
<glyph name="uni0248" format="2">
  <advance width="800"/>
  <unicode hex="0248"/>
  <anchor x="400" y="-193" name="bottom"/>
  <anchor x="414" y="714" name="top"/>
  <outline>
    <contour>
      <point x="183" y="-193" type="curve" smooth="yes"/>
      <point x="377" y="-193"/>
      <point x="462" y="-110"/>
      <point x="462" y="38" type="curve" smooth="yes"/>
      <point x="462" y="714" type="line"/>
      <point x="365" y="714" type="line"/>
      <point x="365" y="51" type="line" smooth="yes"/>
      <point x="365" y="-61"/>
      <point x="304" y="-104"/>
      <point x="175" y="-104" type="curve" smooth="yes"/>
      <point x="97" y="-104"/>
      <point x="24" y="-87"/>
      <point x="-27" y="-74" type="curve"/>
      <point x="-27" y="-165" type="line"/>
      <point x="30" y="-181"/>
      <point x="106" y="-193"/>
    </contour>
    <contour>
      <point x="150" y="311" type="line"/>
      <point x="679" y="311" type="line"/>
      <point x="679" y="396" type="line"/>
      <point x="150" y="396" type="line"/>
    </contour>
  </outline>
</glyph>
<glyph name="uni024C" format="2">
  <advance width="800"/>
  <unicode hex="024C"/>
  <anchor x="453" y="0" name="bottom"/>
  <anchor x="400" y="714" name="top"/>
  <anchor x="772" y="714" name="topright"/>
  <outline>
    <contour>
      <point x="-30" y="289" type="line"/>
      <point x="233" y="289" type="line"/>
      <point x="233" y="373" type="line"/>
      <point x="-30" y="373" type="line"/>
    </contour>
    <component base="R" xOffset="-30"/>
  </outline>
</glyph>
<glyph name="uni024F" format="2">
  <advance width="800"/>
  <unicode hex="024F"/>
  <anchor x="400" y="-245" name="bottom"/>
  <anchor x="400" y="537" name="top"/>
  <anchor x="771" y="537" name="topright"/>
  <outline>
    <contour>
      <point x="4" y="287" type="line"/>
      <point x="804" y="287" type="line"/>
      <point x="804" y="362" type="line"/>
      <point x="4" y="362" type="line"/>
    </contour>
    <component base="y" xOffset="-30"/>
  </outline>
</glyph>
<glyph name="uni0251" format="2">
  <advance width="800"/>
  <unicode hex="0251"/>
  <anchor x="400" y="0" name="bottom"/>
  <anchor x="400" y="537" name="top"/>
  <outline>
    <contour>
      <point x="361" y="-10" type="curve" smooth="yes"/>
      <point x="490" y="-10"/>
      <point x="567" y="26"/>
      <point x="609" y="72" type="curve"/>
      <point x="613" y="72" type="line"/>
      <point x="623" y="0" type="line"/>
      <point x="703" y="0" type="line"/>
      <point x="703" y="537" type="line"/>
      <point x="622" y="537" type="line"/>
      <point x="609" y="469" type="line"/>
      <point x="604" y="469" type="line"/>
      <point x="565" y="513"/>
      <point x="488" y="547"/>
      <point x="367" y="547" type="curve" smooth="yes"/>
      <point x="175" y="547"/>
      <point x="56" y="457"/>
      <point x="56" y="268" type="curve" smooth="yes"/>
      <point x="56" y="83"/>
      <point x="171" y="-10"/>
    </contour>
    <contour>
      <point x="377" y="68" type="curve" smooth="yes"/>
      <point x="230" y="68"/>
      <point x="154" y="140"/>
      <point x="154" y="266" type="curve" smooth="yes"/>
      <point x="154" y="391"/>
      <point x="236" y="469"/>
      <point x="382" y="469" type="curve" smooth="yes"/>
      <point x="539" y="469"/>
      <point x="607" y="398"/>
      <point x="607" y="269" type="curve" smooth="yes"/>
      <point x="607" y="256" type="line" smooth="yes"/>
      <point x="607" y="134"/>
      <point x="540" y="68"/>
    </contour>
  </outline>
</glyph>
<glyph name="uni0253" format="2">
  <advance width="800"/>
  <unicode hex="0253"/>
  <anchor x="400" y="0" name="bottom"/>
  <anchor x="400" y="765" name="top"/>
  <outline>
    <contour>
      <point x="432" y="-10" type="curve" smooth="yes"/>
      <point x="637" y="-10"/>
      <point x="744" y="89"/>
      <point x="744" y="270" type="curve" smooth="yes"/>
      <point x="744" y="449"/>
      <point x="632" y="547"/>
      <point x="442" y="547" type="curve" smooth="yes"/>
      <point x="313" y="547"/>
      <point x="228" y="510"/>
      <point x="191" y="467" type="curve"/>
      <point x="187" y="467" type="line"/>
      <point x="190" y="504"/>
      <point x="191" y="539"/>
      <point x="191" y="576" type="curve" smooth="yes"/>
      <point x="191" y="627" type="line" smooth="yes"/>
      <point x="191" y="668"/>
      <point x="228" y="684"/>
      <point x="298" y="684" type="curve" smooth="yes"/>
      <point x="329" y="684"/>
      <point x="356" y="678"/>
      <point x="372" y="674" type="curve"/>
      <point x="372" y="752" type="line"/>
      <point x="351" y="758"/>
      <point x="318" y="765"/>
      <point x="285" y="765" type="curve" smooth="yes"/>
      <point x="162" y="765"/>
      <point x="97" y="717"/>
      <point x="97" y="622" type="curve" smooth="yes"/>
      <point x="97" y="0" type="line"/>
      <point x="174" y="0" type="line"/>
      <point x="185" y="67" type="line"/>
      <point x="192" y="67" type="line"/>
      <point x="231" y="24"/>
      <point x="310" y="-10"/>
    </contour>
    <contour>
      <point x="414" y="68" type="curve" smooth="yes"/>
      <point x="263" y="68"/>
      <point x="191" y="138"/>
      <point x="191" y="272" type="curve" smooth="yes"/>
      <point x="191" y="399"/>
      <point x="272" y="469"/>
      <point x="422" y="469" type="curve" smooth="yes"/>
      <point x="576" y="469"/>
      <point x="645" y="398"/>
      <point x="645" y="270" type="curve" smooth="yes"/>
      <point x="645" y="139"/>
      <point x="568" y="68"/>
    </contour>
  </outline>
</glyph>
<glyph name="uni0256" format="2">
  <advance width="800"/>
  <unicode hex="0256"/>
  <anchor x="400" y="-240" name="bottom"/>
  <anchor x="400" y="760" name="top"/>
  <outline>
    <contour>
      <point x="792" y="-240" type="curve" smooth="yes"/>
      <point x="836" y="-240"/>
      <point x="874" y="-233"/>
      <point x="894" y="-224" type="curve"/>
      <point x="894" y="-151" type="line"/>
      <point x="877" y="-156"/>
      <point x="847" y="-162"/>
      <point x="810" y="-162" type="curve" smooth="yes"/>
      <point x="742" y="-162"/>
      <point x="703" y="-145"/>
      <point x="703" y="-69" type="curve" smooth="yes"/>
      <point x="703" y="760" type="line"/>
      <point x="608" y="760" type="line"/>
      <point x="608" y="550" type="line" smooth="yes"/>
      <point x="608" y="529"/>
      <point x="611" y="487"/>
      <point x="614" y="468" type="curve"/>
      <point x="608" y="468" type="line"/>
      <point x="567" y="512"/>
      <point x="496" y="547"/>
      <point x="366" y="547" type="curve" smooth="yes"/>
      <point x="173" y="547"/>
      <point x="56" y="452"/>
      <point x="56" y="268" type="curve" smooth="yes"/>
      <point x="56" y="83"/>
      <point x="167" y="-10"/>
      <point x="359" y="-10" type="curve" smooth="yes"/>
      <point x="492" y="-10"/>
      <point x="568" y="25"/>
      <point x="608" y="69" type="curve"/>
      <point x="614" y="69" type="line"/>
      <point x="611" y="51"/>
      <point x="608" y="9"/>
      <point x="608" y="-12" type="curve" smooth="yes"/>
      <point x="608" y="-71" type="line" smooth="yes"/>
      <point x="608" y="-201"/>
      <point x="682" y="-240"/>
    </contour>
    <contour>
      <point x="374" y="68" type="curve" smooth="yes"/>
      <point x="226" y="68"/>
      <point x="154" y="140"/>
      <point x="154" y="266" type="curve" smooth="yes"/>
      <point x="154" y="390"/>
      <point x="231" y="469"/>
      <point x="380" y="469" type="curve" smooth="yes"/>
      <point x="540" y="469"/>
      <point x="609" y="397"/>
      <point x="609" y="267" type="curve" smooth="yes"/>
      <point x="609" y="251" type="line" smooth="yes"/>
      <point x="609" y="129"/>
      <point x="539" y="68"/>
    </contour>
  </outline>
</glyph>
<glyph name="eopenreversedhook" format="2">
  <advance width="800"/>
  <unicode hex="025D"/>
  <anchor x="264" y="0" name="bottom"/>
  <anchor x="269" y="537" name="top"/>
  <outline>
    <contour>
      <point x="723" y="278" type="curve" smooth="yes"/>
      <point x="772" y="278"/>
      <point x="804" y="292"/>
      <point x="826" y="307" type="curve"/>
      <point x="797" y="355" type="line"/>
      <point x="780" y="346"/>
      <point x="760" y="337"/>
      <point x="728" y="337" type="curve" smooth="yes"/>
      <point x="679" y="337"/>
      <point x="655" y="360"/>
      <point x="647" y="427" type="curve" smooth="yes"/>
      <point x="641" y="477" type="line"/>
      <point x="523" y="451" type="line"/>
      <point x="528" y="386" type="line"/>
      <point x="587" y="397" type="line"/>
      <point x="599" y="307"/>
      <point x="642" y="278"/>
    </contour>
    <component base="afii10073" xOffset="-146"/>
  </outline>
</glyph>
<glyph name="uni025E" format="2">
  <advance width="800"/>
  <unicode hex="025E"/>
  <anchor x="400" y="0" name="bottom"/>
  <anchor x="400" y="537" name="top"/>
  <outline>
    <contour>
      <point x="419" y="-10" type="curve" smooth="yes"/>
      <point x="641" y="-10"/>
      <point x="744" y="63"/>
      <point x="744" y="154" type="curve" smooth="yes"/>
      <point x="744" y="236"/>
      <point x="671" y="269"/>
      <point x="575" y="278" type="curve"/>
      <point x="575" y="282" type="line"/>
      <point x="666" y="299"/>
      <point x="719" y="331"/>
      <point x="719" y="401" type="curve" smooth="yes"/>
      <point x="719" y="489"/>
      <point x="619" y="547"/>
      <point x="439" y="547" type="curve" smooth="yes"/>
      <point x="185" y="547"/>
      <point x="56" y="443"/>
      <point x="56" y="268" type="curve" smooth="yes"/>
      <point x="56" y="95"/>
      <point x="173" y="-10"/>
    </contour>
    <contour>
      <point x="428" y="68" type="curve" smooth="yes"/>
      <point x="239" y="68"/>
      <point x="153" y="132"/>
      <point x="153" y="268" type="curve" smooth="yes"/>
      <point x="153" y="401"/>
      <point x="240" y="469"/>
      <point x="437" y="469" type="curve" smooth="yes"/>
      <point x="570" y="469"/>
      <point x="627" y="435"/>
      <point x="627" y="391" type="curve" smooth="yes"/>
      <point x="627" y="329"/>
      <point x="547" y="313"/>
      <point x="396" y="313" type="curve" smooth="yes"/>
      <point x="341" y="313" type="line"/>
      <point x="341" y="237" type="line"/>
      <point x="410" y="237" type="line" smooth="yes"/>
      <point x="560" y="237"/>
      <point x="649" y="216"/>
      <point x="649" y="160" type="curve" smooth="yes"/>
      <point x="649" y="99"/>
      <point x="574" y="68"/>
    </contour>
  </outline>
</glyph>
<glyph name="uni025F" format="2">
  <advance width="800"/>
  <unicode hex="025F"/>
  <anchor x="422" y="-239" name="bottom"/>
  <anchor x="443" y="537" name="top"/>
  <outline>
    <contour>
      <point x="296" y="-240" type="curve" smooth="yes"/>
      <point x="423" y="-240"/>
      <point x="491" y="-177"/>
      <point x="491" y="-77" type="curve" smooth="yes"/>
      <point x="491" y="245" type="line"/>
      <point x="606" y="245" type="line"/>
      <point x="606" y="320" type="line"/>
      <point x="491" y="320" type="line"/>
      <point x="491" y="537" type="line"/>
      <point x="394" y="537" type="line"/>
      <point x="394" y="320" type="line"/>
      <point x="282" y="320" type="line"/>
      <point x="282" y="245" type="line"/>
      <point x="394" y="245" type="line"/>
      <point x="394" y="-77" type="line" smooth="yes"/>
      <point x="394" y="-142"/>
      <point x="352" y="-161"/>
      <point x="285" y="-161" type="curve" smooth="yes"/>
      <point x="251" y="-161"/>
      <point x="222" y="-157"/>
      <point x="193" y="-151" type="curve"/>
      <point x="193" y="-228" type="line"/>
      <point x="218" y="-235"/>
      <point x="253" y="-240"/>
    </contour>
  </outline>
</glyph>
<glyph name="uni0260" format="2">
  <advance width="800"/>
  <unicode hex="0260"/>
  <anchor x="400" y="-245" name="bottom"/>
  <anchor x="400" y="765" name="top"/>
  <outline>
    <contour>
      <point x="362" y="-245" type="curve" smooth="yes"/>
      <point x="603" y="-245"/>
      <point x="703" y="-166"/>
      <point x="703" y="-11" type="curve" smooth="yes"/>
      <point x="703" y="627" type="line" smooth="yes"/>
      <point x="703" y="668"/>
      <point x="734" y="684"/>
      <point x="791" y="684" type="curve" smooth="yes"/>
      <point x="821" y="684"/>
      <point x="851" y="678"/>
      <point x="871" y="674" type="curve"/>
      <point x="871" y="752" type="line"/>
      <point x="850" y="758"/>
      <point x="815" y="765"/>
      <point x="777" y="765" type="curve" smooth="yes"/>
      <point x="673" y="765"/>
      <point x="609" y="716"/>
      <point x="609" y="622" type="curve" smooth="yes"/>
      <point x="609" y="554" type="line" smooth="yes"/>
      <point x="609" y="532"/>
      <point x="611" y="496"/>
      <point x="612" y="471" type="curve"/>
      <point x="605" y="471" type="line"/>
      <point x="556" y="526"/>
      <point x="489" y="547"/>
      <point x="371" y="547" type="curve" smooth="yes"/>
      <point x="170" y="547"/>
      <point x="56" y="441"/>
      <point x="56" y="266" type="curve" smooth="yes"/>
      <point x="56" y="92"/>
      <point x="171" y="-10"/>
      <point x="367" y="-10" type="curve" smooth="yes"/>
      <point x="484" y="-10"/>
      <point x="565" y="8"/>
      <point x="610" y="62" type="curve"/>
      <point x="615" y="62" type="line"/>
      <point x="611" y="33"/>
      <point x="611" y="22"/>
      <point x="611" y="6" type="curve" smooth="yes"/>
      <point x="611" y="-13" type="line" smooth="yes"/>
      <point x="611" y="-110"/>
      <point x="544" y="-168"/>
      <point x="361" y="-168" type="curve" smooth="yes"/>
      <point x="269" y="-168"/>
      <point x="170" y="-153"/>
      <point x="97" y="-122" type="curve"/>
      <point x="97" y="-208" type="line"/>
      <point x="170" y="-231"/>
      <point x="258" y="-245"/>
    </contour>
    <contour>
      <point x="387" y="68" type="curve" smooth="yes"/>
      <point x="231" y="68"/>
      <point x="155" y="138"/>
      <point x="155" y="268" type="curve" smooth="yes"/>
      <point x="155" y="396"/>
      <point x="228" y="469"/>
      <point x="390" y="469" type="curve" smooth="yes"/>
      <point x="545" y="469"/>
      <point x="614" y="410"/>
      <point x="614" y="267" type="curve" smooth="yes"/>
      <point x="614" y="247" type="line" smooth="yes"/>
      <point x="614" y="123"/>
      <point x="550" y="68"/>
    </contour>
  </outline>
</glyph>
<glyph name="uni0266" format="2">
  <advance width="800"/>
  <unicode hex="0266"/>
  <anchor x="400" y="0" name="bottom"/>
  <anchor x="194" y="760" name="top"/>
  <outline>
    <contour>
      <point x="97" y="0" type="line"/>
      <point x="194" y="0" type="line"/>
      <point x="194" y="275" type="line" smooth="yes"/>
      <point x="194" y="399"/>
      <point x="285" y="469"/>
      <point x="424" y="469" type="curve" smooth="yes"/>
      <point x="544" y="469"/>
      <point x="613" y="425"/>
      <point x="613" y="330" type="curve" smooth="yes"/>
      <point x="613" y="0" type="line"/>
      <point x="710" y="0" type="line"/>
      <point x="710" y="351" type="line" smooth="yes"/>
      <point x="710" y="487"/>
      <point x="608" y="547"/>
      <point x="447" y="547" type="curve" smooth="yes"/>
      <point x="319" y="547"/>
      <point x="235" y="518"/>
      <point x="195" y="453" type="curve"/>
      <point x="189" y="453" type="line"/>
      <point x="191" y="476"/>
      <point x="194" y="521"/>
      <point x="194" y="546" type="curve" smooth="yes"/>
      <point x="194" y="626" type="line" smooth="yes"/>
      <point x="194" y="668"/>
      <point x="223" y="684"/>
      <point x="280" y="684" type="curve" smooth="yes"/>
      <point x="311" y="684"/>
      <point x="340" y="678"/>
      <point x="360" y="674" type="curve"/>
      <point x="360" y="752" type="line"/>
      <point x="339" y="758"/>
      <point x="304" y="765"/>
      <point x="267" y="765" type="curve" smooth="yes"/>
      <point x="162" y="765"/>
      <point x="97" y="716"/>
      <point x="97" y="621" type="curve" smooth="yes"/>
    </contour>
  </outline>
</glyph>
<glyph name="uni026C" format="2">
  <advance width="800"/>
  <unicode hex="026C"/>
  <anchor x="400" y="0" name="bottom"/>
  <anchor x="418" y="760" name="top"/>
  <anchor x="644" y="760" name="topright"/>
  <anchor x="397" y="387" name="center"/>
  <outline>
    <contour>
      <point x="307" y="296" type="curve"/>
      <point x="610" y="296" type="line"/>
      <point x="610" y="369" type="line"/>
      <point x="472" y="369" type="line"/>
      <point x="378" y="490" type="line"/>
      <point x="359" y="502"/>
      <point x="328" y="507"/>
      <point x="286" y="507" type="curve" smooth="yes"/>
      <point x="198" y="507"/>
      <point x="153" y="456"/>
      <point x="153" y="402" type="curve" smooth="yes"/>
      <point x="153" y="341"/>
      <point x="205" y="296"/>
    </contour>
    <contour>
      <point x="315" y="369" type="line" smooth="yes"/>
      <point x="267" y="369"/>
      <point x="236" y="378"/>
      <point x="236" y="402" type="curve" smooth="yes"/>
      <point x="236" y="418"/>
      <point x="255" y="434"/>
      <point x="297" y="434" type="curve" smooth="yes"/>
      <point x="359" y="434"/>
      <point x="377" y="412"/>
      <point x="377" y="381" type="curve" smooth="yes"/>
      <point x="377" y="369" type="line"/>
    </contour>
    <component base="l" xOffset="-30"/>
  </outline>
</glyph>
<glyph name="uni0271" format="2">
  <advance width="800"/>
  <unicode hex="0271"/>
  <anchor x="652" y="-240" name="bottom"/>
  <anchor x="404" y="537" name="top"/>
  <outline>
    <contour>
      <point x="600" y="-240" type="curve" smooth="yes"/>
      <point x="703" y="-240"/>
      <point x="752" y="-186"/>
      <point x="752" y="-94" type="curve" smooth="yes"/>
      <point x="752" y="351" type="line" smooth="yes"/>
      <point x="752" y="485"/>
      <point x="704" y="547"/>
      <point x="596" y="547" type="curve" smooth="yes"/>
      <point x="510" y="547"/>
      <point x="465" y="519"/>
      <point x="434" y="469" type="curve"/>
      <point x="430" y="469" type="line"/>
      <point x="413" y="520"/>
      <point x="374" y="547"/>
      <point x="288" y="547" type="curve" smooth="yes"/>
      <point x="207" y="547"/>
      <point x="167" y="530"/>
      <point x="137" y="477" type="curve"/>
      <point x="131" y="477" type="line"/>
      <point x="118" y="537" type="line"/>
      <point x="51" y="537" type="line"/>
      <point x="51" y="0" type="line"/>
      <point x="138" y="0" type="line"/>
      <point x="138" y="275" type="line" smooth="yes"/>
      <point x="138" y="391"/>
      <point x="170" y="464"/>
      <point x="261" y="464" type="curve" smooth="yes"/>
      <point x="327" y="464"/>
      <point x="359" y="419"/>
      <point x="359" y="337" type="curve" smooth="yes"/>
      <point x="359" y="0" type="line"/>
      <point x="446" y="0" type="line"/>
      <point x="446" y="275" type="line" smooth="yes"/>
      <point x="446" y="400"/>
      <point x="492" y="464"/>
      <point x="571" y="464" type="curve" smooth="yes"/>
      <point x="638" y="464"/>
      <point x="665" y="418"/>
      <point x="665" y="337" type="curve" smooth="yes"/>
      <point x="665" y="-100" type="line" smooth="yes"/>
      <point x="665" y="-146"/>
      <point x="637" y="-162"/>
      <point x="586" y="-162" type="curve" smooth="yes"/>
      <point x="559" y="-162"/>
      <point x="536" y="-157"/>
      <point x="521" y="-153" type="curve"/>
      <point x="521" y="-229" type="line"/>
      <point x="540" y="-235"/>
      <point x="567" y="-240"/>
    </contour>
  </outline>
</glyph>
<glyph name="uni0276" format="2">
  <advance width="800"/>
  <unicode hex="0276"/>
  <anchor x="400" y="0" name="bottom"/>
  <anchor x="400" y="537" name="top"/>
  <outline>
    <contour>
      <point x="266" y="-10" type="curve" smooth="yes"/>
      <point x="352" y="-10"/>
      <point x="404" y="11"/>
      <point x="435" y="57" type="curve"/>
      <point x="435" y="0" type="line"/>
      <point x="762" y="0" type="line"/>
      <point x="762" y="72" type="line"/>
      <point x="508" y="72" type="line"/>
      <point x="508" y="244" type="line"/>
      <point x="745" y="244" type="line"/>
      <point x="745" y="317" type="line"/>
      <point x="508" y="317" type="line"/>
      <point x="508" y="467" type="line"/>
      <point x="762" y="467" type="line"/>
      <point x="762" y="538" type="line"/>
      <point x="435" y="538" type="line"/>
      <point x="435" y="483" type="line"/>
      <point x="401" y="533"/>
      <point x="350" y="548"/>
      <point x="268" y="548" type="curve" smooth="yes"/>
      <point x="107" y="548"/>
      <point x="30" y="442"/>
      <point x="30" y="273" type="curve" smooth="yes"/>
      <point x="30" y="101"/>
      <point x="109" y="-10"/>
    </contour>
    <contour>
      <point x="276" y="66" type="curve" smooth="yes"/>
      <point x="166" y="66"/>
      <point x="119" y="137"/>
      <point x="119" y="270" type="curve" smooth="yes"/>
      <point x="119" y="401"/>
      <point x="166" y="472"/>
      <point x="276" y="472" type="curve" smooth="yes"/>
      <point x="382" y="472"/>
      <point x="429" y="407"/>
      <point x="429" y="270" type="curve" smooth="yes"/>
      <point x="429" y="131"/>
      <point x="381" y="66"/>
    </contour>
  </outline>
</glyph>
<glyph name="omegaclosed" format="2">
  <advance width="800"/>
  <unicode hex="0277"/>
  <anchor x="399" y="0" name="bottom"/>
  <anchor x="400" y="537" name="top"/>
  <outline>
    <contour>
      <point x="236" y="-10" type="curve" smooth="yes"/>
      <point x="322" y="-10"/>
      <point x="376" y="22"/>
      <point x="398" y="81" type="curve"/>
      <point x="402" y="81" type="line"/>
      <point x="424" y="23"/>
      <point x="474" y="-10"/>
      <point x="562" y="-10" type="curve" smooth="yes"/>
      <point x="710" y="-10"/>
      <point x="775" y="85"/>
      <point x="775" y="228" type="curve" smooth="yes"/>
      <point x="775" y="424"/>
      <point x="640" y="548"/>
      <point x="402" y="548" type="curve" smooth="yes"/>
      <point x="159" y="548"/>
      <point x="25" y="422"/>
      <point x="25" y="228" type="curve" smooth="yes"/>
      <point x="25" y="85"/>
      <point x="102" y="-10"/>
    </contour>
    <contour>
      <point x="245" y="68" type="curve" smooth="yes"/>
      <point x="161" y="68"/>
      <point x="112" y="123"/>
      <point x="112" y="230" type="curve" smooth="yes"/>
      <point x="112" y="379"/>
      <point x="212" y="471"/>
      <point x="401" y="471" type="curve" smooth="yes"/>
      <point x="587" y="471"/>
      <point x="688" y="379"/>
      <point x="688" y="230" type="curve" smooth="yes"/>
      <point x="688" y="123"/>
      <point x="642" y="68"/>
      <point x="554" y="68" type="curve" smooth="yes"/>
      <point x="479" y="68"/>
      <point x="442" y="112"/>
      <point x="442" y="192" type="curve" smooth="yes"/>
      <point x="442" y="325" type="line"/>
      <point x="357" y="325" type="line"/>
      <point x="357" y="192" type="line" smooth="yes"/>
      <point x="357" y="120"/>
      <point x="321" y="68"/>
    </contour>
  </outline>
</glyph>
<glyph name="uni027A" format="2">
  <advance width="800"/>
  <unicode hex="027A"/>
  <anchor x="323" y="0" name="bottom"/>
  <anchor x="434" y="760" name="top"/>
  <outline>
    <contour>
      <point x="159" y="-10" type="curve" smooth="yes"/>
      <point x="275" y="-10"/>
      <point x="346" y="28"/>
      <point x="386" y="97" type="curve"/>
      <point x="391" y="97" type="line"/>
      <point x="402" y="0" type="line"/>
      <point x="696" y="0" type="line"/>
      <point x="696" y="67" type="line"/>
      <point x="481" y="80" type="line"/>
      <point x="481" y="760" type="line"/>
      <point x="385" y="760" type="line"/>
      <point x="385" y="270" type="line" smooth="yes"/>
      <point x="385" y="162"/>
      <point x="301" y="76"/>
      <point x="161" y="76" type="curve" smooth="yes"/>
      <point x="115" y="76"/>
      <point x="70" y="85"/>
      <point x="37" y="97" type="curve"/>
      <point x="12" y="11" type="line"/>
      <point x="51" y="-2"/>
      <point x="103" y="-10"/>
    </contour>
  </outline>
</glyph>
<glyph name="uni027B" format="2">
  <advance width="800"/>
  <unicode hex="027B"/>
  <anchor x="340" y="-240" name="bottom"/>
  <anchor x="454" y="537" name="top"/>
  <outline>
    <contour>
      <point x="588" y="-240" type="curve" smooth="yes"/>
      <point x="633" y="-240"/>
      <point x="671" y="-233"/>
      <point x="691" y="-224" type="curve"/>
      <point x="691" y="-151" type="line"/>
      <point x="675" y="-156"/>
      <point x="645" y="-162"/>
      <point x="608" y="-162" type="curve" smooth="yes"/>
      <point x="539" y="-162"/>
      <point x="499" y="-145"/>
      <point x="499" y="-69" type="curve" smooth="yes"/>
      <point x="499" y="537" type="line"/>
      <point x="401" y="537" type="line"/>
      <point x="401" y="271" type="line" smooth="yes"/>
      <point x="401" y="164"/>
      <point x="318" y="76"/>
      <point x="171" y="76" type="curve" smooth="yes"/>
      <point x="131" y="76"/>
      <point x="97" y="80"/>
      <point x="68" y="84" type="curve"/>
      <point x="53" y="-3" type="line"/>
      <point x="82" y="-8"/>
      <point x="124" y="-10"/>
      <point x="165" y="-10" type="curve" smooth="yes"/>
      <point x="300" y="-10"/>
      <point x="365" y="33"/>
      <point x="402" y="97" type="curve"/>
      <point x="406" y="97" type="line"/>
      <point x="404" y="79"/>
      <point x="401" y="38"/>
      <point x="401" y="15" type="curve" smooth="yes"/>
      <point x="401" y="-71" type="line" smooth="yes"/>
      <point x="401" y="-200"/>
      <point x="478" y="-240"/>
    </contour>
  </outline>
</glyph>
<glyph name="uni0282" format="2">
  <advance width="800"/>
  <unicode hex="0282"/>
  <anchor x="414" y="-291" name="bottom"/>
  <anchor x="400" y="537" name="top"/>
  <anchor x="771" y="537" name="topright"/>
  <outline>
    <contour>
      <point x="312" y="-240" type="curve" smooth="yes"/>
      <point x="357" y="-240"/>
      <point x="393" y="-231"/>
      <point x="413" y="-225" type="curve"/>
      <point x="413" y="-152" type="line"/>
      <point x="390" y="-158"/>
      <point x="361" y="-163"/>
      <point x="329" y="-163" type="curve" smooth="yes"/>
      <point x="255" y="-163"/>
      <point x="217" y="-135"/>
      <point x="217" y="-70" type="curve" smooth="yes"/>
      <point x="217" y="10" type="line"/>
      <point x="127" y="77" type="line"/>
      <point x="127" y="-73" type="line" smooth="yes"/>
      <point x="127" y="-202"/>
      <point x="200" y="-240"/>
    </contour>
    <component base="s" xOffset="-30"/>
  </outline>
</glyph>
<glyph name="eshsquatreversed" format="2">
  <advance width="800"/>
  <unicode hex="0285"/>
  <anchor x="514" y="-240" name="bottom"/>
  <anchor x="270" y="536" name="top"/>
  <outline>
    <contour>
      <point x="592" y="-240" type="curve" smooth="yes"/>
      <point x="652" y="-240"/>
      <point x="693" y="-233"/>
      <point x="714" y="-226" type="curve"/>
      <point x="714" y="-142" type="line"/>
      <point x="693" y="-149"/>
      <point x="654" y="-156"/>
      <point x="603" y="-156" type="curve" smooth="yes"/>
      <point x="508" y="-156"/>
      <point x="450" y="-116"/>
      <point x="450" y="-39" type="curve" smooth="yes"/>
      <point x="450" y="347" type="line" smooth="yes"/>
      <point x="450" y="479"/>
      <point x="353" y="546"/>
      <point x="207" y="546" type="curve" smooth="yes"/>
      <point x="153" y="546"/>
      <point x="117" y="540"/>
      <point x="92" y="533" type="curve"/>
      <point x="92" y="452" type="line"/>
      <point x="111" y="458"/>
      <point x="148" y="464"/>
      <point x="194" y="464" type="curve" smooth="yes"/>
      <point x="299" y="464"/>
      <point x="355" y="422"/>
      <point x="355" y="346" type="curve" smooth="yes"/>
      <point x="355" y="-40" type="line" smooth="yes"/>
      <point x="355" y="-168"/>
      <point x="453" y="-240"/>
    </contour>
  </outline>
</glyph>
<glyph name="eshcurl" format="2">
  <advance width="800"/>
  <unicode hex="0286"/>
  <anchor x="284" y="-240" name="bottom"/>
  <anchor x="564" y="765" name="top"/>
  <outline>
    <contour>
      <point x="271" y="-240" type="curve" smooth="yes"/>
      <point x="379" y="-240"/>
      <point x="449" y="-201"/>
      <point x="452" y="-73" type="curve"/>
      <point x="560" y="-73" type="line"/>
      <point x="560" y="1" type="line"/>
      <point x="452" y="1" type="line"/>
      <point x="452" y="565" type="line" smooth="yes"/>
      <point x="452" y="641"/>
      <point x="508" y="683"/>
      <point x="613" y="683" type="curve" smooth="yes"/>
      <point x="659" y="683"/>
      <point x="696" y="677"/>
      <point x="715" y="671" type="curve"/>
      <point x="715" y="752" type="line"/>
      <point x="691" y="759"/>
      <point x="654" y="765"/>
      <point x="601" y="765" type="curve" smooth="yes"/>
      <point x="454" y="765"/>
      <point x="357" y="698"/>
      <point x="357" y="566" type="curve" smooth="yes"/>
      <point x="357" y="1" type="line"/>
      <point x="286" y="1" type="line" smooth="yes"/>
      <point x="157" y="1"/>
      <point x="95" y="-48"/>
      <point x="95" y="-121" type="curve" smooth="yes"/>
      <point x="95" y="-191"/>
      <point x="165" y="-240"/>
    </contour>
    <contour>
      <point x="264" y="-166" type="curve" smooth="yes"/>
      <point x="208" y="-166"/>
      <point x="182" y="-145"/>
      <point x="182" y="-119" type="curve" smooth="yes"/>
      <point x="182" y="-84"/>
      <point x="223" y="-73"/>
      <point x="292" y="-73" type="curve" smooth="yes"/>
      <point x="357" y="-73" type="line"/>
      <point x="357" y="-88" type="line" smooth="yes"/>
      <point x="357" y="-144"/>
      <point x="321" y="-166"/>
    </contour>
  </outline>
</glyph>
<glyph name="uni028B" format="2">
  <advance width="800"/>
  <unicode hex="028B"/>
  <anchor x="399" y="0" name="bottom"/>
  <anchor x="399" y="537" name="top"/>
  <outline>
    <contour>
      <point x="399" y="-10" type="curve" smooth="yes"/>
      <point x="619" y="-10"/>
      <point x="715" y="75"/>
      <point x="715" y="232" type="curve" smooth="yes"/>
      <point x="715" y="380" type="line" smooth="yes"/>
      <point x="715" y="509"/>
      <point x="642" y="547"/>
      <point x="514" y="547" type="curve" smooth="yes"/>
      <point x="485" y="547"/>
      <point x="453" y="543"/>
      <point x="431" y="537" type="curve"/>
      <point x="431" y="456" type="line"/>
      <point x="452" y="462"/>
      <point x="476" y="465"/>
      <point x="504" y="465" type="curve" smooth="yes"/>
      <point x="584" y="465"/>
      <point x="620" y="446"/>
      <point x="620" y="376" type="curve" smooth="yes"/>
      <point x="620" y="235" type="line" smooth="yes"/>
      <point x="620" y="113"/>
      <point x="553" y="69"/>
      <point x="400" y="69" type="curve" smooth="yes"/>
      <point x="248" y="69"/>
      <point x="178" y="111"/>
      <point x="178" y="235" type="curve" smooth="yes"/>
      <point x="178" y="537" type="line"/>
      <point x="83" y="537" type="line"/>
      <point x="83" y="232" type="line" smooth="yes"/>
      <point x="83" y="69"/>
      <point x="178" y="-10"/>
    </contour>
  </outline>
</glyph>
<glyph name="uni028F" format="2">
  <advance width="800"/>
  <unicode hex="028F"/>
  <anchor x="400" y="0" name="bottom"/>
  <anchor x="400" y="537" name="top"/>
  <outline>
    <contour>
      <point x="354" y="0" type="line"/>
      <point x="447" y="0" type="line"/>
      <point x="447" y="217" type="line"/>
      <point x="768" y="537" type="line"/>
      <point x="657" y="537" type="line"/>
      <point x="401" y="300" type="line"/>
      <point x="144" y="537" type="line"/>
      <point x="33" y="537" type="line"/>
      <point x="354" y="217" type="line"/>
    </contour>
  </outline>
</glyph>
<glyph name="uni0290" format="2">
  <advance width="800"/>
  <unicode hex="0290"/>
  <anchor x="414" y="-240" name="bottom"/>
  <anchor x="400" y="537" name="top"/>
  <anchor x="771" y="537" name="topright"/>
  <outline>
    <contour>
      <point x="752" y="-240" type="curve" smooth="yes"/>
      <point x="787" y="-240"/>
      <point x="820" y="-233"/>
      <point x="839" y="-224" type="curve"/>
      <point x="839" y="-152" type="line"/>
      <point x="823" y="-157"/>
      <point x="793" y="-163"/>
      <point x="770" y="-163" type="curve" smooth="yes"/>
      <point x="716" y="-163"/>
      <point x="687" y="-146"/>
      <point x="687" y="-70" type="curve" smooth="yes"/>
      <point x="687" y="81" type="line"/>
      <point x="597" y="0" type="line"/>
      <point x="597" y="-72" type="line" smooth="yes"/>
      <point x="597" y="-203"/>
      <point x="659" y="-240"/>
    </contour>
    <component base="z" xOffset="-30"/>
  </outline>
</glyph>
<glyph name="uni0291" format="2">
  <advance width="800"/>
  <unicode hex="0291"/>
  <anchor x="376" y="-104" name="bottom"/>
  <anchor x="376" y="537" name="top"/>
  <outline>
    <contour>
      <point x="325" y="-87" type="line"/>
      <point x="341" y="-54"/>
      <point x="358" y="-25"/>
      <point x="375" y="0" type="curve"/>
      <point x="537" y="0" type="line"/>
      <point x="701" y="0"/>
      <point x="773" y="48"/>
      <point x="773" y="126" type="curve" smooth="yes"/>
      <point x="773" y="184"/>
      <point x="710" y="232"/>
      <point x="614" y="232" type="curve" smooth="yes"/>
      <point x="488" y="232"/>
      <point x="401" y="180"/>
      <point x="325" y="74" type="curve"/>
      <point x="187" y="74" type="line"/>
      <point x="625" y="468" type="line"/>
      <point x="625" y="537" type="line"/>
      <point x="107" y="537" type="line"/>
      <point x="107" y="464" type="line"/>
      <point x="517" y="464" type="line"/>
      <point x="77" y="62" type="line"/>
      <point x="77" y="0" type="line"/>
      <point x="290" y="0" type="line"/>
      <point x="277" y="-18"/>
      <point x="264" y="-38"/>
      <point x="252" y="-59" type="curve"/>
    </contour>
    <contour>
      <point x="411" y="74" type="line"/>
      <point x="466" y="134"/>
      <point x="529" y="162"/>
      <point x="606" y="162" type="curve" smooth="yes"/>
      <point x="659" y="162"/>
      <point x="686" y="143"/>
      <point x="686" y="125" type="curve" smooth="yes"/>
      <point x="686" y="96"/>
      <point x="650" y="74"/>
      <point x="541" y="74" type="curve" smooth="yes"/>
    </contour>
  </outline>
</glyph>
<glyph name="cstretched" format="2">
  <advance width="800"/>
  <unicode hex="0297"/>
  <anchor x="470" y="-239" name="bottom"/>
  <anchor x="457" y="537" name="top"/>
  <outline>
    <contour>
      <point x="483" y="-239" type="curve" smooth="yes"/>
      <point x="583" y="-239"/>
      <point x="647" y="-229"/>
      <point x="696" y="-209" type="curve"/>
      <point x="696" y="-124" type="line"/>
      <point x="645" y="-143"/>
      <point x="582" y="-158"/>
      <point x="488" y="-158" type="curve" smooth="yes"/>
      <point x="295" y="-158"/>
      <point x="185" y="-77"/>
      <point x="185" y="151" type="curve" smooth="yes"/>
      <point x="185" y="377"/>
      <point x="300" y="465"/>
      <point x="496" y="465" type="curve" smooth="yes"/>
      <point x="570" y="465"/>
      <point x="632" y="453"/>
      <point x="680" y="439" type="curve"/>
      <point x="708" y="517" type="line"/>
      <point x="663" y="534"/>
      <point x="591" y="547"/>
      <point x="496" y="547" type="curve" smooth="yes"/>
      <point x="261" y="547"/>
      <point x="91" y="450"/>
      <point x="91" y="149" type="curve" smooth="yes"/>
      <point x="91" y="-117"/>
      <point x="233" y="-239"/>
    </contour>
  </outline>
</glyph>
<glyph name="uni029F" format="2">
  <advance width="800"/>
  <unicode hex="029F"/>
  <anchor x="458" y="0" name="bottom"/>
  <anchor x="259" y="537" name="top"/>
  <outline>
    <contour>
      <point x="213" y="0" type="line"/>
      <point x="688" y="0" type="line"/>
      <point x="688" y="78" type="line"/>
      <point x="306" y="78" type="line"/>
      <point x="306" y="537" type="line"/>
      <point x="213" y="537" type="line"/>
    </contour>
  </outline>
</glyph>
<glyph name="uni02A1" format="2">
  <advance width="800"/>
  <unicode hex="02A1"/>
  <anchor x="349" y="0" name="bottom"/>
  <anchor x="399" y="765" name="top"/>
  <outline>
    <contour>
      <point x="122" y="151" type="line"/>
      <point x="577" y="151" type="line"/>
      <point x="577" y="228" type="line"/>
      <point x="122" y="228" type="line"/>
    </contour>
    <component base="uni0294" xOffset="-30"/>
  </outline>
</glyph>
<glyph name="uni02A7" format="2">
  <advance width="800"/>
  <unicode hex="02A7"/>
  <anchor x="400" y="-240" name="bottom"/>
  <anchor x="400" y="766" name="top"/>
  <outline>
    <contour>
      <point x="407" y="-240" type="curve" smooth="yes"/>
      <point x="539" y="-240"/>
      <point x="616" y="-200"/>
      <point x="616" y="-72" type="curve" smooth="yes"/>
      <point x="616" y="597" type="line"/>
      <point x="616" y="671"/>
      <point x="661" y="688"/>
      <point x="740" y="688" type="curve" smooth="yes"/>
      <point x="773" y="688"/>
      <point x="804" y="682"/>
      <point x="821" y="677" type="curve"/>
      <point x="821" y="750" type="line"/>
      <point x="802" y="759"/>
      <point x="766" y="766"/>
      <point x="725" y="766" type="curve" smooth="yes"/>
      <point x="601" y="766"/>
      <point x="520" y="729"/>
      <point x="520" y="599" type="curve" smooth="yes"/>
      <point x="520" y="538" type="line"/>
      <point x="239" y="538" type="line"/>
      <point x="239" y="660" type="line"/>
      <point x="176" y="660" type="line"/>
      <point x="144" y="546" type="line"/>
      <point x="16" y="510" type="line"/>
      <point x="16" y="464" type="line"/>
      <point x="144" y="464" type="line"/>
      <point x="144" y="158" type="line" smooth="yes"/>
      <point x="144" y="26"/>
      <point x="220" y="-10"/>
      <point x="375" y="-10" type="curve" smooth="yes"/>
      <point x="430" y="-10"/>
      <point x="483" y="-3"/>
      <point x="520" y="5" type="curve"/>
      <point x="520" y="-70" type="line" smooth="yes"/>
      <point x="520" y="-145"/>
      <point x="476" y="-162"/>
      <point x="392" y="-162" type="curve" smooth="yes"/>
      <point x="356" y="-162"/>
      <point x="324" y="-156"/>
      <point x="300" y="-151" type="curve"/>
      <point x="300" y="-224" type="line"/>
      <point x="324" y="-233"/>
      <point x="362" y="-240"/>
    </contour>
    <contour>
      <point x="393" y="68" type="curve" smooth="yes"/>
      <point x="283" y="68"/>
      <point x="239" y="98"/>
      <point x="239" y="161" type="curve" smooth="yes"/>
      <point x="239" y="464" type="line"/>
      <point x="520" y="464" type="line"/>
      <point x="520" y="79" type="line"/>
      <point x="484" y="73"/>
      <point x="439" y="68"/>
    </contour>
  </outline>
</glyph>
<glyph name="uni02A9" format="2">
  <advance width="800"/>
  <unicode hex="02A9"/>
  <anchor x="400" y="-240" name="bottom"/>
  <anchor x="400" y="766" name="top"/>
  <outline>
    <contour>
      <point x="605" y="-240" type="curve" smooth="yes"/>
      <point x="700" y="-240"/>
      <point x="759" y="-178"/>
      <point x="759" y="-78" type="curve" smooth="yes"/>
      <point x="759" y="374" type="line" smooth="yes"/>
      <point x="759" y="499"/>
      <point x="687" y="548"/>
      <point x="562" y="548" type="curve" smooth="yes"/>
      <point x="468" y="548"/>
      <point x="410" y="520"/>
      <point x="388" y="472" type="curve"/>
      <point x="383" y="472" type="line"/>
      <point x="373" y="538" type="line"/>
      <point x="151" y="538" type="line"/>
      <point x="151" y="610" type="line" smooth="yes"/>
      <point x="151" y="663"/>
      <point x="187" y="691"/>
      <point x="264" y="691" type="curve" smooth="yes"/>
      <point x="297" y="691"/>
      <point x="327" y="685"/>
      <point x="350" y="678" type="curve"/>
      <point x="371" y="750" type="line"/>
      <point x="343" y="759"/>
      <point x="310" y="766"/>
      <point x="263" y="766" type="curve" smooth="yes"/>
      <point x="143" y="766"/>
      <point x="64" y="718"/>
      <point x="64" y="620" type="curve" smooth="yes"/>
      <point x="64" y="541" type="line"/>
      <point x="-33" y="511" type="line"/>
      <point x="-33" y="467" type="line"/>
      <point x="64" y="467" type="line"/>
      <point x="64" y="0" type="line"/>
      <point x="151" y="0" type="line"/>
      <point x="151" y="467" type="line"/>
      <point x="305" y="467" type="line"/>
      <point x="305" y="0" type="line"/>
      <point x="390" y="0" type="line"/>
      <point x="390" y="312" type="line" smooth="yes"/>
      <point x="390" y="404"/>
      <point x="436" y="471"/>
      <point x="544" y="471" type="curve" smooth="yes"/>
      <point x="626" y="471"/>
      <point x="673" y="445"/>
      <point x="673" y="366" type="curve" smooth="yes"/>
      <point x="673" y="-80" type="line" smooth="yes"/>
      <point x="673" y="-145"/>
      <point x="636" y="-164"/>
      <point x="591" y="-164" type="curve" smooth="yes"/>
      <point x="568" y="-164"/>
      <point x="549" y="-160"/>
      <point x="529" y="-154" type="curve"/>
      <point x="529" y="-228" type="line"/>
      <point x="548" y="-235"/>
      <point x="574" y="-240"/>
    </contour>
  </outline>
</glyph>
<glyph name="uni02AD" format="2">
  <advance width="800"/>
  <unicode hex="02AD"/>
  <anchor x="399" y="0" name="bottom"/>
  <anchor x="399" y="714" name="top"/>
  <outline>
    <contour>
      <point x="90" y="479" type="line"/>
      <point x="182" y="479" type="line"/>
      <point x="182" y="628" type="line"/>
      <point x="604" y="628" type="line"/>
      <point x="604" y="479" type="line"/>
      <point x="696" y="479" type="line"/>
      <point x="696" y="714" type="line"/>
      <point x="90" y="714" type="line"/>
    </contour>
    <contour>
      <point x="90" y="0" type="line"/>
      <point x="182" y="0" type="line"/>
      <point x="182" y="149" type="line"/>
      <point x="604" y="149" type="line"/>
      <point x="604" y="0" type="line"/>
      <point x="696" y="0" type="line"/>
      <point x="696" y="235" type="line"/>
      <point x="90" y="235" type="line"/>
    </contour>
  </outline>
</glyph>
<glyph name="uni02AF" format="2">
  <advance width="800"/>
  <unicode hex="02AF"/>
  <anchor x="392" y="-240" name="bottom"/>
  <anchor x="392" y="537" name="top"/>
  <outline>
    <contour>
      <point x="789" y="-240" type="curve" smooth="yes"/>
      <point x="830" y="-240"/>
      <point x="864" y="-232"/>
      <point x="883" y="-226" type="curve"/>
      <point x="883" y="-152" type="line"/>
      <point x="868" y="-156"/>
      <point x="844" y="-162"/>
      <point x="809" y="-162" type="curve" smooth="yes"/>
      <point x="751" y="-162"/>
      <point x="709" y="-144"/>
      <point x="709" y="-69" type="curve" smooth="yes"/>
      <point x="709" y="537" type="line"/>
      <point x="613" y="537" type="line"/>
      <point x="613" y="262" type="line" smooth="yes"/>
      <point x="613" y="137"/>
      <point x="522" y="68"/>
      <point x="382" y="68" type="curve" smooth="yes"/>
      <point x="262" y="68"/>
      <point x="193" y="112"/>
      <point x="193" y="207" type="curve" smooth="yes"/>
      <point x="193" y="408" type="line" smooth="yes"/>
      <point x="193" y="509"/>
      <point x="120" y="547"/>
      <point x="23" y="547" type="curve" smooth="yes"/>
      <point x="-17" y="547"/>
      <point x="-43" y="542"/>
      <point x="-62" y="536" type="curve"/>
      <point x="-62" y="459" type="line"/>
      <point x="-46" y="463"/>
      <point x="-26" y="467"/>
      <point x="1" y="467" type="curve" smooth="yes"/>
      <point x="61" y="467"/>
      <point x="96" y="451"/>
      <point x="96" y="404" type="curve" smooth="yes"/>
      <point x="96" y="186" type="line" smooth="yes"/>
      <point x="96" y="50"/>
      <point x="199" y="-11"/>
      <point x="359" y="-11" type="curve" smooth="yes"/>
      <point x="487" y="-11"/>
      <point x="571" y="19"/>
      <point x="612" y="84" type="curve"/>
      <point x="617" y="84" type="line"/>
      <point x="616" y="60"/>
      <point x="613" y="14"/>
      <point x="613" y="-12" type="curve" smooth="yes"/>
      <point x="613" y="-73" type="line" smooth="yes"/>
      <point x="613" y="-198"/>
      <point x="683" y="-240"/>
    </contour>
  </outline>
</glyph>
<glyph name="uni02BF" format="2">
  <advance width="800"/>
  <unicode hex="02BF"/>
  <outline>
    <contour>
      <point x="479" y="575" type="curve"/>
      <point x="479" y="629" type="line"/>
      <point x="416" y="629"/>
      <point x="381" y="648"/>
      <point x="381" y="682" type="curve" smooth="yes"/>
      <point x="381" y="716"/>
      <point x="423" y="736"/>
      <point x="479" y="736" type="curve"/>
      <point x="479" y="788" type="line"/>
      <point x="385" y="788"/>
      <point x="321" y="749"/>
      <point x="321" y="682" type="curve" smooth="yes"/>
      <point x="321" y="615"/>
      <point x="385" y="575"/>
    </contour>
  </outline>
</glyph>
<glyph name="uni02C4" format="2">
  <advance width="800"/>
  <unicode hex="02C4"/>
  <outline>
    <contour>
      <point x="225" y="546" type="line"/>
      <point x="275" y="546" type="line"/>
      <point x="399" y="731" type="line"/>
      <point x="524" y="546" type="line"/>
      <point x="575" y="546" type="line"/>
      <point x="414" y="781" type="line"/>
      <point x="384" y="781" type="line"/>
    </contour>
  </outline>
</glyph>
<glyph name="circumflex" format="2">
  <advance width="800"/>
  <unicode hex="02C6"/>
  <outline>
    <contour>
      <point x="179" y="606" type="line"/>
      <point x="245" y="606" type="line"/>
      <point x="296" y="628"/>
      <point x="350" y="665"/>
      <point x="396" y="701" type="curve"/>
      <point x="443" y="665"/>
      <point x="497" y="627"/>
      <point x="547" y="606" type="curve"/>
      <point x="615" y="606" type="line"/>
      <point x="615" y="617" type="line"/>
      <point x="561" y="656"/>
      <point x="479" y="721"/>
      <point x="444" y="766" type="curve"/>
      <point x="350" y="766" type="line"/>
      <point x="314" y="721"/>
      <point x="232" y="656"/>
      <point x="179" y="617" type="curve"/>
    </contour>
  </outline>
</glyph>
<glyph name="uni02D7" format="2">
  <advance width="800"/>
  <unicode hex="02D7"/>
  <outline>
    <contour>
      <point x="210" y="343" type="line"/>
      <point x="210" y="283" type="line"/>
      <point x="590" y="283" type="line"/>
      <point x="590" y="343" type="line"/>
    </contour>
  </outline>
</glyph>
<glyph name="dotaccent" format="2">
  <advance width="800"/>
  <unicode hex="02D9"/>
  <outline>
    <contour>
      <point x="400" y="630" type="curve" smooth="yes"/>
      <point x="447" y="630"/>
      <point x="473" y="652"/>
      <point x="473" y="696" type="curve" smooth="yes"/>
      <point x="473" y="740"/>
      <point x="445" y="761"/>
      <point x="400" y="761" type="curve" smooth="yes"/>
      <point x="352" y="761"/>
      <point x="325" y="740"/>
      <point x="325" y="696" type="curve" smooth="yes"/>
      <point x="325" y="652"/>
      <point x="353" y="630"/>
    </contour>
  </outline>
</glyph>
<glyph name="ring" format="2">
  <advance width="800"/>
  <unicode hex="02DA"/>
  <outline>
    <contour>
      <point x="398" y="606" type="curve" smooth="yes"/>
      <point x="486" y="606"/>
      <point x="552" y="646"/>
      <point x="552" y="714" type="curve" smooth="yes"/>
      <point x="552" y="780"/>
      <point x="486" y="820"/>
      <point x="398" y="820" type="curve" smooth="yes"/>
      <point x="310" y="820"/>
      <point x="246" y="780"/>
      <point x="246" y="713" type="curve" smooth="yes"/>
      <point x="246" y="646"/>
      <point x="311" y="606"/>
    </contour>
    <contour>
      <point x="398" y="660" type="curve" smooth="yes"/>
      <point x="346" y="660"/>
      <point x="309" y="680"/>
      <point x="309" y="713" type="curve" smooth="yes"/>
      <point x="309" y="746"/>
      <point x="346" y="766"/>
      <point x="399" y="766" type="curve" smooth="yes"/>
      <point x="452" y="766"/>
      <point x="489" y="746"/>
      <point x="489" y="713" type="curve" smooth="yes"/>
      <point x="489" y="680"/>
      <point x="452" y="660"/>
    </contour>
  </outline>
</glyph>
<glyph name="ogonek" format="2">
  <advance width="800"/>
  <unicode hex="02DB"/>
  <outline>
    <contour>
      <point x="431" y="-222" type="curve" smooth="yes"/>
      <point x="464" y="-222"/>
      <point x="491" y="-217"/>
      <point x="513" y="-212" type="curve"/>
      <point x="513" y="-152" type="line"/>
      <point x="497" y="-156"/>
      <point x="472" y="-159"/>
      <point x="449" y="-159" type="curve" smooth="yes"/>
      <point x="398" y="-159"/>
      <point x="372" y="-147"/>
      <point x="372" y="-113" type="curve" smooth="yes"/>
      <point x="372" y="-74"/>
      <point x="419" y="-42"/>
      <point x="484" y="0" type="curve"/>
      <point x="431" y="15" type="line"/>
      <point x="352" y="-16"/>
      <point x="293" y="-66"/>
      <point x="293" y="-131" type="curve" smooth="yes"/>
      <point x="293" y="-184"/>
      <point x="343" y="-222"/>
    </contour>
  </outline>
</glyph>
<glyph name="rhotichookmod" format="2">
  <advance width="800"/>
  <unicode hex="02DE"/>
  <outline>
    <contour>
      <point x="344" y="190" type="curve" smooth="yes"/>
      <point x="395" y="190"/>
      <point x="442" y="206"/>
      <point x="485" y="228" type="curve"/>
      <point x="462" y="297" type="line"/>
      <point x="432" y="281"/>
      <point x="395" y="270"/>
      <point x="359" y="270" type="curve" smooth="yes"/>
      <point x="303" y="270"/>
      <point x="278" y="288"/>
      <point x="254" y="348" type="curve" smooth="yes"/>
      <point x="230" y="408" type="line"/>
      <point x="-196" y="334" type="line"/>
      <point x="-178" y="263" type="line"/>
      <point x="166" y="315" type="line"/>
      <point x="200" y="222"/>
      <point x="246" y="190"/>
    </contour>
  </outline>
</glyph>
<glyph name="uni02F0" format="2">
  <advance width="800"/>
  <unicode hex="02F0"/>
  <outline>
    <contour>
      <point x="180" y="-240" type="line"/>
      <point x="261" y="-240" type="line"/>
      <point x="400" y="-108" type="line"/>
      <point x="537" y="-240" type="line"/>
      <point x="620" y="-240" type="line"/>
      <point x="426" y="-20" type="line"/>
      <point x="374" y="-20" type="line"/>
    </contour>
  </outline>
</glyph>
<glyph name="uni02F1" format="2">
  <advance width="800"/>
  <unicode hex="02F1"/>
  <outline>
    <contour>
      <point x="564" y="-240" type="line"/>
      <point x="564" y="-171" type="line"/>
      <point x="331" y="-108" type="line"/>
      <point x="564" y="-46" type="line"/>
      <point x="566" y="23" type="line"/>
      <point x="234" y="-84" type="line"/>
      <point x="234" y="-133" type="line"/>
    </contour>
  </outline>
</glyph>
<glyph name="uni02FC" format="2">
  <advance width="800"/>
  <unicode hex="02FC"/>
  <outline>
    <contour>
      <point x="281" y="0" type="line"/>
      <point x="519" y="0" type="line"/>
      <point x="519" y="266" type="line"/>
      <point x="443" y="266" type="line"/>
      <point x="443" y="53" type="line"/>
      <point x="281" y="53" type="line"/>
    </contour>
  </outline>
</glyph>
<glyph name="uni02FE" format="2">
  <advance width="800"/>
  <unicode hex="02FE"/>
  <outline>
    <contour>
      <point x="128" y="-208" type="line"/>
      <point x="673" y="-208" type="line"/>
      <point x="673" y="-142" type="line"/>
      <point x="199" y="-142" type="line"/>
      <point x="199" y="-43" type="line"/>
      <point x="128" y="-43" type="line"/>
    </contour>
  </outline>
</glyph>
<glyph name="uni02FF" format="2">
  <advance width="800"/>
  <unicode hex="02FF"/>
  <outline>
    <contour>
      <point x="420" y="-240" type="line"/>
      <point x="420" y="-181" type="line"/>
      <point x="230" y="-112" type="line"/>
      <point x="706" y="-112" type="line"/>
      <point x="706" y="-52" type="line"/>
      <point x="230" y="-52" type="line"/>
      <point x="420" y="16" type="line"/>
      <point x="420" y="75" type="line"/>
      <point x="94" y="-58" type="line"/>
      <point x="94" y="-107" type="line"/>
    </contour>
  </outline>
</glyph>
<glyph name="dblgravecomb" format="2">
  <unicode hex="030F"/>
  <anchor x="0" y="537" name="_top"/>
  <anchor x="0" y="766" name="top"/>
  <outline>
    <contour>
      <point x="142" y="606" type="curve"/>
      <point x="200" y="606" type="line"/>
      <point x="200" y="618" type="line"/>
      <point x="155" y="656"/>
      <point x="94" y="721"/>
      <point x="63" y="766" type="curve"/>
      <point x="-41" y="766" type="line"/>
      <point x="-41" y="756" type="line"/>
      <point x="-6" y="721"/>
      <point x="79" y="642"/>
    </contour>
    <contour>
      <point x="-103" y="606" type="curve"/>
      <point x="-45" y="606" type="line"/>
      <point x="-45" y="618" type="line"/>
      <point x="-90" y="656"/>
      <point x="-151" y="721"/>
      <point x="-182" y="766" type="curve"/>
      <point x="-286" y="766" type="line"/>
      <point x="-286" y="756" type="line"/>
      <point x="-251" y="721"/>
      <point x="-166" y="642"/>
    </contour>
  </outline>
</glyph>
<glyph name="horncomb" format="2">
  <unicode hex="031B"/>
  <outline>
    <contour>
      <point x="-66" y="469" type="line"/>
      <point x="42" y="513"/>
      <point x="91" y="567"/>
      <point x="91" y="643" type="curve" smooth="yes"/>
      <point x="91" y="668"/>
      <point x="84" y="696"/>
      <point x="68" y="734" type="curve"/>
      <point x="51" y="742" type="line"/>
      <point x="-21" y="708" type="line"/>
      <point x="-1" y="673"/>
      <point x="5" y="653"/>
      <point x="5" y="629" type="curve" smooth="yes"/>
      <point x="5" y="570"/>
      <point x="-29" y="545"/>
      <point x="-92" y="524" type="curve"/>
    </contour>
  </outline>
</glyph>
<glyph name="dblarchinvertedbelowcomb" format="2">
  <unicode hex="032B"/>
  <anchor x="0" y="0" name="_bottom"/>
  <anchor x="0" y="-177" name="bottom"/>
  <outline>
    <contour>
      <point x="-112" y="-177" type="curve" smooth="yes"/>
      <point x="-60" y="-177"/>
      <point x="-21" y="-165"/>
      <point x="-1" y="-142" type="curve"/>
      <point x="21" y="-165"/>
      <point x="58" y="-177"/>
      <point x="113" y="-177" type="curve" smooth="yes"/>
      <point x="195" y="-177"/>
      <point x="257" y="-139"/>
      <point x="257" y="-61" type="curve"/>
      <point x="194" y="-61" type="line"/>
      <point x="194" y="-106"/>
      <point x="160" y="-127"/>
      <point x="112" y="-127" type="curve" smooth="yes"/>
      <point x="59" y="-127"/>
      <point x="29" y="-106"/>
      <point x="29" y="-61" type="curve"/>
      <point x="-32" y="-61" type="line"/>
      <point x="-32" y="-106"/>
      <point x="-65" y="-127"/>
      <point x="-114" y="-127" type="curve" smooth="yes"/>
      <point x="-166" y="-127"/>
      <point x="-194" y="-106"/>
      <point x="-194" y="-61" type="curve"/>
      <point x="-257" y="-61" type="line"/>
      <point x="-257" y="-138"/>
      <point x="-197" y="-177"/>
    </contour>
  </outline>
</glyph>
<glyph name="ringhalfrightbelowcomb" format="2">
  <unicode hex="0339"/>
  <anchor x="0" y="0" name="_bottom"/>
  <anchor x="0" y="-227" name="bottom"/>
  <outline>
    <contour>
      <point x="-79" y="-227" type="line"/>
      <point x="15" y="-227"/>
      <point x="79" y="-187"/>
      <point x="79" y="-121" type="curve" smooth="yes"/>
      <point x="79" y="-54"/>
      <point x="15" y="-14"/>
      <point x="-79" y="-14" type="curve"/>
      <point x="-79" y="-67" type="line"/>
      <point x="-22" y="-67"/>
      <point x="20" y="-87"/>
      <point x="20" y="-121" type="curve" smooth="yes"/>
      <point x="20" y="-155"/>
      <point x="-17" y="-174"/>
      <point x="-79" y="-174" type="curve"/>
    </contour>
  </outline>
</glyph>
<glyph name="bridgeinvertedbelowcomb" format="2">
  <unicode hex="033A"/>
  <anchor x="0" y="0" name="_bottom"/>
  <anchor x="0" y="-218" name="bottom"/>
  <outline>
    <contour>
      <point x="-252" y="-218" type="line"/>
      <point x="252" y="-218" type="line"/>
      <point x="252" y="-48" type="line"/>
      <point x="177" y="-48" type="line"/>
      <point x="177" y="-158" type="line"/>
      <point x="-177" y="-158" type="line"/>
      <point x="-177" y="-48" type="line"/>
      <point x="-252" y="-48" type="line"/>
    </contour>
  </outline>
</glyph>
<glyph name="seagullbelowcomb" format="2">
  <unicode hex="033C"/>
  <anchor x="0" y="0" name="_bottom"/>
  <anchor x="0" y="-177" name="bottom"/>
  <outline>
    <contour>
      <point x="-257" y="-177" type="curve"/>
      <point x="-194" y="-177" type="line"/>
      <point x="-194" y="-132"/>
      <point x="-160" y="-111"/>
      <point x="-112" y="-111" type="curve" smooth="yes"/>
      <point x="-59" y="-111"/>
      <point x="-29" y="-132"/>
      <point x="-29" y="-177" type="curve"/>
      <point x="31" y="-177" type="line"/>
      <point x="31" y="-132"/>
      <point x="65" y="-111"/>
      <point x="113" y="-111" type="curve" smooth="yes"/>
      <point x="166" y="-111"/>
      <point x="194" y="-132"/>
      <point x="194" y="-177" type="curve"/>
      <point x="257" y="-177" type="line"/>
      <point x="257" y="-100"/>
      <point x="197" y="-61"/>
      <point x="112" y="-61" type="curve" smooth="yes"/>
      <point x="60" y="-61"/>
      <point x="21" y="-73"/>
      <point x="1" y="-96" type="curve"/>
      <point x="-21" y="-73"/>
      <point x="-58" y="-61"/>
      <point x="-113" y="-61" type="curve" smooth="yes"/>
      <point x="-195" y="-61"/>
      <point x="-257" y="-99"/>
    </contour>
  </outline>
</glyph>
<glyph name="tildeverticalcomb" format="2">
  <unicode hex="033E"/>
  <anchor x="0" y="537" name="_top"/>
  <anchor x="0" y="866" name="top"/>
  <outline>
    <contour>
      <point x="-86" y="576" type="line"/>
      <point x="21" y="576"/>
      <point x="86" y="612"/>
      <point x="86" y="659" type="curve" smooth="yes"/>
      <point x="86" y="711"/>
      <point x="-15" y="752"/>
      <point x="-15" y="780" type="curve" smooth="yes"/>
      <point x="-15" y="798"/>
      <point x="16" y="816"/>
      <point x="86" y="816" type="curve"/>
      <point x="86" y="866" type="line"/>
      <point x="-24" y="866"/>
      <point x="-86" y="831"/>
      <point x="-86" y="784" type="curve" smooth="yes"/>
      <point x="-86" y="735"/>
      <point x="15" y="695"/>
      <point x="15" y="662" type="curve" smooth="yes"/>
      <point x="15" y="644"/>
      <point x="-13" y="627"/>
      <point x="-86" y="627" type="curve"/>
    </contour>
  </outline>
</glyph>
<glyph name="almostequaltoabovecomb" format="2">
  <unicode hex="034C"/>
  <anchor x="0" y="537" name="_top"/>
  <anchor x="0" y="860" name="top"/>
  <outline>
    <contour>
      <point x="102" y="746" type="curve" smooth="yes"/>
      <point x="181" y="746"/>
      <point x="231" y="792"/>
      <point x="244" y="860" type="curve"/>
      <point x="183" y="860" type="line"/>
      <point x="169" y="830"/>
      <point x="145" y="812"/>
      <point x="103" y="812" type="curve" smooth="yes"/>
      <point x="43" y="812"/>
      <point x="-21" y="859"/>
      <point x="-104" y="859" type="curve" smooth="yes"/>
      <point x="-186" y="859"/>
      <point x="-230" y="815"/>
      <point x="-244" y="747" type="curve"/>
      <point x="-184" y="747" type="line"/>
      <point x="-169" y="776"/>
      <point x="-148" y="793"/>
      <point x="-106" y="793" type="curve" smooth="yes"/>
      <point x="-41" y="793"/>
      <point x="20" y="746"/>
    </contour>
    <contour>
      <point x="102" y="606" type="curve" smooth="yes"/>
      <point x="181" y="606"/>
      <point x="231" y="652"/>
      <point x="244" y="720" type="curve"/>
      <point x="183" y="720" type="line"/>
      <point x="169" y="690"/>
      <point x="145" y="672"/>
      <point x="103" y="672" type="curve" smooth="yes"/>
      <point x="43" y="672"/>
      <point x="-21" y="719"/>
      <point x="-104" y="719" type="curve" smooth="yes"/>
      <point x="-184" y="719"/>
      <point x="-231" y="675"/>
      <point x="-244" y="607" type="curve"/>
      <point x="-184" y="607" type="line"/>
      <point x="-169" y="636"/>
      <point x="-146" y="653"/>
      <point x="-106" y="653" type="curve" smooth="yes"/>
      <point x="-41" y="653"/>
      <point x="20" y="606"/>
    </contour>
  </outline>
</glyph>
<glyph name="fermatacomb" format="2">
  <unicode hex="0352"/>
  <anchor x="0" y="537" name="_top"/>
  <anchor x="0" y="842" name="top"/>
  <outline>
    <contour>
      <point x="-206" y="703" type="curve"/>
      <point x="-143" y="703" type="line"/>
      <point x="-134" y="755"/>
      <point x="-82" y="769"/>
      <point x="1" y="769" type="curve" smooth="yes"/>
      <point x="88" y="769"/>
      <point x="136" y="759"/>
      <point x="144" y="703" type="curve"/>
      <point x="206" y="703" type="line"/>
      <point x="198" y="788"/>
      <point x="130" y="842"/>
      <point x="3" y="842" type="curve"/>
      <point x="-123" y="842"/>
      <point x="-195" y="786"/>
    </contour>
    <contour>
      <point x="3" y="606" type="curve" smooth="yes"/>
      <point x="39" y="606"/>
      <point x="62" y="624"/>
      <point x="62" y="663" type="curve" smooth="yes"/>
      <point x="62" y="702"/>
      <point x="39" y="719"/>
      <point x="3" y="719" type="curve" smooth="yes"/>
      <point x="-38" y="719"/>
      <point x="-59" y="702"/>
      <point x="-59" y="663" type="curve" smooth="yes"/>
      <point x="-59" y="624"/>
      <point x="-38" y="606"/>
    </contour>
  </outline>
</glyph>
<glyph name="arrowheadleftbelowcomb" format="2">
  <unicode hex="0354"/>
  <anchor x="0" y="0" name="_bottom"/>
  <anchor x="0" y="-240" name="bottom"/>
  <outline>
    <contour>
      <point x="102" y="-240" type="curve"/>
      <point x="115" y="-240" type="line"/>
      <point x="115" y="-190" type="line"/>
      <point x="74" y="-173"/>
      <point x="21" y="-158"/>
      <point x="-32" y="-140" type="curve"/>
      <point x="19" y="-122"/>
      <point x="75" y="-107"/>
      <point x="115" y="-91" type="curve"/>
      <point x="115" y="-40" type="line"/>
      <point x="102" y="-40" type="line"/>
      <point x="45" y="-61"/>
      <point x="-53" y="-93"/>
      <point x="-116" y="-105" type="curve"/>
      <point x="-116" y="-173" type="line"/>
      <point x="-53" y="-187"/>
      <point x="46" y="-220"/>
    </contour>
  </outline>
</glyph>
<glyph name="doubleringbelowcomb" format="2">
  <unicode hex="035A"/>
  <anchor x="0" y="0" name="_bottom"/>
  <anchor x="0" y="-240" name="bottom"/>
  <outline>
    <contour>
      <point x="-122" y="-240" type="curve" smooth="yes"/>
      <point x="-66" y="-240"/>
      <point x="-24" y="-226"/>
      <point x="0" y="-200" type="curve"/>
      <point x="23" y="-226"/>
      <point x="64" y="-240"/>
      <point x="119" y="-240" type="curve" smooth="yes"/>
      <point x="212" y="-240"/>
      <point x="273" y="-201"/>
      <point x="273" y="-134" type="curve" smooth="yes"/>
      <point x="273" y="-68"/>
      <point x="211" y="-29"/>
      <point x="119" y="-29" type="curve" smooth="yes"/>
      <point x="65" y="-29"/>
      <point x="22" y="-43"/>
      <point x="0" y="-68" type="curve"/>
      <point x="-24" y="-43"/>
      <point x="-66" y="-29"/>
      <point x="-122" y="-29" type="curve" smooth="yes"/>
      <point x="-213" y="-29"/>
      <point x="-275" y="-68"/>
      <point x="-275" y="-134" type="curve" smooth="yes"/>
      <point x="-275" y="-201"/>
      <point x="-214" y="-240"/>
    </contour>
    <contour>
      <point x="-121" y="-190" type="curve" smooth="yes"/>
      <point x="-176" y="-190"/>
      <point x="-212" y="-169"/>
      <point x="-212" y="-134" type="curve" smooth="yes"/>
      <point x="-212" y="-99"/>
      <point x="-175" y="-78"/>
      <point x="-121" y="-78" type="curve" smooth="yes"/>
      <point x="-69" y="-78"/>
      <point x="-30" y="-99"/>
      <point x="-30" y="-134" type="curve" smooth="yes"/>
      <point x="-30" y="-169"/>
      <point x="-66" y="-190"/>
    </contour>
    <contour>
      <point x="120" y="-190" type="curve" smooth="yes"/>
      <point x="65" y="-190"/>
      <point x="29" y="-169"/>
      <point x="29" y="-134" type="curve" smooth="yes"/>
      <point x="29" y="-99"/>
      <point x="66" y="-78"/>
      <point x="120" y="-78" type="curve" smooth="yes"/>
      <point x="173" y="-78"/>
      <point x="211" y="-99"/>
      <point x="211" y="-134" type="curve" smooth="yes"/>
      <point x="211" y="-169"/>
      <point x="177" y="-190"/>
    </contour>
  </outline>
</glyph>
<glyph name="arrowdoublerightbelowcomb" format="2">
  <unicode hex="0362"/>
  <anchor x="0" y="0" name="_bottom"/>
  <anchor x="0" y="-221" name="bottom"/>
  <outline>
    <contour>
      <point x="389" y="-221" type="line"/>
      <point x="541" y="-127" type="line"/>
      <point x="389" y="-33" type="line"/>
      <point x="389" y="-96" type="line"/>
      <point x="-543" y="-96" type="line"/>
      <point x="-543" y="-158" type="line"/>
      <point x="389" y="-158" type="line"/>
    </contour>
  </outline>
</glyph>
<glyph name="Heta" format="2">
  <advance width="800"/>
  <unicode hex="0370"/>
  <anchor x="408" y="0" name="bottom"/>
  <anchor x="408" y="714" name="top"/>
  <outline>
    <contour>
      <point x="196" y="0" type="line"/>
      <point x="294" y="0" type="line"/>
      <point x="294" y="331" type="line"/>
      <point x="602" y="331" type="line"/>
      <point x="602" y="415" type="line"/>
      <point x="294" y="415" type="line"/>
      <point x="294" y="714" type="line"/>
      <point x="196" y="714" type="line"/>
    </contour>
  </outline>
</glyph>
<glyph name="archaicsampi" format="2">
  <advance width="800"/>
  <unicode hex="0373"/>
  <anchor x="399" y="0" name="bottom"/>
  <anchor x="400" y="357" name="center"/>
  <anchor x="400" y="760" name="top"/>
  <outline>
    <contour>
      <point x="352" y="0" type="line"/>
      <point x="449" y="0" type="line"/>
      <point x="449" y="674" type="line"/>
      <point x="765" y="674" type="line"/>
      <point x="765" y="760" type="line"/>
      <point x="36" y="760" type="line"/>
      <point x="36" y="674" type="line"/>
      <point x="352" y="674" type="line"/>
    </contour>
    <contour>
      <point x="36" y="451" type="line"/>
      <point x="117" y="451" type="line"/>
      <point x="117" y="760" type="line"/>
      <point x="36" y="760" type="line"/>
    </contour>
    <contour>
      <point x="684" y="451" type="line"/>
      <point x="765" y="451" type="line"/>
      <point x="765" y="760" type="line"/>
      <point x="684" y="760" type="line"/>
    </contour>
  </outline>
</glyph>
<glyph name="uni0375" format="2">
  <advance width="800"/>
  <unicode hex="0375"/>
  <outline>
    <contour>
      <point x="280" y="-220" type="line"/>
      <point x="393" y="-220" type="line"/>
      <point x="421" y="-174"/>
      <point x="472" y="-117"/>
      <point x="520" y="-73" type="curve"/>
      <point x="520" y="-60" type="line"/>
      <point x="456" y="-60" type="line"/>
      <point x="390" y="-96"/>
      <point x="322" y="-159"/>
      <point x="280" y="-210" type="curve"/>
    </contour>
  </outline>
</glyph>
<glyph name="tonos" format="2">
  <advance width="800"/>
  <unicode hex="0384"/>
  <anchor x="388" y="537" name="_top"/>
  <anchor x="401" y="760" name="top"/>
  <outline>
    <contour>
      <point x="353" y="606" type="line"/>
      <point x="412" y="606" type="line"/>
      <point x="450" y="663"/>
      <point x="493" y="748"/>
      <point x="508" y="793" type="curve"/>
      <point x="508" y="804" type="line"/>
      <point x="408" y="804" type="line"/>
      <point x="399" y="751"/>
      <point x="375" y="669"/>
      <point x="353" y="620" type="curve"/>
    </contour>
  </outline>
</glyph>
<glyph name="Upsilontonos" format="2">
  <advance width="800"/>
  <unicode hex="038E"/>
  <anchor x="468" y="0" name="bottom"/>
  <anchor x="468" y="714" name="top"/>
  <outline>
    <contour>
      <point x="421" y="0" type="line"/>
      <point x="514" y="0" type="line"/>
      <point x="514" y="278" type="line"/>
      <point x="790" y="714" type="line"/>
      <point x="688" y="714" type="line"/>
      <point x="469" y="371" type="line"/>
      <point x="246" y="714" type="line"/>
      <point x="143" y="714" type="line"/>
      <point x="421" y="278" type="line"/>
    </contour>
    <component base="tonos" xOffset="-436"/>
  </outline>
</glyph>
<glyph name="Theta" format="2">
  <advance width="800"/>
  <unicode hex="0398"/>
  <anchor x="400" y="0" name="bottom"/>
  <anchor x="400" y="714" name="top"/>
  <anchor x="-31" y="714" name="topleft"/>
  <anchor x="370" y="10" name="ogonek"/>
  <anchor x="370" y="357" name="center"/>
  <anchor x="800" y="714" name="topright"/>
  <outline>
    <contour>
      <point x="241" y="322" type="line"/>
      <point x="559" y="322" type="line"/>
      <point x="559" y="404" type="line"/>
      <point x="241" y="404" type="line"/>
    </contour>
    <component base="O" xOffset="-30"/>
  </outline>
</glyph>
<glyph name="Xi" format="2">
  <advance width="800"/>
  <unicode hex="039E"/>
  <anchor x="400" y="0" name="bottom"/>
  <anchor x="400" y="714" name="top"/>
  <outline>
    <contour>
      <point x="83" y="0" type="line"/>
      <point x="717" y="0" type="line"/>
      <point x="717" y="84" type="line"/>
      <point x="83" y="84" type="line"/>
    </contour>
    <contour>
      <point x="155" y="331" type="line"/>
      <point x="644" y="331" type="line"/>
      <point x="644" y="414" type="line"/>
      <point x="155" y="414" type="line"/>
    </contour>
    <contour>
      <point x="112" y="630" type="line"/>
      <point x="688" y="630" type="line"/>
      <point x="688" y="714" type="line"/>
      <point x="112" y="714" type="line"/>
    </contour>
  </outline>
</glyph>
<glyph name="alpha" format="2">
  <advance width="800"/>
  <unicode hex="03B1"/>
  <anchor x="386" y="0" name="bottom"/>
  <anchor x="400" y="537" name="top"/>
  <outline>
    <contour>
      <point x="350" y="-10" type="curve" smooth="yes"/>
      <point x="479" y="-10"/>
      <point x="547" y="31"/>
      <point x="585" y="72" type="curve"/>
      <point x="592" y="72" type="line"/>
      <point x="604" y="8"/>
      <point x="646" y="-10"/>
      <point x="717" y="-10" type="curve" smooth="yes"/>
      <point x="748" y="-10"/>
      <point x="777" y="-3"/>
      <point x="791" y="3" type="curve"/>
      <point x="791" y="72" type="line"/>
      <point x="779" y="70"/>
      <point x="760" y="67"/>
      <point x="744" y="67" type="curve" smooth="yes"/>
      <point x="704" y="67"/>
      <point x="679" y="82"/>
      <point x="679" y="124" type="curve" smooth="yes"/>
      <point x="679" y="326" type="line" smooth="yes"/>
      <point x="679" y="399"/>
      <point x="692" y="492"/>
      <point x="711" y="537" type="curve"/>
      <point x="633" y="537" type="line"/>
      <point x="615" y="517"/>
      <point x="600" y="488"/>
      <point x="595" y="465" type="curve"/>
      <point x="589" y="465" type="line"/>
      <point x="546" y="519"/>
      <point x="473" y="547"/>
      <point x="360" y="547" type="curve" smooth="yes"/>
      <point x="168" y="547"/>
      <point x="56" y="448"/>
      <point x="56" y="268" type="curve" smooth="yes"/>
      <point x="56" y="83"/>
      <point x="163" y="-10"/>
    </contour>
    <contour>
      <point x="369" y="68" type="curve" smooth="yes"/>
      <point x="227" y="68"/>
      <point x="154" y="126"/>
      <point x="154" y="270" type="curve" smooth="yes"/>
      <point x="154" y="401"/>
      <point x="226" y="468"/>
      <point x="373" y="468" type="curve" smooth="yes"/>
      <point x="518" y="468"/>
      <point x="585" y="392"/>
      <point x="585" y="268" type="curve" smooth="yes"/>
      <point x="585" y="262" type="line" smooth="yes"/>
      <point x="585" y="134"/>
      <point x="519" y="68"/>
    </contour>
  </outline>
</glyph>
